<?xml version="1.0" standalone="no"?>
<!DOCTYPE svg PUBLIC "-//W3C//DTD SVG 20010904//EN"
 "http://www.w3.org/TR/2001/REC-SVG-20010904/DTD/svg10.dtd">
<svg version="1.0" xmlns="http://www.w3.org/2000/svg"
 width="1024.000000pt" height="1024.000000pt" viewBox="0 0 1024.000000 1024.000000"
 preserveAspectRatio="xMidYMid meet">

<g transform="translate(0.000000,1024.000000) scale(0.100000,-0.100000)"
fill="#000000" stroke="none">
<path d="M0 5120 l0 -5120 5120 0 5120 0 0 5120 0 5120 -5120 0 -5120 0 0
-5120z m5450 4765 c128 -19 227 -46 367 -101 189 -72 318 -148 484 -281 47
-37 97 -76 110 -84 l23 -16 -48 -54 c-104 -116 -308 -433 -383 -598 -20 -42
-55 -123 -78 -181 -24 -58 -60 -145 -80 -195 l-37 -89 22 -53 c18 -44 21 -63
15 -116 -4 -34 -16 -84 -26 -112 -11 -27 -19 -51 -19 -52 0 -1 24 -9 53 -18
64 -21 224 -109 303 -168 109 -81 253 -221 307 -297 16 -23 16 -23 178 131 90
85 223 214 297 286 l134 133 -26 44 c-14 25 -52 67 -83 93 -117 99 -186 169
-199 200 -18 43 -18 125 1 170 25 59 91 138 179 212 182 154 199 149 490 -141
109 -109 204 -198 211 -198 19 0 103 66 242 190 180 163 505 430 521 430 4 0
7 35 7 78 0 104 31 171 117 253 74 71 161 117 245 129 90 12 296 -4 367 -29
115 -41 205 -116 271 -226 64 -107 94 -253 75 -371 -16 -103 -58 -233 -91
-280 -37 -54 -141 -141 -198 -167 -64 -28 -158 -34 -221 -13 l-52 17 -51 -46
c-29 -25 -97 -86 -152 -136 -55 -49 -161 -143 -235 -208 -74 -66 -164 -149
-200 -186 -56 -57 -63 -68 -49 -78 8 -7 61 -52 117 -101 155 -135 220 -244
198 -330 -4 -15 -47 -70 -96 -123 l-89 -97 102 -17 c56 -10 164 -34 239 -53
75 -19 167 -38 205 -41 37 -3 87 -8 111 -11 l43 -5 -73 -77 c-40 -43 -96 -104
-125 -137 -44 -51 -156 -152 -195 -176 -7 -5 8 -25 45 -59 58 -52 124 -148
158 -227 24 -57 69 -232 69 -271 0 -29 1 -30 63 -37 91 -11 137 -27 221 -79
96 -61 194 -164 237 -252 31 -63 34 -76 34 -160 0 -88 -2 -94 -44 -178 -29
-57 -59 -100 -88 -126 -102 -89 -264 -133 -364 -98 -55 19 -163 92 -201 137
l-36 42 -6 -35 c-17 -89 -93 -200 -181 -266 -18 -13 -20 -24 -17 -95 l3 -80
52 -25 c56 -28 54 -24 152 -233 63 -136 79 -211 73 -332 l-4 -84 180 -3 c167
-3 185 -5 226 -26 57 -30 109 -80 164 -157 87 -121 81 -80 84 -541 l3 -411
-25 -16 c-14 -9 -47 -22 -73 -28 -88 -21 -87 -17 -36 -84 57 -75 109 -183 123
-254 13 -70 13 -1033 0 -1126 -17 -114 -76 -185 -255 -305 -44 -29 -97 -67
-117 -83 -36 -29 -40 -30 -80 -18 -38 12 -166 75 -508 254 -164 85 -170 89
-170 103 0 7 -15 12 -34 12 -43 0 -49 2 -241 77 -268 105 -406 150 -416 134
-5 -8 -27 -72 -50 -144 -116 -367 -121 -378 -173 -433 -40 -43 -76 -62 -119
-62 -38 0 -192 74 -347 166 -151 90 -535 272 -547 260 -2 -2 -10 -30 -19 -62
-33 -126 -120 -230 -247 -292 -45 -22 -90 -43 -99 -46 -10 -3 -22 -24 -28 -48
-42 -155 -178 -300 -316 -337 -41 -11 -41 -11 -47 -67 -9 -86 -54 -171 -141
-262 -93 -97 -163 -137 -270 -154 -89 -14 -193 -2 -267 31 -147 65 -282 224
-304 356 -13 85 -12 83 -69 99 -69 20 -163 90 -214 158 -59 79 -70 104 -96
220 -5 21 -13 27 -44 33 -97 16 -244 141 -300 254 -18 35 -32 75 -32 89 0 28
11 30 -139 -23 -119 -42 -269 -114 -373 -181 -175 -112 -306 -176 -374 -182
-61 -5 -102 13 -139 62 -23 30 -89 204 -187 491 -17 50 -32 92 -34 94 -1 2
-22 -4 -46 -12 -24 -9 -90 -31 -148 -48 -58 -18 -168 -59 -245 -91 -77 -33
-185 -77 -239 -99 -54 -22 -122 -53 -150 -68 -28 -15 -114 -61 -191 -101 -77
-40 -193 -102 -258 -138 l-117 -64 -45 41 c-25 23 -102 79 -173 124 -131 86
-167 119 -205 191 l-22 41 -3 1153 c-1 764 1 1166 8 1192 14 52 97 176 151
226 25 22 72 54 104 70 58 28 65 29 237 32 l177 4 -7 31 c-4 18 -7 75 -7 127
0 92 2 99 41 180 23 47 47 111 53 142 14 65 64 146 101 165 23 11 25 18 26 85
0 40 4 83 8 96 6 19 2 25 -27 37 -19 8 -51 33 -70 56 -39 45 -106 174 -117
223 l-6 31 -18 -37 c-31 -65 -90 -123 -156 -152 -53 -24 -72 -28 -134 -24
-283 15 -469 333 -347 593 73 158 255 277 457 301 l50 6 16 120 c12 83 25 137
42 173 32 64 112 173 179 242 28 29 49 54 46 56 -2 1 -22 15 -44 29 -50 32
-99 80 -243 235 l-112 122 42 5 c24 3 68 8 98 11 30 3 132 24 225 45 94 22
210 44 259 50 49 6 93 13 98 16 18 11 6 38 -37 87 -25 29 -60 80 -76 114 -52
103 -30 148 155 333 69 69 126 129 126 133 0 16 -130 145 -315 312 -308 279
-333 301 -369 320 -32 17 -40 18 -88 5 -116 -30 -189 -10 -296 80 -76 63 -118
122 -133 186 -7 27 -18 74 -27 104 -41 155 -33 277 26 403 61 129 156 219 289
275 84 35 138 42 284 32 173 -10 227 -30 315 -112 91 -85 129 -165 129 -270
l0 -78 116 -93 c63 -50 166 -137 229 -192 266 -235 361 -309 419 -326 l43 -13
202 205 c211 216 267 258 322 245 47 -12 161 -95 231 -169 82 -86 115 -150
121 -229 4 -48 0 -64 -21 -101 -25 -42 -123 -141 -173 -174 -13 -8 -47 -46
-75 -84 l-51 -69 28 -22 c16 -13 148 -141 293 -285 145 -145 269 -263 275
-263 6 0 31 25 56 56 73 91 209 215 321 290 117 80 160 104 236 128 l53 17
-22 42 c-29 57 -37 199 -15 255 15 38 15 42 -17 133 -84 238 -179 442 -303
652 -77 130 -191 300 -228 339 -14 15 -25 31 -25 35 1 11 214 186 285 233 193
129 489 235 728 260 125 13 357 11 457 -5z m-1581 -1635 c27 -14 39 -54 46
-151 10 -139 -13 -167 -121 -146 -54 11 -59 15 -62 40 -4 32 -3 32 46 12 44
-19 78 -13 85 15 10 38 -3 59 -42 66 l-36 7 30 10 c61 20 74 54 31 82 -30 20
-62 7 -76 -31 -6 -14 -14 -22 -20 -19 -5 3 -10 0 -10 -7 0 -7 -5 -5 -12 6 -18
32 7 95 45 111 38 17 72 19 96 5z m2473 -1 c32 -17 48 -71 48 -159 0 -84 -15
-132 -45 -144 -9 -3 -38 -6 -65 -6 -41 0 -52 4 -69 26 -24 30 -28 61 -8 61 9
0 12 -9 9 -23 -4 -21 -1 -22 48 -19 56 3 70 14 70 57 0 35 -13 42 -80 43 l-55
0 -3 37 c-4 45 30 115 61 128 31 12 65 12 89 -1z m296 -5 c43 -30 55 -70 48
-157 -4 -44 -11 -88 -17 -98 -24 -46 -130 -66 -162 -31 -23 25 -39 117 -31
179 5 45 12 58 45 88 43 39 80 45 117 19z m-2467 -20 c21 -23 24 -36 27 -125
3 -77 0 -105 -11 -123 -35 -52 -132 -59 -163 -11 -23 35 -38 168 -24 211 25
74 121 101 171 48z"/>
<path d="M5069 9770 c-331 -32 -630 -150 -857 -340 -56 -47 -61 -54 -48 -69 8
-9 63 -93 123 -186 138 -216 268 -475 349 -695 13 -36 34 -86 46 -113 l22 -47
-22 -39 c-18 -31 -22 -55 -22 -124 0 -104 11 -132 62 -154 l39 -17 -3 -55 -3
-56 -68 -17 c-203 -53 -484 -258 -668 -486 -150 -186 -262 -444 -299 -687 -16
-109 -18 -113 -56 -133 -44 -23 -150 -162 -165 -216 -6 -23 -9 -90 -7 -151 4
-131 26 -181 94 -221 l41 -24 5 -79 c5 -92 36 -156 93 -191 42 -26 42 -28 50
-266 l6 -181 -40 -76 c-22 -41 -43 -94 -47 -116 -9 -57 17 -122 65 -160 34
-27 41 -42 80 -168 24 -76 67 -187 96 -248 60 -126 180 -300 272 -394 34 -36
60 -67 57 -70 -3 -3 -148 -5 -322 -3 -175 2 -378 -1 -453 -7 -75 -5 -156 -5
-180 -1 -24 5 -261 10 -526 12 -322 2 -483 6 -483 13 0 6 16 34 36 64 30 45
39 52 57 45 12 -4 57 -9 100 -11 73 -4 83 -2 151 30 160 76 238 195 237 359
-1 68 1 78 17 78 38 0 126 53 181 107 62 63 91 129 91 208 l0 42 48 7 c67 9
183 67 232 116 114 114 129 291 39 442 l-40 69 27 55 c69 140 1 302 -149 354
-31 11 -92 22 -136 24 -79 4 -79 4 -120 48 -43 48 -116 92 -168 103 -39 8 -40
12 -9 73 38 73 117 154 188 192 58 32 70 35 153 35 79 0 96 -3 136 -26 l47
-26 23 49 c13 28 34 64 46 81 13 17 23 34 23 37 0 9 -126 58 -180 70 -111 24
-262 -2 -377 -65 -35 -19 -72 -35 -83 -35 -31 0 -68 67 -96 171 -31 118 -63
184 -111 231 -64 62 -340 176 -404 166 -29 -4 -51 -46 -53 -102 -1 -23 -5 -46
-9 -52 -8 -13 -51 -6 -126 21 -54 19 -123 19 -226 1 -120 -22 -345 -86 -345
-98 0 -14 234 -215 291 -249 l60 -36 -64 -47 c-106 -75 -193 -199 -267 -380
-22 -55 -40 -112 -40 -127 0 -33 25 -44 63 -30 22 9 26 7 29 -12 4 -27 32 -35
129 -36 73 -1 77 -2 83 -26 6 -24 10 -25 75 -25 l69 0 1 -84 c1 -83 1 -84 -27
-91 -45 -11 -106 -51 -164 -109 -75 -73 -92 -123 -86 -259 3 -87 8 -110 33
-160 35 -71 109 -142 162 -156 l40 -11 -14 -62 c-15 -69 -10 -138 12 -192 21
-49 20 -51 -25 -71 -40 -18 -100 -76 -100 -96 0 -6 -22 -45 -49 -87 -27 -42
-55 -90 -61 -107 -39 -102 -31 -245 20 -345 l30 -60 -243 0 c-241 0 -243 0
-295 -26 -60 -30 -146 -120 -176 -184 -21 -45 -21 -54 -24 -1140 -2 -759 1
-1109 8 -1140 20 -83 55 -119 172 -181 59 -30 122 -68 142 -82 19 -15 46 -27
59 -27 22 0 117 46 327 157 30 16 78 38 106 50 49 20 51 22 57 68 4 26 7 61 7
76 0 37 9 36 46 -2 28 -29 31 -30 94 -24 43 5 96 20 155 46 154 68 140 54 143
142 3 83 13 95 48 56 10 -12 36 -35 57 -51 l37 -30 130 41 130 42 0 32 c1 126
82 1 172 -263 99 -291 127 -369 138 -390 10 -19 18 -22 56 -17 32 3 81 28 196
100 248 155 347 200 643 296 103 34 190 61 194 61 3 0 6 -42 6 -93 0 -82 3
-98 29 -150 56 -110 184 -207 273 -207 l40 0 6 -66 c4 -50 14 -85 42 -140 62
-123 161 -194 289 -210 l58 -7 -6 -56 c-24 -215 183 -419 402 -397 89 9 141
34 211 100 85 82 115 147 119 266 l4 95 51 3 c102 5 236 97 285 196 24 47 46
158 39 188 -6 20 12 28 62 28 84 0 199 65 246 140 34 54 65 172 65 248 l0 63
28 -15 c15 -7 63 -23 107 -35 187 -50 383 -140 632 -290 83 -49 167 -97 188
-105 50 -21 98 -20 119 3 9 10 38 87 65 172 68 214 169 500 187 527 25 39 44
28 44 -27 0 -27 6 -53 13 -58 6 -6 96 -38 200 -72 103 -34 226 -79 274 -101
47 -22 97 -40 111 -40 14 0 63 20 109 45 118 64 117 64 109 -48 l-7 -92 258
-127 c142 -70 268 -130 281 -133 17 -5 41 7 100 48 42 30 96 64 119 75 53 27
111 98 129 158 11 38 14 145 14 553 0 506 0 506 -24 573 -29 82 -93 180 -182
276 -61 67 -66 75 -56 97 13 28 23 31 157 42 l100 8 0 355 0 355 -29 52 c-40
72 -123 163 -165 181 -28 12 -88 16 -270 18 -128 2 -235 4 -237 6 -2 2 9 33
23 68 21 50 28 87 31 160 4 106 -12 168 -68 252 -47 71 -148 176 -196 204 -24
14 -44 27 -44 29 0 2 7 31 16 65 14 56 14 68 0 139 -19 93 -19 91 -5 91 34 0
155 109 193 174 58 100 55 253 -7 358 -39 64 -150 151 -213 167 l-44 11 0 53
c0 28 -3 62 -6 75 -6 21 -3 22 47 22 65 0 123 26 127 57 2 12 9 20 15 17 7 -2
48 3 92 12 44 9 113 18 153 21 39 2 72 6 72 7 0 11 -73 214 -94 260 -31 71
-114 184 -166 229 -21 18 -61 44 -89 59 l-51 26 30 12 c16 7 50 26 74 44 52
37 270 245 264 252 -3 2 -84 24 -182 49 -203 52 -243 54 -402 23 -63 -12 -117
-19 -120 -15 -4 4 1 24 11 45 11 20 21 40 23 45 2 4 -6 7 -17 7 -16 0 -21 6
-21 26 0 27 0 27 -58 21 -32 -4 -97 -20 -143 -38 -46 -17 -99 -32 -118 -33
-28 -2 -47 -16 -108 -79 -82 -86 -148 -181 -163 -236 -5 -20 -10 -57 -10 -82
0 -32 -6 -51 -18 -62 -25 -23 -29 -22 -114 18 -94 45 -205 69 -280 60 -55 -6
-165 -33 -222 -55 l-29 -11 21 -22 c11 -12 32 -48 46 -79 14 -32 28 -58 31
-58 3 0 22 7 43 16 23 11 64 17 108 17 59 0 83 -5 138 -31 128 -60 294 -252
217 -252 -38 0 -177 -79 -220 -125 l-42 -45 -76 0 c-87 0 -133 -17 -202 -76
-53 -45 -77 -94 -91 -178 -10 -61 -8 -70 15 -126 29 -69 30 -63 -42 -169 -45
-65 -45 -65 -41 -141 2 -58 10 -89 32 -135 59 -120 186 -212 309 -224 67 -7
61 1 86 -106 7 -27 23 -69 37 -92 36 -62 133 -139 198 -158 l54 -16 4 -82 c3
-67 9 -95 35 -150 39 -83 119 -169 188 -202 57 -28 155 -36 248 -21 l47 7 25
-53 c13 -29 21 -56 17 -59 -17 -17 -1696 -36 -1815 -21 -43 6 -81 13 -85 17
-3 3 14 24 39 45 57 48 178 207 242 316 57 97 117 253 147 384 13 52 27 100
32 107 5 6 27 14 49 18 52 9 70 38 70 108 0 65 -16 108 -64 165 -47 56 -52 94
-41 306 l9 171 42 43 c47 49 77 118 87 203 7 54 9 58 56 87 79 49 95 90 95
242 -1 116 -3 130 -28 182 -16 32 -63 94 -112 146 -73 77 -85 95 -85 125 0 45
-49 236 -90 355 -54 154 -166 332 -292 468 -57 61 -189 175 -255 221 -64 45
-220 122 -310 153 l-91 32 -4 41 c-3 37 0 45 29 72 44 41 53 71 53 179 0 78
-3 97 -20 119 -25 32 -25 40 4 90 13 23 35 74 49 112 44 123 144 339 218 472
73 130 101 173 209 321 33 45 60 86 60 91 0 4 -34 36 -75 71 -92 75 -315 193
-465 244 -199 67 -431 95 -631 76z m228 -138 c-3 -15 -9 -67 -13 -114 -4 -48
-10 -85 -15 -82 -4 2 -6 20 -4 39 5 35 3 37 -35 37 -37 0 -42 -2 -36 -17 3 -8
1 -15 -5 -15 -5 0 -8 -10 -6 -22 2 -13 2 -18 0 -12 -2 7 -13 14 -24 17 -10 3
-19 11 -19 17 0 9 3 10 13 1 8 -6 17 -8 20 -4 13 13 7 41 -10 48 -15 5 -16 4
-5 -6 6 -7 12 -20 12 -28 -1 -14 -3 -13 -14 2 -14 18 -32 24 -21 7 3 -5 1 -10
-5 -10 -7 0 -8 -5 -3 -12 10 -16 12 -68 3 -68 -7 0 -30 168 -30 219 l0 31 101
0 102 0 -6 -28z m-255 1 c6 -47 2 -193 -4 -193 -9 0 -12 22 -10 55 2 16 0 17
-8 5 -5 -8 -7 -23 -4 -32 3 -10 1 -18 -5 -18 -6 0 -12 -8 -12 -17 -1 -14 -2
-15 -6 -3 -3 8 -21 28 -41 45 -21 16 -30 21 -21 10 13 -15 15 -30 10 -60 l-6
-40 -12 40 c-6 22 -17 68 -23 103 -6 35 -13 69 -16 76 -3 8 16 18 58 28 84 21
98 21 100 1z m441 1 c9 -3 17 -15 17 -27 0 -22 -15 -88 -27 -117 -3 -8 -5 -19
-4 -23 1 -5 -3 -6 -9 -2 -7 4 -6 13 1 27 10 19 9 20 -10 15 -11 -3 -23 -1 -26
3 -9 14 -73 8 -68 -7 3 -7 11 -13 19 -13 8 0 14 -4 14 -9 0 -4 -11 -6 -25 -3
-28 5 -29 11 -18 111 l6 63 56 -7 c31 -3 64 -8 74 -11z m163 -48 c44 -15 68
-28 67 -37 -5 -30 -32 -119 -42 -136 -9 -16 -10 -16 -11 5 0 12 5 22 11 22 5
0 7 5 4 10 -3 6 -11 10 -16 10 -6 0 -7 -4 -4 -10 3 -5 1 -10 -5 -10 -6 0 -8
-4 -5 -10 3 -5 2 -10 -2 -10 -5 0 -14 14 -20 30 -6 17 -7 30 -2 30 5 0 10 -8
10 -17 1 -17 2 -17 6 0 2 9 9 17 14 17 6 0 8 4 5 9 -3 5 -17 9 -30 9 -18 0
-26 -7 -31 -27 -4 -14 -10 -20 -12 -13 -3 6 -9 12 -14 12 -6 0 -7 -4 -4 -10 3
-5 1 -10 -5 -10 -8 0 -8 -6 0 -20 9 -16 8 -18 -5 -14 -9 4 -15 0 -15 -9 0 -9
-4 -18 -9 -21 -5 -3 0 31 10 77 10 45 19 97 19 115 0 17 4 32 8 32 4 0 39 -11
78 -24z m-816 -24 c16 -60 30 -142 30 -174 0 -24 -2 -27 -14 -16 -7 7 -11 20
-8 28 5 13 4 13 -13 0 -17 -14 -18 -14 -7 7 9 17 9 22 -3 27 -8 3 -15 15 -15
28 0 17 -3 19 -12 10 -8 -8 -17 -8 -30 -1 -18 10 -19 9 -7 -13 7 -13 14 -25
14 -28 5 -26 19 -50 33 -53 14 -4 13 -5 -3 -6 -14 -1 -25 10 -35 32 -8 17 -15
34 -15 37 0 3 -7 15 -16 27 -30 43 -26 12 8 -68 19 -44 33 -83 30 -85 -6 -6
-97 210 -97 230 0 8 23 22 58 34 82 29 90 28 102 -16z m1014 -52 c36 -17 66
-35 66 -41 0 -13 -39 -79 -46 -79 -3 0 -3 4 1 9 6 11 -63 47 -72 37 -3 -3 -11
-2 -17 3 -7 6 -16 4 -23 -4 -10 -11 -9 -17 9 -29 l22 -16 -22 0 c-19 0 -22 -4
-17 -20 5 -16 3 -19 -11 -13 -12 4 -15 3 -10 -5 4 -7 3 -20 -3 -29 -9 -17 -10
-17 -16 -1 -4 9 5 45 20 80 15 34 31 80 37 101 6 20 12 37 13 37 1 0 32 -14
69 -30z m-1200 -56 c15 -41 26 -78 23 -81 -3 -2 -8 5 -12 16 -3 12 -10 21 -15
21 -6 0 -6 -10 0 -25 11 -28 5 -32 -16 -10 -9 8 -21 15 -27 14 -8 0 -8 -2 1
-6 10 -4 10 -8 2 -18 -8 -10 -8 -19 0 -34 6 -12 8 -21 5 -21 -4 0 -3 -5 1 -11
4 -8 9 -8 17 0 6 6 16 11 22 11 5 0 2 -7 -9 -15 -10 -8 -15 -19 -11 -27 4 -7
-2 -2 -13 12 -11 13 -20 27 -19 30 1 3 -4 15 -11 28 -8 14 -9 22 -2 22 6 0 8
10 4 24 -5 21 -3 24 15 19 12 -3 21 -1 21 6 0 8 -15 10 -47 7 -25 -4 -48 -8
-50 -10 -3 -2 5 -26 17 -53 26 -60 11 -45 -23 22 -45 90 -45 90 20 123 32 16
63 30 68 30 6 1 23 -32 39 -74z m602 39 c-4 -9 -1 -20 6 -25 11 -6 10 -8 0 -8
-7 0 -11 -4 -8 -9 4 -5 -5 -4 -18 2 -25 12 -25 50 0 40 8 -3 14 0 14 6 0 6 3
11 6 11 3 0 3 -8 0 -17z m127 -40 c-7 -2 -19 -2 -25 0 -7 3 -2 5 12 5 14 0 19
-2 13 -5z m-405 -28 c-3 -3 -9 2 -12 12 -6 14 -5 15 5 6 7 -7 10 -15 7 -18z
m1058 -21 c35 -25 64 -48 64 -52 0 -9 -32 -42 -42 -42 -4 0 -8 7 -8 15 0 27
-17 16 -23 -15 -4 -16 -11 -30 -17 -30 -7 0 -8 6 0 19 13 25 13 54 0 46 -6 -4
-17 -1 -25 5 -16 14 -35 5 -35 -16 0 -14 -12 -19 -22 -8 -7 6 31 124 39 124 2
0 33 -21 69 -46z m-1579 -1 c47 -115 54 -136 40 -124 -11 8 -17 9 -22 1 -3 -6
-11 -8 -16 -4 -5 3 -17 0 -25 -7 -8 -6 -18 -9 -21 -5 -4 4 -1 11 7 16 17 11 9
13 -14 4 -9 -3 -13 -11 -9 -18 3 -6 -3 -2 -16 8 -31 28 -67 89 -54 93 5 2 30
17 54 33 55 36 62 36 76 3z m557 -1 c2 -4 -4 -8 -14 -8 -10 0 -16 4 -14 8 3 4
9 8 14 8 5 0 11 -4 14 -8z m-166 -57 c-3 -3 -9 2 -12 12 -6 14 -5 15 5 6 7 -7
10 -15 7 -18z m-157 -48 c-10 -9 -11 -8 -5 6 3 10 9 15 12 12 3 -3 0 -11 -7
-18z m1249 1 c0 -6 -6 -5 -15 2 -12 10 -15 10 -15 -4 0 -9 -5 -16 -10 -16 -7
0 -7 6 0 20 10 19 40 18 40 -2z m-1350 -8 c0 -5 -2 -10 -4 -10 -3 0 -8 5 -11
10 -3 6 -1 10 4 10 6 0 11 -4 11 -10z m-140 -39 c0 -6 -4 -13 -10 -16 -5 -3
-10 1 -10 9 0 9 5 16 10 16 6 0 10 -4 10 -9z m1027 -343 c-3 -8 -6 -5 -6 6 -1
11 2 17 5 13 3 -3 4 -12 1 -19z m-17 -125 c-7 -46 -14 -82 -17 -79 -3 2 1 46
8 96 7 51 15 87 17 80 3 -7 -1 -51 -8 -97z m-23 -125 c-3 -8 -6 -5 -6 6 -1 11
2 17 5 13 3 -3 4 -12 1 -19z m103 -287 c36 -3 65 -10 65 -16 0 -15 -770 -18
-797 -4 -17 9 -18 13 -7 20 16 10 638 10 739 0z m64 -127 c23 -9 23 -159 0
-168 -9 -3 -195 -6 -414 -6 l-397 0 -7 31 c-8 42 -8 134 1 142 8 9 796 9 817
1z m-99 -370 c0 -105 -2 -119 -17 -122 -15 -3 -18 4 -18 46 0 97 13 203 24
199 7 -2 11 -45 11 -123z m-427 106 c61 0 91 -4 87 -10 -4 -6 -14 -9 -23 -8
-11 2 -16 -3 -14 -13 2 -12 -4 -15 -23 -11 -17 3 -25 0 -25 -9 0 -11 -2 -11
-8 -2 -11 17 -50 5 -57 -18 -7 -21 -25 -26 -26 -6 0 6 -4 3 -9 -8 -8 -18 -9
-17 -9 8 -2 53 -21 16 -21 -40 0 -45 4 -59 23 -75 14 -13 16 -19 7 -17 -8 2
-30 -5 -48 -14 -18 -10 -37 -15 -42 -12 -12 7 -13 204 -2 221 8 14 49 23 77
18 11 -2 62 -4 113 -4z m801 -311 c102 -54 142 -83 231 -163 198 -177 366
-450 425 -689 15 -60 24 -111 20 -115 -13 -13 -33 30 -55 120 -40 158 -161
377 -294 528 -130 148 -252 238 -460 342 -146 73 -170 104 -45 58 45 -16 125
-53 178 -81z m-1099 78 c0 -7 -45 -35 -100 -62 -55 -27 -100 -54 -100 -59 0
-6 5 -5 12 2 8 8 15 9 25 0 11 -8 12 -7 7 6 -6 16 10 23 19 9 2 -5 2 -2 1 5
-2 6 1 12 6 12 6 0 10 -5 10 -11 0 -6 7 -9 15 -5 8 3 15 0 16 -7 0 -9 2 -9 6
1 8 21 25 13 18 -9 -5 -15 -4 -19 4 -15 6 4 11 13 11 20 0 17 40 29 41 13 0
-8 2 -8 6 1 2 6 9 10 14 6 5 -3 5 -14 -2 -27 l-10 -22 19 22 c16 18 21 20 26
8 3 -8 1 -15 -5 -15 -6 0 -7 -5 -3 -11 5 -8 9 -7 14 1 5 7 21 14 37 16 15 1
22 0 16 -3 -22 -8 -14 -30 20 -53 17 -12 24 -19 15 -16 -10 3 -18 1 -18 -3 0
-5 5 -11 12 -13 7 -3 9 -14 3 -34 -4 -16 -10 -23 -12 -16 -3 6 -9 10 -14 6 -5
-3 -9 0 -9 6 0 6 -5 8 -11 5 -6 -5 -4 -12 8 -20 10 -7 15 -17 11 -21 -4 -4
-14 -1 -23 6 -22 18 -19 4 4 -19 11 -11 23 -16 27 -13 4 4 4 1 0 -6 -4 -7 -12
-10 -17 -7 -5 4 -9 2 -9 -4 0 -5 -8 -8 -17 -6 -10 1 -24 -2 -30 -8 -7 -5 -13
-6 -13 -1 0 14 -20 -19 -20 -33 0 -7 5 -13 11 -13 6 0 9 7 5 15 -3 8 -1 15 3
15 5 0 11 -5 13 -12 3 -7 13 -5 31 7 24 15 27 16 21 1 -3 -9 -10 -13 -15 -10
-8 4 -13 -8 -11 -27 1 -4 -13 -6 -31 -5 -38 3 -57 -3 -57 -16 0 -6 7 -8 15 -4
8 3 15 1 15 -5 0 -6 -10 -9 -22 -7 -18 2 -22 -1 -20 -16 3 -15 1 -16 -12 -5
-13 12 -13 15 1 26 9 7 14 15 11 18 -3 3 -13 -1 -22 -11 -12 -11 -14 -20 -6
-29 13 -16 -17 -42 -46 -40 -16 2 -20 -2 -17 -15 6 -21 -12 -35 -23 -19 -4 8
-3 9 4 5 7 -4 12 -2 12 3 0 14 -2 14 -33 -2 -21 -11 -23 -16 -14 -33 10 -18 9
-18 -10 -1 -24 21 -37 22 -29 2 3 -8 1 -15 -4 -15 -6 0 -10 5 -10 10 0 6 -4
10 -10 10 -5 0 -7 -7 -4 -15 4 -11 2 -13 -9 -9 -9 3 -15 0 -14 -8 0 -7 -1 -22
-2 -33 -1 -16 -3 -17 -11 -5 -5 8 -5 17 0 20 5 3 5 12 0 20 -8 13 -10 12 -10
-2 0 -21 -16 -24 -23 -5 -3 6 -6 -1 -6 -18 0 -20 2 -26 8 -16 6 9 11 10 15 2
4 -6 2 -11 -3 -11 -6 0 -11 -8 -11 -17 -1 -14 -4 -12 -15 7 -11 20 -14 21 -15
7 0 -14 -5 -17 -20 -12 -16 5 -19 3 -13 -11 5 -13 3 -15 -8 -8 -22 14 -59 12
-59 -4 0 -8 -6 -12 -14 -9 -10 4 -13 1 -10 -8 3 -8 1 -22 -5 -32 -7 -12 -10
-13 -11 -4 0 8 -7 11 -20 8 -11 -3 -20 -1 -20 4 0 5 -7 9 -15 9 -8 0 -15 5
-15 12 0 6 -9 3 -20 -7 l-21 -19 24 -13 c22 -11 43 -51 32 -61 -2 -3 -7 7 -10
21 -8 29 -34 39 -75 27 -22 -6 -28 -5 -24 5 3 7 14 11 25 8 10 -3 19 0 19 6 0
6 -7 11 -15 11 -8 0 -14 3 -13 8 1 4 -6 22 -16 41 -14 26 -15 36 -5 45 9 8 10
7 5 -7 -4 -13 -2 -17 6 -15 7 3 13 10 13 16 0 5 3 14 8 18 4 4 7 2 7 -5 0 -7
5 -9 13 -4 6 4 18 8 25 9 38 6 17 12 -28 8 -33 -3 -49 -1 -45 6 3 5 13 10 21
10 8 0 14 4 14 10 0 5 -7 6 -17 3 -12 -5 -14 -3 -9 8 4 8 1 6 -7 -3 -8 -10
-20 -18 -28 -18 -10 1 -9 4 4 14 9 7 17 18 17 25 0 9 5 9 20 1 21 -11 24 -7
21 37 -1 11 3 24 9 28 5 3 8 11 5 16 -8 12 -24 -5 -91 -98 -76 -106 -112 -181
-174 -363 -29 -85 -57 -159 -61 -164 -17 -19 -9 71 15 154 106 379 335 667
680 856 132 72 226 102 226 71z m-36 -73 c3 -8 2 -13 -3 -9 -5 3 -11 0 -13 -7
-3 -7 -7 -5 -11 6 -4 10 -3 15 3 11 6 -3 10 -1 10 4 0 16 7 13 14 -5z m236
-144 c0 -5 -5 -10 -11 -10 -5 0 -7 5 -4 10 3 6 8 10 11 10 2 0 4 -4 4 -10z
m300 -295 c30 -13 109 -47 175 -76 184 -80 692 -335 890 -447 136 -77 350
-225 350 -242 0 -27 -43 -12 -122 41 -129 88 -235 145 -618 338 -410 207 -713
341 -766 341 -19 -1 -54 -12 -79 -26 -25 -13 -35 -22 -22 -19 15 4 24 1 28 -8
5 -13 10 -14 39 -1 42 17 35 18 74 -10 31 -23 32 -25 10 -23 -13 2 -34 8 -46
15 -16 9 -22 9 -26 -1 -9 -23 -293 -157 -348 -164 -31 -5 -43 -12 -50 -30 -7
-19 -14 -23 -30 -18 -14 5 -28 0 -44 -15 -14 -13 -29 -19 -36 -15 -7 5 -10 4
-6 -2 7 -12 -68 -49 -119 -59 -30 -5 -40 -3 -50 11 -12 17 -9 21 29 43 23 13
48 25 55 26 15 3 40 26 27 26 -10 0 -276 -138 -288 -150 -5 -4 4 -5 20 -2 15
3 34 11 41 19 19 19 45 16 60 -7 11 -18 10 -19 -17 -14 -25 5 -33 0 -67 -40
-37 -45 -98 -81 -153 -92 -43 -9 -49 21 -10 57 17 16 28 29 25 29 -14 0 -133
-66 -176 -98 -2 -2 2 -7 10 -13 11 -7 8 -8 -10 -4 -26 6 -80 -25 -220 -124
-54 -38 -65 -42 -86 -32 -13 6 -24 15 -24 20 0 10 274 191 375 247 39 21 88
49 110 61 166 94 671 348 900 452 98 45 104 45 195 6z m-1115 -5 c3 -5 2 -10
-4 -10 -5 0 -13 5 -16 10 -3 6 -2 10 4 10 5 0 13 -4 16 -10z m-55 -85 c-7 -8
-17 -15 -22 -15 -11 0 14 29 26 30 5 0 3 -7 -4 -15z m430 -15 c0 -5 -2 -10 -4
-10 -3 0 -8 5 -11 10 -3 6 -1 10 4 10 6 0 11 -4 11 -10z m27 -12 c-3 -8 -6 -5
-6 6 -1 11 2 17 5 13 3 -3 4 -12 1 -19z m-457 -8 c0 -5 -4 -10 -10 -10 -5 0
-10 5 -10 10 0 6 5 10 10 10 6 0 10 -4 10 -10z m16 -48 c1 -12 -3 -22 -8 -22
-6 0 -7 8 -4 17 4 9 1 20 -6 25 -10 7 -9 9 2 5 8 -2 16 -13 16 -25z m264 18
c0 -5 -2 -10 -4 -10 -3 0 -8 5 -11 10 -3 6 -1 10 4 10 6 0 11 -4 11 -10z m-20
-19 c0 -4 -6 -8 -14 -8 -8 0 -12 6 -9 14 5 13 23 9 23 -6z m-127 -26 c11 -7
25 -11 32 -9 7 3 15 -2 18 -10 4 -11 1 -13 -10 -9 -13 5 -15 2 -11 -15 4 -12
2 -25 -3 -28 -8 -4 -14 25 -10 48 0 4 -10 10 -24 14 -14 3 -25 10 -25 15 0 13
12 11 33 -6z m141 -7 c-3 -4 -9 -8 -15 -8 -5 0 -9 4 -9 8 0 5 7 9 15 9 8 0 12
-4 9 -9z m912 -64 c418 -176 911 -415 1124 -543 52 -32 116 -70 143 -85 31
-18 47 -34 47 -46 0 -11 -3 -20 -7 -20 -3 0 -38 19 -77 43 -176 108 -510 279
-756 387 -377 166 -557 240 -583 240 -61 0 -982 -439 -1244 -594 -91 -53 -153
-79 -153 -62 0 28 126 105 485 294 308 162 867 429 901 431 6 1 60 -20 120
-45z m298 15 c29 -22 35 -59 11 -59 -29 0 -75 30 -75 49 0 37 25 41 64 10z
m2426 -33 c0 -7 -7 -33 -15 -56 -19 -53 -20 -100 -2 -100 7 0 52 13 100 29
124 42 219 55 345 47 105 -6 177 -18 190 -31 11 -10 -21 -25 -57 -25 -25 0
-32 -4 -28 -15 7 -16 -9 -30 -17 -16 -4 5 -54 -17 -113 -49 -80 -43 -110 -65
-116 -84 -5 -14 -17 -28 -28 -31 -42 -14 -13 -55 60 -87 48 -20 155 -93 184
-125 17 -20 17 -20 -8 -16 -13 3 -22 10 -19 15 4 5 -8 3 -24 -6 -55 -29 -99
-17 -191 50 -53 38 -164 68 -254 68 l-78 1 28 23 c54 45 169 120 253 165 47
25 94 53 105 61 19 15 18 15 -22 16 -74 0 -137 -29 -407 -189 -39 -22 -72 -39
-74 -36 -2 2 1 43 7 92 26 219 21 243 -23 102 -12 -41 -28 -73 -34 -72 -6 2
-9 -3 -6 -11 15 -39 -128 -216 -173 -216 -29 0 -29 11 2 66 13 24 34 83 46
132 12 48 33 109 47 135 34 63 94 117 130 117 15 0 38 7 50 16 21 14 97 40
130 43 6 0 12 -5 12 -13z m-2242 -59 c48 -35 54 -52 15 -42 -50 12 -113 54
-106 70 7 20 35 11 91 -28z m-3338 16 c14 -3 30 -7 35 -9 34 -8 140 -71 137
-82 -1 -8 2 -11 7 -8 5 4 13 1 17 -5 11 -18 -17 -28 -66 -22 -34 4 -49 1 -59
-10 -23 -29 -24 -88 -3 -149 11 -32 18 -58 16 -58 -3 0 -24 11 -47 24 -23 13
-87 41 -142 61 -55 21 -138 57 -185 80 -88 45 -167 71 -179 60 -3 -4 14 -25
39 -47 47 -42 328 -188 361 -188 25 0 21 -19 -7 -34 -10 -6 -21 -14 -24 -18
-6 -8 -93 -29 -133 -33 -16 -1 -32 -6 -35 -11 -4 -5 -16 -10 -27 -10 -70 -6
-125 -25 -125 -44 0 -5 -38 -23 -85 -41 -46 -18 -86 -37 -89 -44 -6 -16 104
-19 168 -5 27 6 50 9 52 7 2 -1 -13 -11 -34 -21 -20 -10 -49 -25 -64 -33 -50
-25 -117 -42 -121 -29 -3 8 -8 8 -18 -1 -9 -7 -20 -8 -28 -3 -11 6 -10 15 8
44 13 20 19 36 14 36 -5 0 -17 -17 -27 -37 -17 -34 -19 -36 -26 -18 -7 19 -8
19 -18 -5 -6 -14 -23 -38 -39 -55 -27 -28 -28 -29 -31 -8 -9 60 118 227 220
290 100 63 162 123 126 123 -16 0 -169 109 -224 160 -22 21 -51 41 -63 45 -38
12 -23 22 62 41 127 28 263 24 357 -10 129 -47 162 -56 187 -50 19 5 23 11 19
28 -3 11 -8 40 -12 64 l-7 42 34 -6 c19 -3 45 -8 59 -11z m2738 -137 c2 -48
-1 -66 -10 -66 -8 0 -9 -3 -3 -8 6 -4 10 -39 9 -82 -2 -95 -3 -98 -13 -82 -6
11 -11 10 -25 -3 -23 -24 -51 -3 -35 27 9 17 8 18 -9 9 -15 -8 -22 -8 -25 2
-4 9 -8 8 -16 -3 -6 -8 -11 -19 -11 -25 0 -5 4 -3 10 5 5 8 11 12 13 10 19
-24 47 -70 47 -77 0 -4 -5 0 -11 10 -5 9 -15 17 -21 17 -7 0 -6 -5 2 -15 9
-10 9 -15 1 -15 -6 0 -11 5 -11 10 0 6 -6 10 -14 10 -8 0 -16 6 -19 13 -2 6
-8 8 -13 4 -5 -4 -3 -12 4 -16 13 -8 6 -41 -8 -41 -11 0 0 -39 13 -47 6 -4 8
3 4 19 -4 15 -1 32 8 44 14 17 14 15 9 -26 -8 -53 -4 -46 -34 -54 -14 -4 -20
-4 -14 1 7 5 6 16 -4 33 -13 25 -14 25 -9 2 7 -30 -1 -52 -16 -46 -7 2 -17 -6
-22 -18 -6 -13 -15 -23 -22 -23 -6 0 -15 -3 -19 -7 -6 -7 10 -10 32 -7 4 0 11
-5 16 -13 7 -9 8 -7 5 10 -3 12 -1 22 4 22 13 0 11 -34 -2 -47 -8 -8 -20 -6
-43 7 -17 10 -64 28 -105 41 -63 19 -88 21 -180 16 -64 -3 -141 -15 -196 -30
-49 -14 -108 -28 -130 -32 -22 -4 -46 -12 -54 -18 -11 -9 -15 -9 -19 1 -3 10
-8 8 -19 -5 -8 -10 -11 -12 -7 -4 5 10 1 11 -15 6 -26 -8 -58 24 -38 37 9 6 8
11 -3 17 -8 6 -11 13 -8 17 4 3 14 0 22 -8 10 -10 11 -19 5 -25 -7 -7 -5 -12
6 -17 13 -4 16 -2 11 9 -6 17 9 21 20 4 4 -8 9 -7 15 2 8 11 13 10 26 -6 14
-18 15 -18 9 -2 -3 10 -6 23 -6 28 0 4 -7 6 -15 3 -10 -4 -15 0 -15 11 0 9 -4
13 -10 10 -5 -3 -10 1 -10 9 0 20 9 20 32 -1 12 -10 18 -12 18 -4 0 7 5 9 12
5 7 -4 8 -3 4 5 -4 6 -11 9 -16 6 -5 -3 -11 -1 -15 5 -3 5 1 10 9 10 9 0 16 5
16 11 0 6 -7 9 -15 5 -8 -3 -15 -3 -15 -1 0 5 384 197 475 237 33 15 115 51
182 82 147 66 194 81 205 63 5 -8 8 -7 8 5 0 10 10 22 21 29 15 8 19 8 15 0
-4 -6 -2 -11 3 -11 6 0 11 7 11 16 0 8 3 13 8 10 4 -2 9 -34 10 -70z m782 4
c8 -16 8 -20 -4 -20 -17 0 -41 22 -57 51 -10 20 -9 20 20 5 17 -9 35 -25 41
-36z m305 -140 c0 -16 -6 -26 -18 -28 -19 -4 -32 20 -23 44 9 25 41 13 41 -16z
m-2141 -45 c-8 -20 -20 -19 -28 1 -11 28 -7 35 14 24 11 -6 17 -16 14 -25z
m2308 -57 c-7 -7 -12 -8 -12 -2 0 14 12 26 19 19 2 -3 -1 -11 -7 -17z m77 -22
c9 -11 7 -15 -8 -19 -24 -6 -31 0 -24 19 7 18 17 18 32 0z m-1339 -3 c0 -5
-12 -9 -27 -10 -19 -1 -22 1 -12 8 17 11 39 12 39 2z m-1265 -31 c-26 -23 -85
-52 -85 -43 0 6 7 11 15 11 8 0 15 4 15 9 0 5 12 14 28 19 35 13 38 14 27 4z
m1205 -51 c0 -21 -13 -4 -17 22 -2 17 -1 19 7 7 5 -8 10 -21 10 -29z m-34 3
c-4 -9 -9 -15 -11 -12 -3 3 -3 13 1 22 4 9 9 15 11 12 3 -3 3 -13 -1 -22z
m-2686 -21 c0 -5 -28 -17 -63 -27 -34 -11 -79 -27 -99 -38 -36 -18 -141 -26
-123 -10 6 5 57 23 115 40 146 43 170 48 170 35z m2790 -3 c0 -5 -5 -10 -11
-10 -5 0 -7 5 -4 10 3 6 8 10 11 10 2 0 4 -4 4 -10z m3071 -60 c82 -27 159
-50 170 -50 12 0 17 -4 13 -11 -11 -18 -87 -3 -151 29 -32 16 -91 40 -130 52
-69 22 -87 30 -62 30 5 0 78 -22 160 -50z m-4563 0 c26 -39 28 -70 7 -110 -17
-34 -30 -40 -20 -11 4 14 0 21 -16 26 -27 9 -36 -1 -48 -50 -8 -37 -9 -35 -10
33 -1 55 4 83 20 113 23 46 35 46 67 -1z m1352 30 c0 -5 -4 -10 -10 -10 -5 0
-10 5 -10 10 0 6 5 10 10 10 6 0 10 -4 10 -10z m1759 -46 c20 -39 23 -57 19
-121 -5 -74 -14 -95 -43 -99 -19 -3 -19 -6 5 41 36 71 22 112 -38 106 -9 -1
-10 -12 -6 -41 4 -22 4 -40 1 -40 -10 0 -30 83 -28 114 2 33 36 86 55 86 7 0
23 -21 35 -46z m-2584 16 c21 -23 4 -27 -19 -4 -18 17 -20 24 -8 24 5 0 17 -9
27 -20z m780 -60 c-3 -5 -11 -10 -16 -10 -6 0 -7 5 -4 10 3 6 11 10 16 10 6 0
7 -4 4 -10z m-2209 -67 c-14 -26 -25 -45 -26 -41 0 12 43 98 48 94 2 -2 -8
-26 -22 -53z m1992 38 c81 -25 268 -128 350 -193 l63 -50 37 25 c156 108 198
134 284 177 122 61 186 70 335 46 134 -22 380 -104 508 -169 152 -77 175 -93
175 -122 0 -14 -3 -25 -6 -25 -3 0 -45 18 -93 41 -47 23 -108 49 -136 59 -27
10 -82 32 -121 48 -77 33 -250 74 -385 93 -68 9 -100 9 -150 -1 -35 -7 -76
-12 -91 -12 -15 1 -30 -3 -33 -7 -3 -5 5 -7 17 -4 33 8 24 1 -76 -57 -49 -29
-127 -79 -174 -111 -47 -33 -90 -59 -95 -59 -5 0 -41 26 -80 58 -108 88 -254
162 -358 182 -62 12 -259 -4 -357 -30 -158 -40 -399 -133 -480 -184 l-42 -26
0 25 c0 45 211 167 410 237 48 16 229 60 300 71 62 10 140 5 198 -12z m-978
-124 c0 -99 -13 -208 -33 -272 l-12 -40 -3 49 c-2 28 4 114 12 193 9 79 16
150 16 159 0 8 5 12 10 9 6 -3 10 -47 10 -98z m2854 -14 c14 -172 1 -378 -17
-266 -10 60 -21 309 -14 327 13 34 24 13 31 -61z m-1509 57 c3 -5 1 -10 -4
-10 -6 0 -11 5 -11 10 0 6 2 10 4 10 3 0 8 -4 11 -10z m-2701 -39 c-1 -2 -14
-1 -28 3 -17 4 -23 11 -20 21 5 12 9 12 29 -3 13 -9 21 -19 19 -21z m1214 -11
c7 0 12 -11 12 -25 0 -37 -28 -31 -46 10 -19 45 -18 52 4 32 10 -10 24 -17 30
-17z m1115 -37 c63 -17 78 -33 56 -60 -13 -15 -12 -15 8 -5 12 7 24 17 27 24
4 7 4 3 2 -9 -2 -12 2 -24 9 -27 7 -2 13 -16 13 -30 0 -14 -5 -23 -10 -20 -5
4 -8 14 -5 24 3 11 -2 21 -10 24 -20 8 -36 -3 -29 -20 3 -8 0 -14 -7 -14 -8 0
-8 -3 2 -9 10 -7 11 -13 2 -30 -7 -12 -17 -18 -23 -15 -7 4 -8 3 -4 -4 4 -7
11 -12 15 -12 12 0 32 50 25 62 -5 7 -2 8 5 3 7 -4 10 -17 7 -30 -6 -22 14
-42 28 -28 12 12 6 22 -9 17 -8 -4 -15 -3 -15 0 0 14 53 27 64 16 8 -8 6 -9
-6 -5 -10 4 -18 3 -18 -3 0 -6 -3 -18 -7 -28 -5 -14 -3 -16 13 -11 18 7 18 6
-1 -8 -16 -13 -22 -13 -30 -3 -5 8 -21 13 -34 12 -13 -1 -61 12 -105 28 -101
37 -282 74 -403 83 -99 8 -117 18 -55 31 44 9 39 8 76 23 95 39 320 52 419 24z
m-2445 -40 c-10 -2 -28 -2 -40 0 -13 2 -5 4 17 4 22 1 32 -1 23 -4z m412 -18
c-10 -12 -5 -13 37 -9 99 12 161 -44 116 -104 -30 -41 -67 -56 -106 -43 -38
14 -87 59 -87 80 -1 23 -27 -12 -57 -78 -28 -59 -27 -115 2 -171 17 -32 14
-36 -16 -20 -57 31 -64 170 -12 262 31 55 82 98 116 98 16 0 17 -3 7 -15z
m4867 -1 c35 -14 114 -99 113 -121 0 -4 -7 0 -15 11 -8 10 -20 16 -28 13 -8
-3 -20 3 -28 14 -7 10 -21 19 -30 19 -9 0 -28 9 -41 20 l-26 19 -4 -50 c-7
-74 -35 -99 -109 -99 -101 0 -125 49 -57 119 16 16 39 33 51 37 11 4 27 13 35
20 18 19 93 18 139 -2z m416 7 c41 -6 76 -16 88 -27 26 -24 25 -69 -3 -88 -32
-23 -115 -21 -155 4 -36 21 -39 30 -22 63 l12 22 -25 -22 c-25 -24 -54 -32
-42 -12 4 8 0 8 -15 0 -24 -13 -25 -15 -11 -42 6 -10 8 -19 6 -19 -3 0 -12 13
-20 29 -14 26 -14 30 7 48 28 26 77 52 97 52 8 0 46 -4 83 -8z m-5712 -11 c29
-16 25 -71 -7 -101 -21 -20 -36 -24 -82 -24 -31 0 -64 4 -73 8 -12 6 -22 -1
-38 -28 -11 -20 -21 -44 -21 -53 0 -15 -2 -15 -10 -2 -7 11 -10 3 -11 -30 0
-34 -2 -40 -9 -25 -12 28 -12 93 0 134 13 45 62 120 68 103 3 -10 8 -8 18 5 7
10 14 13 14 6 0 -9 8 -8 28 3 32 16 95 18 123 4z m5906 -81 c18 -30 33 -61 33
-69 0 -8 -9 2 -20 23 -11 20 -28 46 -38 57 -9 11 -25 29 -34 40 -25 28 -22 35
5 18 12 -9 37 -40 54 -69z m-3357 51 c0 -5 -4 -10 -10 -10 -5 0 -10 5 -10 10
0 6 5 10 10 10 6 0 10 -4 10 -10z m60 -16 c0 -8 -5 -12 -10 -9 -6 4 -8 11 -5
16 9 14 15 11 15 -7z m-388 -58 c145 -38 238 -70 332 -117 34 -17 95 -44 136
-61 41 -16 81 -35 88 -42 11 -10 10 -37 -3 -147 -33 -281 -36 -318 -38 -477
l-2 -163 82 -54 81 -53 34 25 c18 13 59 38 92 55 58 29 58 30 53 66 -26 166
-79 754 -69 763 27 24 410 164 579 211 108 30 129 33 258 32 128 0 146 -2 215
-28 144 -54 220 -107 220 -151 0 -35 -11 -36 -37 -4 -30 35 -133 89 -215 113
-32 9 -100 19 -150 22 -82 5 -107 2 -217 -25 -68 -17 -162 -47 -210 -67 -77
-32 -355 -139 -390 -150 -9 -3 -11 -14 -7 -37 3 -17 15 -113 26 -212 12 -99
30 -252 41 -340 10 -88 20 -169 22 -179 1 -15 -20 -32 -87 -71 -49 -29 -107
-66 -128 -84 l-38 -32 -38 29 c-20 16 -74 52 -119 81 -62 40 -83 58 -83 74 0
55 72 698 83 749 1 5 -22 18 -52 28 -30 11 -89 35 -130 54 -301 137 -489 186
-671 173 -131 -10 -260 -56 -339 -123 -33 -28 -60 -22 -48 10 15 38 180 134
277 161 93 26 288 13 452 -29z m2749 -68 c-14 -40 -14 -118 0 -118 6 0 8 -9 4
-21 -5 -14 -4 -19 4 -15 6 4 9 2 6 -6 -6 -16 19 -47 68 -83 31 -23 51 -29 114
-33 73 -5 75 -5 49 -19 -33 -17 -111 -4 -161 27 -60 37 -114 137 -115 212 0
43 32 134 38 105 2 -10 -1 -32 -7 -49z m465 -62 c-7 -70 -7 -68 -29 -91 -19
-20 -19 -20 -11 5 5 14 9 53 9 87 0 61 8 72 18 23 4 -15 4 -11 3 10 -2 19 -6
44 -10 55 -4 11 0 7 9 -9 12 -20 15 -42 11 -80z m-586 90 c0 -19 -22 -56 -30
-51 -13 8 -43 -62 -36 -81 3 -8 15 -14 26 -14 13 0 18 -4 14 -11 -3 -6 -17 -8
-33 -4 -57 14 -101 14 -101 -1 0 -8 -4 -14 -10 -14 -6 0 -6 -9 1 -26 12 -33 2
-45 -17 -20 -33 46 -7 149 47 189 33 24 139 49 139 33z m-4100 -72 c4 -18 2
-56 -4 -86 -11 -53 -40 -107 -52 -96 -3 4 3 15 13 25 10 11 20 30 23 44 7 40
5 143 -3 164 -8 19 -8 19 4 1 6 -11 15 -34 19 -52z m199 55 c17 -6 31 -15 31
-21 0 -5 4 -7 9 -4 14 9 31 -42 22 -66 -12 -31 -50 -65 -82 -73 -26 -6 -26 -6
-31 67 -3 40 -9 81 -13 91 -9 20 15 23 64 6z m856 -56 c37 -178 72 -250 160
-338 38 -37 91 -76 140 -102 81 -42 247 -103 282 -103 17 0 22 -24 52 -277 19
-153 37 -305 42 -338 4 -33 13 -114 19 -180 17 -186 82 -693 97 -752 8 -36
-15 -29 -128 37 -452 267 -703 564 -836 985 -22 72 -26 111 -38 370 -18 368
-18 526 -3 562 14 33 18 -22 38 -462 13 -299 23 -359 79 -510 97 -257 264
-469 526 -666 44 -33 97 -69 119 -80 l39 -21 -8 99 c-3 54 -16 175 -26 268
-11 94 -26 226 -34 295 -28 258 -55 486 -60 505 -3 14 -33 34 -97 65 -165 80
-232 125 -317 217 -87 92 -120 148 -151 258 -22 76 -25 122 -11 144 8 12 11 8
16 -15 17 -79 57 -209 74 -242 66 -129 228 -257 426 -335 l90 -35 23 -174 c13
-95 28 -202 33 -238 5 -36 13 -110 19 -165 6 -55 24 -224 40 -376 17 -152 30
-293 30 -313 0 -34 -2 -37 -22 -31 -27 8 -54 22 -123 60 l-50 29 54 -50 c69
-62 88 -73 132 -74 20 0 42 -7 49 -15 35 -42 33 -2 -18 460 -17 149 -38 340
-47 425 -10 85 -28 223 -41 305 -13 83 -24 162 -24 177 0 24 -6 29 -72 49
-177 54 -363 179 -433 289 -53 84 -102 293 -73 311 21 14 27 11 33 -18z m2210
15 c25 -11 26 -16 21 -52 -29 -181 -141 -349 -297 -449 -48 -30 -253 -117
-277 -117 -28 0 -30 -11 -66 -365 -9 -82 -20 -184 -26 -225 -5 -41 -19 -169
-30 -285 -11 -115 -24 -253 -30 -305 -13 -122 -17 -220 -8 -220 3 0 35 13 70
29 85 39 265 168 352 253 l71 70 -95 -79 c-52 -44 -117 -96 -145 -115 -54 -39
-165 -98 -184 -98 -16 0 -14 147 4 300 8 69 19 172 25 230 6 58 15 139 21 180
6 41 12 98 13 125 5 73 25 267 39 368 l12 89 81 32 c282 114 417 251 500 508
27 85 44 104 44 50 0 -46 -55 -188 -103 -264 -49 -78 -137 -172 -208 -221 -50
-34 -211 -112 -251 -122 -30 -8 -34 -18 -43 -135 -3 -41 -15 -156 -25 -255
-11 -99 -29 -270 -40 -380 -12 -110 -28 -251 -36 -313 -8 -61 -12 -116 -9
-122 7 -12 64 23 175 108 142 110 189 153 267 246 94 112 153 203 214 331 65
137 77 193 89 406 15 283 40 652 45 657 2 3 10 -7 16 -22 10 -21 10 -78 0
-269 -7 -133 -17 -327 -21 -432 -7 -177 -10 -197 -40 -285 -73 -216 -212 -424
-419 -629 -79 -78 -155 -143 -223 -188 -99 -65 -283 -162 -291 -152 -5 4 -2
25 57 544 39 345 41 367 56 545 12 142 38 389 46 438 4 24 10 32 25 32 11 0
76 18 144 40 200 65 311 151 390 302 25 47 39 91 47 148 7 44 13 80 15 80 1 0
14 -5 28 -12z m-2945 -66 c0 -19 -3 -15 -24 28 l-17 35 21 -24 c11 -13 20 -30
20 -39z m1814 -31 c8 -86 10 -346 3 -358 -6 -12 -1 -109 7 -121 3 -6 3 -13 -1
-15 -5 -3 -8 -42 -8 -86 1 -45 -3 -81 -8 -81 -5 0 -3 -8 4 -17 11 -13 11 -15
1 -9 -16 9 -13 -25 3 -36 5 -4 1 -16 -10 -29 l-20 -22 24 13 24 12 -22 -30
c-13 -19 -17 -33 -11 -37 5 -3 10 -10 10 -15 0 -5 -22 6 -50 23 l-50 32 0 63
c0 35 11 183 25 330 42 450 64 557 79 383z m3051 14 c-27 -73 -63 -108 -132
-129 -36 -11 -27 11 12 30 35 16 70 62 91 119 7 16 17 29 23 28 6 -2 11 3 12
10 0 9 2 9 6 -1 3 -8 -2 -33 -12 -57z m-6149 -30 c18 -38 34 -50 99 -75 41
-16 49 -38 11 -31 -54 9 -114 63 -131 119 -10 34 2 26 21 -13z m1277 0 c-3 -9
-8 -14 -10 -11 -3 3 -2 9 2 15 9 16 15 13 8 -4z m1178 -68 c98 -45 136 -57
227 -72 l77 -12 -59 -27 c-70 -32 -155 -37 -201 -13 -47 24 -125 115 -125 144
0 17 -3 18 81 -20z m1379 12 c0 -6 -13 -30 -30 -54 -71 -104 -202 -130 -311
-63 l-34 21 112 22 c64 13 139 36 175 53 69 33 88 38 88 21z m-3899 -66 c32
-36 32 -37 2 -9 -17 15 -46 32 -65 36 l-33 8 31 1 c23 1 38 -8 65 -36z m-153
-22 c-18 -20 -24 -28 -13 -19 37 29 86 49 106 43 48 -16 48 -90 -1 -125 -35
-25 -102 -27 -125 -3 -14 14 -18 14 -26 2 -6 -10 -9 -10 -9 -1 0 27 -18 10
-26 -25 -4 -21 -9 -31 -11 -21 -4 16 18 78 36 100 51 64 72 85 86 85 11 0 6
-11 -17 -36z m572 36 c0 -2 -20 -18 -45 -36 -38 -27 -47 -41 -61 -89 -8 -31
-21 -73 -28 -92 -17 -44 -12 -134 8 -166 20 -30 88 -70 146 -85 34 -9 55 -9
86 0 48 13 154 80 154 97 0 21 26 23 27 2 3 -32 -69 -95 -128 -112 -66 -20
-92 -20 -160 0 -126 38 -197 174 -167 320 9 45 64 116 112 145 28 17 56 25 56
16z m5949 -35 c38 -28 40 -74 5 -101 -36 -28 -79 -27 -109 3 -33 33 -42 72
-21 95 9 10 14 20 11 23 -16 15 92 -3 114 -20z m-455 5 c3 4 19 -6 35 -21 66
-63 102 -226 66 -297 -53 -102 -114 -139 -229 -139 -97 1 -174 46 -212 125
-14 28 -14 29 1 10 9 -11 22 -27 28 -36 25 -33 75 -57 144 -69 65 -10 75 -10
115 8 89 40 145 123 136 199 -4 32 -3 33 10 17 13 -17 14 -17 8 11 -15 69 -30
91 -58 86 -4 0 -15 13 -23 29 -18 35 -30 39 -22 8 20 -74 -114 -120 -188 -64
-41 31 -42 39 -15 84 33 54 98 64 172 26 24 -13 27 -12 22 1 -4 8 -10 15 -15
15 -5 0 -9 5 -9 11 0 8 4 9 13 0 8 -6 17 -8 21 -4z m535 -14 c16 -16 39 -49
50 -75 56 -131 27 -242 -83 -315 -53 -36 -86 -42 -86 -17 0 10 6 14 15 10 8
-3 15 -1 15 5 0 6 7 9 15 6 8 -4 17 -1 21 5 5 7 2 8 -6 3 -9 -5 -11 -4 -6 4 4
6 11 9 15 7 14 -9 60 48 76 93 8 24 15 64 15 90 0 35 3 42 11 31 7 -11 8 -6 4
20 -4 19 -12 40 -18 45 -7 7 -8 4 -4 -7 13 -37 -11 -16 -26 22 -16 42 -8 56
11 18 6 -13 11 -17 11 -11 1 7 -15 31 -35 53 -42 46 -39 53 5 13z m-5940 -9
c29 -37 26 -58 -13 -101 -40 -44 -89 -50 -133 -16 -49 35 -40 87 20 123 47 29
101 26 126 -6z m4656 16 c3 -5 0 -10 -7 -10 -8 -1 -6 -6 6 -15 18 -13 18 -15
3 -15 -14 0 -16 -4 -8 -18 12 -22 -10 -87 -38 -115 -24 -25 -123 -36 -146 -17
-39 32 0 120 68 150 23 11 36 20 30 20 -19 0 -16 18 5 23 32 9 81 7 87 -3z
m-4084 -36 c-28 -47 -27 -50 10 -20 17 14 37 26 45 26 28 0 82 -28 93 -48 16
-29 14 -37 -16 -72 -24 -30 -30 -32 -72 -27 -50 6 -81 33 -81 73 0 12 -4 25
-9 28 -15 10 -7 33 19 55 34 28 35 26 11 -15z m3943 14 c-36 -12 -84 -79 -84
-118 0 -25 -20 -67 -20 -42 0 6 -4 12 -10 12 -5 0 -10 -7 -10 -15 0 -8 -4 -15
-10 -15 -42 0 65 163 120 183 8 3 22 5 30 5 8 0 1 -5 -16 -10z m584 -45 c-43
-48 -73 -158 -45 -169 8 -3 17 -14 20 -25 5 -18 3 -17 -19 3 -28 27 -31 71 -8
126 14 33 60 92 73 92 2 0 -7 -12 -21 -27z m-4656 -85 c-38 -77 -37 -152 3
-209 17 -23 53 -58 80 -78 46 -33 56 -36 122 -36 75 0 84 -13 15 -22 -125 -17
-282 127 -282 258 0 48 20 95 38 92 7 -2 11 1 10 6 -2 8 28 39 39 41 1 0 -10
-24 -25 -52z m-1126 -194 c26 -20 63 -43 83 -50 42 -14 43 -30 2 -28 -69 4
-153 94 -166 179 -6 40 -5 40 15 -12 14 -35 35 -63 66 -89z m1212 116 c-7 -10
-14 -17 -17 -15 -4 4 18 35 25 35 2 0 -1 -9 -8 -20z m1083 -55 c34 -30 89 -74
123 -96 33 -23 60 -45 59 -50 -2 -4 4 -6 11 -3 16 6 61 -14 52 -23 -3 -3 -12
0 -21 7 -9 7 -18 10 -22 6 -4 -3 2 -12 12 -20 12 -9 16 -20 12 -35 -3 -14 0
-24 9 -28 8 -3 14 -9 14 -15 0 -5 -4 -6 -10 -3 -6 3 -7 -1 -4 -9 3 -9 10 -16
16 -16 5 0 7 4 4 9 -4 5 -1 11 5 13 8 3 5 10 -6 21 -19 20 -17 31 4 18 8 -5
15 -28 16 -51 1 -23 -1 -37 -5 -30 -6 9 -12 10 -26 1 -17 -9 -17 -10 -2 -11
14 0 15 -5 7 -32 -5 -17 -6 -34 -4 -37 3 -2 5 1 5 7 0 7 4 12 9 12 16 0 -1
-40 -18 -41 -11 0 -9 -3 7 -9 25 -10 28 -29 10 -49 -11 -11 -9 -12 10 -6 14 4
22 2 22 -5 0 -6 -3 -9 -8 -6 -4 2 -15 -1 -24 -8 -13 -10 -14 -15 -3 -30 7 -9
16 -17 19 -17 19 2 26 0 26 -10 0 -6 -8 -8 -19 -4 -11 3 -22 1 -26 -4 -3 -6 0
-8 8 -5 8 3 18 1 22 -5 3 -6 0 -11 -8 -11 -8 0 -20 -7 -27 -15 -8 -9 -8 -15
-2 -15 6 0 12 5 14 11 4 12 38 1 38 -12 0 -4 -6 -6 -13 -3 -8 3 -13 -4 -14
-17 -2 -17 1 -18 13 -9 9 8 14 9 14 2 0 -6 -5 -14 -10 -17 -8 -5 -7 -12 2 -23
11 -13 10 -15 -4 -9 -10 3 -18 2 -18 -3 0 -5 8 -14 18 -19 16 -10 16 -10 -2
-11 -11 0 -16 -3 -13 -7 4 -3 2 -12 -4 -20 -7 -8 -8 -13 -1 -13 5 0 8 -9 5
-20 -3 -11 -9 -20 -14 -20 -5 0 -9 -4 -9 -10 0 -5 7 -7 16 -3 13 5 15 2 9 -16
-4 -13 -2 -28 6 -37 10 -12 9 -13 -5 -8 -9 3 -16 3 -16 0 0 -4 10 -11 23 -16
l22 -9 -22 0 c-13 -1 -24 5 -24 12 -4 36 -18 67 -31 67 -6 0 -5 -7 2 -15 19
-22 21 -75 4 -75 -8 0 -14 -5 -14 -10 0 -7 8 -7 22 1 17 9 23 9 26 0 2 -6 8
-9 12 -6 5 3 12 0 16 -6 4 -8 3 -9 -4 -5 -7 4 -12 1 -12 -6 0 -8 -4 -7 -11 4
-9 17 -39 15 -39 -3 0 -4 7 -6 15 -3 11 5 13 2 8 -12 -4 -12 -3 -15 5 -10 7 4
12 2 12 -3 0 -33 -44 9 -61 57 -10 30 -32 47 -25 20 1 -7 1 -10 -1 -6 -2 4
-11 4 -19 1 -8 -3 -14 -2 -14 2 0 11 27 34 34 30 3 -3 3 -2 0 2 -3 5 -11 8
-17 8 -7 0 -10 9 -9 20 3 16 1 17 -9 8 -10 -10 -10 -15 1 -28 8 -10 9 -15 1
-15 -6 0 -11 5 -11 11 0 8 -5 8 -15 -1 -9 -8 -15 -8 -15 -2 0 6 5 12 12 14 7
3 5 14 -8 34 l-18 29 22 -19 21 -18 -12 26 c-9 19 -17 24 -32 20 l-20 -5 20
17 c20 16 20 16 -2 11 -16 -4 -20 -1 -16 11 5 11 3 13 -8 7 -11 -6 -12 -5 -2
5 8 9 9 19 2 31 -10 20 -2 72 11 64 4 -2 5 7 2 20 -2 14 -8 22 -13 20 -4 -3
-6 -12 -2 -20 3 -8 0 -15 -7 -15 -8 0 -10 16 -7 57 3 31 2 51 -2 45 -5 -8 -14
1 -24 23 -21 44 -21 46 1 39 13 -5 14 -4 3 4 -7 5 -11 14 -7 20 3 5 -1 12 -9
15 -9 4 -12 1 -9 -7 5 -13 -24 -31 -34 -21 -3 3 0 5 6 5 7 0 12 9 12 20 0 11
5 20 10 20 6 0 10 4 10 10 0 5 -7 6 -17 3 -10 -4 -14 -2 -10 4 4 6 0 18 -8 26
-8 9 -15 19 -15 23 0 5 5 3 12 -4 7 -7 19 -12 28 -11 10 0 11 2 3 6 -7 2 -13
11 -13 19 0 9 -4 12 -10 9 -5 -3 -10 -1 -10 4 0 10 17 15 48 14 9 -1 7 5 -5
17 -17 17 -19 17 -32 2 -11 -15 -12 -14 -6 8 10 34 12 35 32 19 9 -8 5 4 -10
26 -22 32 -24 41 -12 43 20 4 19 12 -2 28 -16 12 -16 15 -3 24 11 8 8 9 -14 4
-26 -6 -28 -5 -15 8 8 9 19 14 24 11 6 -2 2 2 -7 10 -22 17 -23 31 -4 24 11
-4 13 -1 9 10 -4 10 -2 14 4 10 6 -4 16 0 23 8 10 13 10 19 -4 34 -10 10 -25
18 -34 16 -9 -1 -11 0 -4 2 17 6 15 12 -10 34 -13 10 -20 18 -16 19 4 0 35
-25 69 -55z m-732 -7 c-2 -59 -18 -106 -43 -127 -26 -22 -30 -5 -7 32 12 19
26 60 32 91 7 31 13 56 16 56 2 0 3 -24 2 -52z m722 -40 c-11 -11 -13 -10 -8
5 7 20 -18 25 -26 5 -4 -8 -6 -7 -6 4 -1 22 21 29 39 12 12 -12 12 -16 1 -26z
m2894 -126 c13 -9 34 -12 133 -19 90 -6 95 -23 7 -23 -92 0 -184 41 -221 99
-15 22 -10 20 27 -12 24 -21 49 -41 54 -45z m315 53 c-13 -14 -26 -22 -29 -19
-3 3 5 14 19 24 34 27 38 25 10 -5z m173 -33 c-2 -14 7 -24 27 -32 35 -14 40
-51 15 -101 -36 -68 -136 -57 -159 18 -6 17 3 29 44 64 28 23 49 48 46 55 -6
15 4 26 18 21 6 -2 10 -13 9 -25z m-5262 -9 l24 -27 -30 21 c-16 11 -37 23
-45 26 -11 4 -9 6 6 6 11 1 31 -11 45 -26z m-115 1 c-3 -9 -2 -12 4 -9 22 14
70 -7 85 -35 20 -39 19 -62 -6 -93 -43 -56 -137 -58 -159 -5 -7 18 -9 19 -9 6
-1 -10 -5 -18 -9 -18 -5 0 -14 -10 -20 -22 -6 -13 -11 -18 -11 -11 -1 7 -8 10
-16 7 -24 -10 -18 36 13 97 19 39 38 60 67 76 47 27 70 29 61 7z m694 -76 c0
-67 -30 -98 -95 -98 -63 0 -104 23 -105 57 0 7 30 28 68 47 37 18 76 44 87 56
18 20 20 20 32 4 7 -10 13 -40 13 -66z m4470 78 c0 -2 -12 -12 -27 -21 l-28
-18 19 21 c17 20 36 29 36 18z m-3200 -26 c0 -5 -5 -10 -11 -10 -5 0 -7 5 -4
10 3 6 8 10 11 10 2 0 4 -4 4 -10z m4075 -14 c37 -16 55 -42 55 -80 0 -31 -8
-36 -73 -43 -47 -5 -56 -2 -85 22 -37 31 -40 52 -11 89 24 30 61 34 114 12z
m-3724 -30 c-7 -8 -9 -21 -5 -28 5 -10 4 -10 -5 -2 -10 9 -10 16 0 32 7 12 15
19 18 17 2 -3 -2 -11 -8 -19z m3589 14 c0 -5 -5 -10 -11 -10 -5 0 -7 5 -4 10
3 6 8 10 11 10 2 0 4 -4 4 -10z m-1430 -57 c0 -13 -6 -23 -14 -23 -16 0 -31
53 -20 71 10 16 34 -18 34 -48z m760 -18 c-4 -22 -8 -36 -9 -31 -3 23 -31 -21
-31 -49 0 -75 56 -155 135 -191 112 -53 230 -12 270 91 21 57 32 51 15 -9 -13
-49 -45 -83 -105 -115 -47 -25 -93 -27 -161 -6 -51 15 -136 78 -133 98 3 26
-2 37 -16 37 -17 0 -38 36 -31 53 2 7 5 5 5 -5 1 -9 6 -20 12 -24 8 -4 9 1 4
16 -4 13 -9 44 -10 69 -3 40 1 50 28 78 17 18 32 32 33 30 1 -1 -2 -20 -6 -42z
m950 -29 c0 -1 3 -24 6 -53 12 -100 -40 -190 -131 -229 -90 -38 -228 -10 -276
57 -23 33 -12 40 16 9 10 -11 21 -18 25 -15 4 2 24 -5 46 -15 88 -45 216 -13
262 66 39 68 47 107 28 144 -9 18 -16 44 -16 58 l0 25 20 -23 c11 -13 20 -23
20 -24z m-5275 -60 c-12 -95 -55 -153 -147 -201 -86 -45 -213 -31 -267 30 -36
42 -51 90 -51 170 0 55 1 58 13 35 7 -14 19 -52 26 -85 7 -33 18 -69 25 -80 6
-11 11 -26 11 -34 0 -8 6 -16 14 -19 8 -3 11 0 7 6 -3 6 8 4 25 -5 137 -69
311 38 313 192 0 28 -3 59 -8 70 -8 17 -5 16 18 -5 25 -23 27 -29 21 -74z
m4851 21 c1 -41 8 -88 18 -111 12 -30 13 -36 2 -27 -8 7 -16 8 -18 4 -3 -4 -4
-3 -2 3 1 6 -2 16 -8 22 -6 6 -13 45 -16 88 -4 58 -2 78 9 85 8 5 14 9 14 9 0
0 1 -33 1 -73z m-3484 11 c-7 -7 -12 -8 -12 -2 0 6 3 14 7 17 3 4 9 5 12 2 2
-3 -1 -11 -7 -17z m2885 -25 c-3 -10 -5 -2 -5 17 0 19 2 27 5 18 2 -10 2 -26
0 -35z m-4860 -15 c-2 -13 -4 -5 -4 17 -1 22 1 32 4 23 2 -10 2 -28 0 -40z
m-421 -35 c7 -3 11 -9 8 -14 -3 -5 -1 -9 3 -9 5 0 15 -16 22 -36 20 -56 88
-94 167 -94 65 0 136 20 166 47 10 9 21 13 26 9 9 -10 -21 -32 -83 -62 -69
-33 -173 -33 -230 -1 -55 31 -98 103 -100 170 -2 29 0 39 2 24 2 -16 11 -31
19 -34z m2410 22 c-9 -9 -16 -13 -16 -8 0 12 22 34 28 28 2 -2 -3 -11 -12 -20z
m22 -19 c-10 -7 -15 -16 -11 -19 3 -4 1 -7 -5 -7 -7 0 -12 3 -12 7 0 10 34 41
40 36 3 -3 -3 -10 -12 -17z m-14 -88 c-7 -11 -34 -10 -34 1 0 6 9 9 19 8 11 0
17 -5 15 -9z m26 -18 c0 -5 -2 -10 -4 -10 -3 0 -8 5 -11 10 -3 6 -1 10 4 10 6
0 11 -4 11 -10z m-5 -50 c3 -5 1 -10 -4 -10 -6 0 -11 5 -11 10 0 6 2 10 4 10
3 0 8 -4 11 -10z m-263 -57 c7 -9 7 -13 -1 -13 -6 0 -11 5 -11 11 0 6 -6 9
-14 6 -11 -4 -11 -1 -2 19 9 19 12 21 15 6 2 -9 8 -23 13 -29z m-1664 -8 c24
-52 10 -95 -38 -120 -40 -21 -92 -19 -123 5 -33 26 -46 25 -52 -5 -3 -14 -7
-36 -10 -49 -2 -13 2 -50 10 -82 26 -103 120 -163 224 -144 51 9 100 46 151
114 37 49 40 58 42 122 0 38 3 54 5 36 2 -18 8 -30 12 -28 13 8 0 -97 -16
-131 -42 -90 -177 -164 -258 -142 -55 15 -118 53 -149 89 -30 36 -66 145 -66
200 0 41 26 70 63 70 19 0 119 49 152 74 28 22 40 20 53 -9z m5343 -22 c33
-19 38 -52 13 -77 -24 -25 -126 -22 -149 4 -17 19 -17 21 19 55 42 39 73 44
117 18z m-249 -100 c-3 -14 2 -40 11 -57 28 -54 50 -111 48 -123 -2 -14 46
-53 67 -53 8 0 36 -8 62 -17 40 -14 54 -15 88 -5 73 22 136 96 153 177 l6 30
2 -35 c0 -20 -11 -61 -28 -96 -25 -54 -35 -63 -83 -87 -97 -48 -167 -34 -255
49 -39 38 -55 61 -67 103 -16 56 -21 123 -9 134 10 11 11 9 5 -20z m723 17
c-3 -5 -13 -10 -21 -10 -8 0 -38 -21 -66 -47 -28 -27 -46 -39 -40 -28 13 26
50 59 87 78 35 19 49 21 40 7z m-3905 -34 c0 -3 -4 -8 -10 -11 -5 -3 -10 -1
-10 4 0 6 5 11 10 11 6 0 10 -2 10 -4z m4059 -26 c3 0 -1 4 -9 10 -8 5 -12 12
-8 15 10 11 68 -47 89 -89 l21 -41 -31 35 c-16 19 -30 31 -31 26 0 -4 -12 -1
-26 9 l-27 17 7 -26 c14 -58 -45 -101 -126 -94 -84 9 -113 62 -64 121 29 36
112 51 165 30 18 -7 36 -13 40 -13z m-6549 10 c46 0 67 -18 76 -67 6 -32 3
-40 -24 -64 -41 -37 -94 -47 -138 -25 -24 11 -34 23 -34 38 0 19 -3 18 -25
-12 -14 -18 -28 -49 -31 -69 -8 -40 11 -154 26 -159 5 -2 10 -10 10 -17 0 -8
9 -19 21 -25 11 -7 18 -14 16 -17 -13 -12 -59 34 -83 83 -24 48 -26 63 -21
127 3 46 13 87 27 115 24 47 35 56 20 17 -6 -15 -6 -25 0 -25 5 0 11 8 14 18
11 33 75 95 92 88 8 -3 33 -6 54 -6z m2295 -39 c-6 -5 -25 10 -25 20 0 5 6 4
14 -3 8 -7 12 -15 11 -17z m3925 -226 c0 -20 9 -53 20 -75 21 -42 13 -61 -15
-34 -25 26 -35 59 -35 120 0 49 2 54 15 40 8 -8 15 -31 15 -51z m424 -35 c-3
-49 -51 -121 -65 -99 -7 11 -9 11 -9 -1 0 -13 -49 -45 -57 -37 -2 2 15 18 37
36 42 34 80 96 80 131 0 12 4 19 9 16 4 -3 7 -24 5 -46z m-6401 -39 c-8 -32
-74 -103 -110 -117 -58 -25 -164 -14 -208 21 -18 15 -17 15 12 0 40 -19 145
-20 181 -1 15 8 49 37 76 65 27 28 50 51 51 51 2 0 1 -9 -2 -19z m6232 -116
c-16 -8 -48 -14 -70 -14 -39 1 -39 1 15 14 73 16 92 16 55 0z m754 -169 c21
-20 49 -58 62 -84 24 -46 24 -52 24 -320 0 -268 0 -273 -20 -267 -11 3 -65 13
-119 22 l-99 18 6 167 5 168 -114 0 -114 0 0 -249 c0 -237 1 -250 21 -275 11
-14 82 -73 157 -130 139 -105 214 -184 253 -264 20 -41 21 -57 22 -560 1 -571
2 -564 -63 -597 -52 -27 -95 -19 -189 34 -47 26 -136 74 -198 104 -125 63
-141 79 -200 202 l-38 80 -9 263 c-5 145 -7 265 -4 267 2 3 29 -5 59 -17 30
-11 86 -29 124 -38 l70 -17 5 -199 5 -199 99 -53 c54 -29 100 -52 101 -50 2 2
5 147 6 323 l2 319 -89 67 c-109 82 -252 229 -319 328 l-50 73 4 387 c2 283 6
394 16 417 16 38 73 104 98 113 11 4 116 7 234 6 l214 -2 38 -37z m-7485 4
c68 -60 74 -85 78 -366 l5 -251 -101 -11 c-56 -7 -110 -14 -122 -18 -20 -5
-20 -2 -20 173 l0 178 -104 3 c-76 2 -106 -1 -112 -10 -9 -15 -11 -1359 -2
-1563 l7 -140 102 52 102 52 7 203 c4 112 4 244 0 295 -7 91 -7 92 -28 78 -11
-8 -30 -15 -42 -15 -21 0 -21 3 -20 123 0 67 -3 137 -7 155 -8 28 -6 32 12 32
32 0 249 69 303 96 l51 26 -8 -34 c-4 -18 -11 -51 -16 -73 -4 -22 -8 -251 -9
-510 l0 -470 -31 -54 c-54 -94 -110 -138 -304 -240 -211 -111 -244 -119 -298
-72 -20 18 -41 48 -48 68 -8 27 -10 298 -7 1097 5 944 7 1065 21 1096 19 43
31 56 82 98 l40 32 217 0 217 0 35 -30z m528 14 l266 -6 36 -30 c72 -59 75
-75 78 -508 2 -313 2 -315 -21 -360 -13 -25 -39 -67 -59 -94 l-35 -48 26 -82
c34 -105 46 -167 53 -274 8 -132 9 -135 44 -127 35 8 35 9 14 -41 -15 -36 -15
-40 6 -81 12 -23 22 -61 23 -85 l2 -42 -75 -28 c-41 -16 -111 -39 -155 -52
-44 -13 -88 -27 -97 -31 -25 -10 -23 11 6 76 34 76 42 119 22 119 -13 0 -36
28 -36 45 0 3 11 10 25 15 14 5 25 17 25 27 0 10 -18 108 -41 218 -22 110 -43
210 -45 221 l-4 22 -55 -22 -55 -21 0 -237 0 -238 25 0 c19 0 25 -5 25 -23 0
-12 -7 -33 -16 -46 -14 -20 -15 -34 -5 -109 6 -47 8 -88 5 -91 -5 -6 -310
-129 -329 -134 -15 -3 -6 62 15 109 10 23 21 60 25 83 6 37 5 41 -14 41 -17 0
-21 6 -21 36 0 33 2 36 25 32 14 -3 27 -2 30 2 2 3 5 166 6 362 2 348 1 357
-20 391 -26 42 -27 82 -3 99 18 12 19 37 25 350 5 325 5 336 -14 341 -15 4
-19 14 -19 52 0 44 -17 92 -45 125 -7 8 -16 26 -20 39 -7 23 -6 23 51 17 33
-3 179 -8 326 -12z m2163 -13 c158 -89 252 -145 346 -204 68 -42 131 -73 175
-86 l69 -20 -46 0 c-25 -1 -72 8 -104 19 -56 19 -195 42 -205 33 -2 -2 -4 -79
-5 -171 l0 -167 80 3 c44 2 104 10 133 17 l52 13 0 -139 0 -138 -130 6 -130 6
0 -167 0 -167 93 3 92 3 3 40 c6 88 1 85 105 85 l92 0 -5 -172 -5 -173 -193
-7 c-107 -4 -257 -14 -334 -23 -77 -9 -143 -14 -146 -10 -3 3 6 39 20 80 25
73 25 76 7 86 -28 14 -23 37 9 41 l27 3 3 236 c2 201 0 238 -13 249 -19 16
-19 30 0 44 12 9 16 55 22 244 5 202 4 234 -9 245 -9 6 -18 27 -22 45 -3 18
-17 57 -32 88 -24 50 -27 84 -7 84 4 0 31 -13 58 -29z m3260 19 c4 -6 -3 -38
-16 -73 -12 -34 -22 -81 -23 -104 -1 -27 -6 -43 -13 -43 -10 0 -13 -139 -13
-639 0 -555 2 -640 15 -645 18 -7 19 -29 3 -55 -12 -20 -4 -82 24 -178 6 -23
9 -45 6 -49 -4 -3 -28 4 -55 16 -26 12 -89 35 -140 51 -90 29 -93 31 -102 67
-5 20 -35 136 -66 257 -31 121 -67 254 -80 295 -14 41 -32 107 -40 145 -9 39
-25 103 -37 144 -17 59 -23 69 -29 52 -5 -11 -5 -163 -2 -336 6 -293 7 -315
24 -315 28 0 31 -17 8 -39 l-21 -20 21 -62 c27 -79 28 -112 4 -105 -96 30
-229 66 -275 76 -34 7 -58 17 -58 24 0 7 9 38 19 68 12 35 16 60 10 69 -5 8
-9 27 -9 43 0 25 3 27 25 22 l25 -6 0 258 c0 182 -3 261 -12 270 -8 8 -8 15
-1 24 13 17 27 555 15 571 -5 7 -15 34 -21 61 -7 28 -21 69 -32 93 -11 24 -18
47 -15 51 3 5 40 4 83 0 43 -5 109 -7 147 -6 l69 3 27 -100 c15 -55 66 -233
113 -395 46 -162 93 -328 103 -369 l19 -74 6 54 c3 30 7 214 8 410 l2 356 -24
29 c-29 35 -47 68 -47 87 0 11 21 13 108 10 88 -3 149 1 234 16 4 0 10 -4 13
-9z m411 -2 l221 5 65 -64 c105 -104 98 -31 98 -991 0 -686 -2 -834 -14 -862
-24 -58 -121 -114 -173 -101 -14 3 -94 36 -177 72 -83 36 -196 80 -251 98
-115 38 -116 39 -91 139 12 47 14 71 6 91 -17 46 -13 63 15 57 l25 -4 0 629
c0 346 3 644 6 661 5 23 2 33 -9 38 -8 3 -18 24 -21 48 -4 23 -20 71 -37 106
-16 35 -28 68 -26 75 3 7 27 9 73 5 38 -4 168 -4 290 -2z m-4810 -11 c1 -1 7
-38 12 -82 6 -44 36 -242 66 -440 78 -503 94 -607 107 -712 9 -75 15 -92 30
-96 15 -4 19 -15 19 -54 0 -26 5 -68 11 -92 5 -24 6 -48 2 -52 -12 -12 -313
-90 -322 -84 -9 5 -6 22 20 113 9 32 9 46 0 55 -17 17 -13 47 5 47 14 0 16 8
11 56 -3 31 -10 61 -15 66 -8 8 -185 -26 -201 -39 -2 -1 -7 -24 -12 -50 -5
-35 -3 -52 7 -64 18 -20 18 -48 -1 -69 -13 -14 -12 -22 5 -68 11 -29 20 -65
20 -81 0 -26 -4 -29 -47 -35 -25 -3 -95 -22 -154 -41 -60 -19 -113 -35 -119
-35 -16 0 -12 88 7 147 14 43 15 58 5 73 -17 28 -15 38 10 42 28 4 27 2 73
338 20 146 62 420 95 610 79 460 77 446 53 473 -26 28 -45 65 -39 75 3 6 347
5 352 -1z m3474 -11 c0 -14 -14 -62 -31 -108 -49 -132 -52 -162 -45 -423 3
-132 6 -244 7 -250 0 -5 -3 -86 -7 -180 -4 -93 -4 -205 0 -247 7 -73 9 -77 33
-80 l26 -3 2 -107 c1 -60 -2 -108 -6 -108 -5 0 -51 9 -101 20 -51 12 -127 24
-170 27 -49 4 -78 10 -78 18 0 6 7 36 16 65 13 44 14 61 5 92 -14 46 -7 62 25
54 l24 -6 0 234 c0 161 -3 237 -11 242 -7 4 -7 9 -1 13 5 3 11 117 14 274 4
211 2 270 -8 274 -7 2 -12 21 -12 46 1 27 -9 61 -26 94 -14 29 -26 56 -26 62
0 5 43 7 103 4 56 -2 134 0 172 5 39 5 76 10 83 11 6 0 12 -10 12 -23z m-2553
-22 c74 -60 73 -53 75 -410 1 -290 0 -322 -16 -357 -44 -90 -82 -109 -288
-142 l-108 -18 0 -148 0 -149 26 0 c26 0 26 -2 21 -43 -3 -24 -2 -72 3 -107 5
-35 8 -65 7 -67 -3 -2 -323 -53 -337 -53 -18 0 -17 30 2 86 13 39 18 71 14 96
-5 33 -4 38 12 38 17 0 20 12 25 122 4 66 7 171 7 233 0 106 -1 113 -25 135
-30 28 -32 50 -5 57 19 5 20 14 20 284 0 179 -4 279 -10 279 -5 0 -10 10 -10
23 0 12 -12 49 -26 82 -14 33 -28 67 -30 75 -4 13 33 15 300 15 l304 0 39 -31z
m2123 24 c0 -6 -15 -34 -32 -62 l-33 -51 -2 -557 c-3 -523 -2 -557 15 -560 14
-3 17 -14 17 -58 1 -30 7 -76 15 -102 8 -26 12 -49 9 -52 -2 -2 -42 2 -89 10
-47 8 -123 18 -170 22 l-85 7 3 35 c2 19 8 52 13 72 7 26 6 44 -1 58 -9 17 -7
22 14 30 l25 9 3 273 c2 150 2 274 1 276 0 2 -8 -23 -17 -55 -33 -116 -119
-369 -145 -422 -30 -63 -52 -81 -78 -65 -27 17 -77 141 -133 334 -68 230 -72
237 -65 115 3 -55 5 -176 5 -268 0 -168 0 -168 21 -162 19 6 21 5 14 -16 -10
-33 -9 -65 6 -126 7 -29 11 -55 8 -58 -3 -2 -79 -2 -168 2 l-163 6 8 66 c8 68
8 92 2 126 -2 15 3 21 22 23 l25 3 -2 207 c-1 114 -2 216 -2 227 -1 179 13
574 20 587 5 10 16 15 24 12 11 -5 15 -23 15 -71 0 -115 26 -127 149 -68 40
19 76 35 80 35 4 0 20 -39 35 -87 38 -118 127 -343 136 -343 4 0 14 24 22 53
42 143 150 479 172 532 l24 60 94 6 c170 10 188 10 188 -3z m-1053 -1453 c71
-21 128 -66 158 -125 31 -62 33 -89 1 -35 -12 22 -28 39 -34 38 -6 -2 -9 3 -7
10 6 15 -73 67 -91 60 -8 -3 -11 -16 -7 -37 11 -67 -84 -124 -191 -113 -34 3
-55 11 -66 25 -17 20 -17 20 -32 -6 -9 -15 -18 -47 -22 -72 -6 -39 -2 -55 24
-105 35 -71 38 -85 9 -59 -40 36 -62 94 -63 169 -2 124 57 209 174 251 47 17
86 17 147 -1z m691 -188 l92 -11 0 -30 c0 -49 -12 -61 -49 -48 -17 6 -32 8
-35 4 -2 -4 -7 -51 -11 -104 -4 -54 -10 -100 -15 -103 -4 -3 -22 -2 -40 2
l-33 6 7 56 c3 31 9 80 12 108 l7 53 -47 -6 -46 -7 0 32 c0 48 17 74 43 66 12
-4 64 -12 115 -18z m-1558 -50 c0 -12 -27 -62 -60 -110 -80 -118 -79 -122 11
-87 28 12 53 19 56 17 5 -6 7 -76 2 -82 -3 -2 -57 -12 -119 -20 -63 -9 -118
-19 -124 -22 -5 -4 -7 9 -3 31 3 21 29 70 60 114 76 109 74 106 46 99 -13 -3
-46 -9 -72 -13 l-48 -6 3 38 3 39 90 11 c146 18 155 18 155 -9z m1875 2 c44
-7 84 -15 89 -20 5 -4 5 -20 2 -35 -7 -26 -9 -26 -59 -20 -29 3 -62 9 -74 12
-18 5 -23 2 -23 -14 0 -17 9 -22 53 -29 47 -7 52 -11 52 -33 0 -24 -2 -25 -57
-22 -52 2 -58 0 -58 -18 0 -19 23 -29 109 -46 31 -7 32 -8 26 -43 -4 -20 -8
-37 -10 -39 -2 -2 -25 4 -51 13 -27 9 -73 19 -104 23 l-55 7 1 40 c1 22 7 86
15 143 13 103 14 103 39 98 14 -3 61 -11 105 -17z m-828 -104 c-8 -41 -58
-117 -64 -98 -2 5 8 34 23 64 15 29 30 76 33 104 l5 50 6 -40 c3 -22 2 -58 -3
-80z m-1399 -62 c11 -76 18 -141 14 -144 -4 -4 -21 -10 -39 -14 -25 -5 -32 -3
-37 12 -12 39 -45 266 -40 274 3 5 22 9 43 9 l37 0 22 -137z m-204 75 c4 -18
9 -74 13 -123 5 -87 5 -91 -21 -121 -56 -67 -135 -82 -187 -36 -28 25 -34 39
-50 132 -10 57 -17 106 -15 107 2 2 19 6 38 10 l35 5 17 -95 c20 -107 30 -123
70 -107 38 14 44 42 30 144 -7 50 -10 94 -6 98 4 3 18 8 32 11 14 2 28 5 31 6
4 0 9 -14 13 -31z m2773 14 c6 -4 16 -19 22 -34 14 -38 63 -290 56 -296 -2 -3
-22 2 -42 9 -28 11 -39 21 -41 40 -2 21 -12 28 -55 42 -48 16 -53 16 -64 1 -7
-9 -14 -22 -16 -27 -2 -7 -14 -6 -36 3 -23 9 -31 18 -28 30 2 10 38 67 78 129
73 110 92 125 126 103z m290 -105 c13 -11 26 -30 29 -41 4 -12 15 -41 26 -65
l18 -43 45 41 c24 22 47 41 49 41 18 0 76 -45 76 -59 0 -40 -66 -251 -79 -251
-4 0 -17 7 -30 16 -20 15 -22 22 -16 63 3 25 9 56 12 68 4 18 1 21 -16 16 -11
-3 -32 -16 -45 -30 -14 -14 -29 -22 -35 -19 -5 3 -17 28 -27 56 -17 47 -34 66
-34 37 0 -7 -7 -37 -15 -65 -17 -56 -33 -64 -64 -33 -18 18 -19 23 -5 78 7 32
21 95 30 141 16 76 19 82 38 76 12 -3 31 -15 43 -27z m-3435 -54 c33 -31 58
-125 41 -152 -9 -14 -7 -20 8 -29 27 -17 23 -45 -8 -64 -22 -12 -32 -13 -46
-4 -14 9 -21 8 -30 -5 -20 -26 -53 -39 -101 -39 -36 0 -52 6 -78 29 -31 28
-33 33 -33 98 0 80 24 129 81 163 73 46 120 46 166 3z m1778 -33 c15 -5 -1 -6
-40 -3 -36 3 -67 7 -69 9 -8 7 84 2 109 -6z m-144 -10 c-85 -26 -167 -208
-145 -325 19 -102 52 -139 152 -171 68 -21 110 -14 217 39 85 42 125 102 125
186 0 31 -4 65 -8 76 -5 11 -2 9 7 -5 17 -28 22 -10 5 21 -5 11 -15 16 -21 13
-6 -4 -8 -3 -4 4 3 5 -5 24 -19 40 -30 36 -18 52 13 19 34 -36 51 -88 45 -135
-4 -33 -3 -42 8 -40 21 4 14 -63 -10 -111 -23 -43 -118 -114 -179 -131 -111
-31 -193 -22 -275 30 -57 36 -81 81 -98 186 -10 59 -9 77 5 124 31 103 120
191 191 189 14 -1 12 -3 -9 -9z m109 -56 c19 -12 25 -25 25 -51 0 -80 -58
-130 -141 -120 -57 7 -88 24 -95 54 -9 34 26 96 66 115 44 22 113 23 145 2z
m-2268 -11 c-15 -18 -17 -21 -17 -45 -1 -13 -29 30 -30 44 0 7 23 15 49 17 11
1 11 -2 -2 -16z m4551 -48 c-3 -3 -9 2 -12 12 -6 14 -5 15 5 6 7 -7 10 -15 7
-18z m-37 -82 c13 -16 12 -17 -3 -4 -10 7 -18 15 -18 17 0 8 8 3 21 -13z
m-1635 -5 c87 -10 95 -13 92 -32 -3 -22 -57 -63 -96 -73 -42 -10 -101 15 -124
53 -20 35 -42 44 -51 22 -3 -7 -6 -1 -6 15 -1 26 1 27 45 27 25 0 88 -5 140
-12z m-2766 -1 c0 -2 -15 -18 -34 -36 -28 -27 -34 -30 -40 -16 -3 9 -2 14 2
11 4 -2 21 7 37 20 30 24 35 27 35 21z m1482 -32 c-5 -28 -37 -50 -107 -76
-33 -12 -72 -30 -87 -40 -14 -11 -30 -19 -36 -19 -15 0 -34 27 -42 63 -8 32
-8 31 -9 -10 -1 -24 -5 -43 -11 -43 -5 0 -10 6 -10 13 0 8 -4 7 -11 -3 -8 -11
-9 -7 -5 19 6 33 34 76 44 66 2 -2 12 4 21 15 21 25 89 39 181 37 69 -2 75 -4
72 -22z m2888 -33 c0 -8 -1 -13 -3 -11 -1 2 -9 12 -16 22 -12 15 -12 17 3 11
9 -3 16 -13 16 -22z m-1792 -61 c-5 -1 -1 -9 9 -16 22 -16 15 -26 -13 -19 -18
5 -19 9 -9 61 l10 56 6 -39 c4 -22 3 -41 -3 -43z m552 -9 c0 -15 5 -34 10 -42
8 -12 10 -10 11 10 1 17 3 19 6 8 2 -10 -3 -44 -12 -75 -13 -44 -27 -68 -62
-100 -49 -46 -133 -83 -188 -83 -43 0 -48 27 -7 36 148 32 238 124 230 234 -1
27 0 46 5 43 4 -2 7 -16 7 -31z m-1955 -42 c3 -5 1 -10 -4 -10 -6 0 -11 5 -11
10 0 6 2 10 4 10 3 0 8 -4 11 -10z m39 -36 c9 -23 7 -36 -3 -30 -12 8 -21 46
-11 46 4 0 11 -7 14 -16z m52 -83 c19 -22 60 -54 91 -71 61 -35 62 -59 2 -39
-70 24 -161 111 -144 138 9 16 12 15 51 -28z m-1251 9 c3 -5 1 -10 -4 -10 -6
0 -11 5 -11 10 0 6 2 10 4 10 3 0 8 -4 11 -10z m1740 -22 c-37 -14 -64 -38
-42 -38 9 0 17 6 20 13 7 21 19 -71 12 -101 -3 -16 -19 -42 -35 -57 -27 -26
-33 -27 -91 -22 l-62 5 6 -49 c9 -70 38 -170 48 -163 5 3 9 -1 9 -8 0 -23 110
-60 171 -57 48 3 54 1 54 -16 0 -17 -8 -21 -48 -23 -27 -2 -70 4 -96 13 -57
18 -148 99 -134 118 6 7 4 26 -4 47 l-13 35 3 -37 c2 -21 1 -38 -1 -38 -2 0
-12 21 -24 46 -29 66 -28 149 3 210 13 26 28 46 32 45 5 -1 18 10 29 25 28 35
93 63 148 63 44 -1 44 -1 15 -11z m2458 1 c33 -17 67 -51 67 -67 0 -9 -11 -4
-33 14 -18 16 -44 37 -57 46 -28 19 -11 24 23 7z m-4146 -51 c-17 -41 -35 -46
-43 -13 -7 29 6 45 39 45 15 0 16 -3 4 -32z m2543 4 c28 -14 36 -24 38 -50 6
-61 -48 -90 -112 -61 -19 9 -62 70 -84 121 -7 16 123 8 158 -10z m115 -34 c45
-53 66 -168 48 -259 -10 -53 -106 -143 -173 -163 -59 -18 -117 -20 -139 -7
-22 14 -2 31 38 31 126 0 230 89 247 213 7 48 -8 93 -56 163 -16 25 -30 49
-30 54 0 17 41 -3 65 -32z m-665 -49 c47 -5 93 -9 103 -9 20 0 23 -31 6 -79
-14 -39 -35 -51 -94 -51 -40 0 -52 5 -80 33 l-33 33 -6 -29 c-20 -98 13 -175
94 -224 79 -48 132 -46 221 8 56 33 73 50 94 92 14 28 25 60 26 71 0 21 0 21
10 1 7 -15 8 -8 4 24 -6 44 -32 107 -42 98 -2 -3 0 -15 7 -26 17 -32 5 -25
-26 16 -21 28 -24 35 -10 30 13 -5 17 -3 13 7 -12 31 24 3 42 -33 28 -54 33
-94 22 -156 -15 -78 -69 -142 -152 -180 -121 -54 -233 -18 -313 100 -40 58
-41 62 -40 140 1 94 24 161 52 150 9 -4 55 -11 102 -16z m227 -101 c-2 -13 -4
-5 -4 17 -1 22 1 32 4 23 2 -10 2 -28 0 -40z m100 -20 c-3 -8 -6 -5 -6 6 -1
11 2 17 5 13 3 -3 4 -12 1 -19z m-446 -380 c-6 -17 -11 -44 -11 -60 0 -44 32
-148 43 -141 6 3 7 1 3 -5 -8 -13 14 -52 28 -52 5 0 29 -9 53 -21 65 -31 162
-24 223 16 83 55 121 189 78 273 -16 31 -16 33 0 30 44 -8 66 -132 40 -222
-22 -72 -116 -146 -206 -161 -53 -9 -155 24 -207 68 -94 77 -122 213 -63 307
17 28 23 31 26 17 2 -10 -1 -32 -7 -49z m187 -35 c3 -24 -3 -32 -36 -51 -53
-29 -106 -29 -126 0 -20 28 -20 77 -1 105 l15 21 72 -23 c67 -21 73 -25 76
-52z"/>
<path d="M5185 9530 c3 -5 10 -10 16 -10 5 0 9 5 9 10 0 6 -7 10 -16 10 -8 0
-12 -4 -9 -10z"/>
<path d="M4986 9467 c3 -10 9 -15 12 -12 3 3 0 11 -7 18 -10 9 -11 8 -5 -6z"/>
<path d="M5360 9559 c0 -5 5 -7 10 -4 6 3 10 8 10 11 0 2 -4 4 -10 4 -5 0 -10
-5 -10 -11z"/>
<path d="M5671 9484 c0 -11 3 -14 6 -6 3 7 2 16 -1 19 -3 4 -6 -2 -5 -13z"/>
<path d="M4765 9490 c3 -5 8 -10 11 -10 2 0 4 5 4 10 0 6 -5 10 -11 10 -5 0
-7 -4 -4 -10z"/>
<path d="M5075 8193 c-71 -3 -105 -7 -95 -13 26 -16 1 -24 -37 -11 -21 7 -56
11 -78 9 -36 -3 -40 -6 -43 -32 -2 -16 1 -33 6 -38 10 -10 709 -12 735 -2 12
4 17 18 17 50 l0 44 -197 -2 c-109 -1 -247 -4 -308 -5z"/>
<path d="M4740 7630 c0 -5 5 -10 11 -10 5 0 7 5 4 10 -3 6 -8 10 -11 10 -2 0
-4 -4 -4 -10z"/>
<path d="M4821 7583 c-10 -24 -9 -26 2 -11 10 13 16 15 25 6 9 -9 12 -9 12 0
0 7 -5 12 -11 12 -5 0 -7 5 -4 10 3 6 2 10 -3 10 -5 0 -14 -12 -21 -27z"/>
<path d="M4783 7585 c0 -8 4 -15 9 -15 4 0 8 7 8 15 0 8 -4 15 -8 15 -5 0 -9
-7 -9 -15z"/>
<path d="M4865 7560 c-3 -5 -1 -10 4 -10 6 0 11 5 11 10 0 6 -2 10 -4 10 -3 0
-8 -4 -11 -10z"/>
<path d="M4835 7550 c3 -5 8 -10 11 -10 2 0 4 5 4 10 0 6 -5 10 -11 10 -5 0
-7 -4 -4 -10z"/>
<path d="M4856 7532 c-2 -4 7 -12 20 -19 13 -6 24 -7 24 -2 0 12 -38 31 -44
21z"/>
<path d="M4790 7430 c0 -5 5 -10 10 -10 6 0 10 5 10 10 0 6 -4 10 -10 10 -5 0
-10 -4 -10 -10z"/>
<path d="M4760 7410 c0 -5 5 -10 10 -10 6 0 10 5 10 10 0 6 -4 10 -10 10 -5 0
-10 -4 -10 -10z"/>
<path d="M4747 7366 c-4 -10 -1 -13 9 -9 7 3 14 9 14 14 0 14 -17 10 -23 -5z"/>
<path d="M4186 7307 c3 -10 9 -15 12 -12 3 3 0 11 -7 18 -10 9 -11 8 -5 -6z"/>
<path d="M4653 7289 c-2 -23 3 -25 10 -4 4 8 3 16 -1 19 -4 3 -9 -4 -9 -15z"/>
<path d="M4680 7280 c0 -5 5 -10 10 -10 6 0 10 5 10 10 0 6 -4 10 -10 10 -5 0
-10 -4 -10 -10z"/>
<path d="M4190 7266 c0 -2 8 -10 18 -17 15 -13 16 -12 3 4 -13 16 -21 21 -21
13z"/>
<path d="M4610 7260 c-9 -6 -10 -10 -3 -10 6 0 15 5 18 10 8 12 4 12 -15 0z"/>
<path d="M4376 7135 c-3 -8 -1 -15 4 -15 6 0 10 7 10 15 0 8 -2 15 -4 15 -2 0
-6 -7 -10 -15z"/>
<path d="M4160 7111 c0 -5 -7 -11 -16 -13 -14 -3 -13 -6 4 -26 l21 -23 21 21
c12 12 20 24 17 26 -3 3 -12 -3 -21 -12 -9 -9 -20 -14 -23 -10 -4 3 -1 12 5
18 15 15 16 28 2 28 -5 0 -10 -4 -10 -9z"/>
<path d="M4978 7110 c-71 -29 -378 -178 -378 -183 0 -8 43 5 65 19 11 7 32 15
47 18 32 5 68 24 68 35 0 7 65 36 143 62 20 7 37 17 37 21 0 4 6 8 13 8 6 0
23 9 37 20 31 24 27 24 -32 0z"/>
<path d="M1975 6400 c-3 -6 1 -7 9 -4 18 7 21 14 7 14 -6 0 -13 -4 -16 -10z"/>
<path d="M5136 6763 c-6 -14 -5 -15 5 -6 7 7 10 15 7 18 -3 3 -9 -2 -12 -12z"/>
<path d="M5095 6760 c-3 -6 1 -7 9 -4 18 7 21 14 7 14 -6 0 -13 -4 -16 -10z"/>
<path d="M5109 6706 c9 -11 10 -20 1 -36 -6 -11 -8 -25 -5 -30 10 -17 -6 -34
-17 -19 -8 11 -9 11 -5 -1 6 -22 37 -25 37 -4 0 10 8 26 17 36 14 16 15 21 4
27 -8 5 -10 14 -6 21 5 9 4 11 -3 6 -7 -4 -12 -2 -12 3 0 6 -5 11 -11 11 -8 0
-8 -4 0 -14z m20 -52 c-15 -18 -22 -13 -13 10 3 9 10 13 16 10 5 -3 4 -12 -3
-20z"/>
<path d="M5082 6675 c-17 -37 -14 -45 4 -12 9 16 14 31 11 33 -2 2 -9 -7 -15
-21z"/>
<path d="M5037 6646 c-4 -10 -1 -13 8 -9 8 3 12 9 9 14 -7 12 -11 11 -17 -5z"/>
<path d="M5130 6605 c-7 -13 -18 -21 -24 -18 -6 4 -3 -3 7 -14 16 -18 16 -21
2 -26 -8 -4 -15 -11 -15 -17 0 -6 12 -3 26 6 22 15 23 19 10 26 -9 5 -14 14
-10 20 4 7 9 6 14 -1 3 -7 7 2 7 19 0 16 -1 30 -2 30 -1 0 -8 -11 -15 -25z"/>
<path d="M5060 6590 c0 -5 5 -10 10 -10 6 0 10 5 10 10 0 6 -4 10 -10 10 -5 0
-10 -4 -10 -10z"/>
<path d="M4985 6510 c-3 -5 -1 -10 4 -10 6 0 11 5 11 10 0 6 -2 10 -4 10 -3 0
-8 -4 -11 -10z"/>
<path d="M5040 6510 c0 -5 5 -10 10 -10 6 0 10 5 10 10 0 6 -4 10 -10 10 -5 0
-10 -4 -10 -10z"/>
<path d="M4990 6470 c0 -5 5 -10 10 -10 6 0 10 5 10 10 0 6 -4 10 -10 10 -5 0
-10 -4 -10 -10z"/>
<path d="M4280 6420 c-9 -6 -10 -10 -3 -10 6 0 15 5 18 10 8 12 4 12 -15 0z"/>
<path d="M4926 6363 c-6 -14 -5 -15 5 -6 7 7 10 15 7 18 -3 3 -9 -2 -12 -12z"/>
<path d="M5848 6193 c6 -2 18 -2 25 0 6 3 1 5 -13 5 -14 0 -19 -2 -12 -5z"/>
<path d="M6150 6116 c0 -2 7 -7 16 -10 8 -3 12 -2 9 4 -6 10 -25 14 -25 6z"/>
<path d="M6210 6090 c8 -5 20 -10 25 -10 6 0 3 5 -5 10 -8 5 -19 10 -25 10 -5
0 -3 -5 5 -10z"/>
<path d="M4800 6045 c0 -8 2 -15 4 -15 2 0 6 7 10 15 3 8 1 15 -4 15 -6 0 -10
-7 -10 -15z"/>
<path d="M4216 4611 c-8 -12 4 -41 16 -41 6 0 5 6 -2 15 -6 8 -9 19 -5 25 3 5
4 10 1 10 -3 0 -7 -4 -10 -9z"/>
<path d="M4391 4604 c0 -11 3 -14 6 -6 3 7 2 16 -1 19 -3 4 -6 -2 -5 -13z"/>
<path d="M4250 4561 c0 -6 4 -13 10 -16 6 -3 7 1 4 9 -7 18 -14 21 -14 7z"/>
<path d="M1760 4333 c0 -22 2 -25 10 -13 13 20 13 40 0 40 -5 0 -10 -12 -10
-27z"/>
<path d="M2170 3295 c0 -168 3 -305 8 -305 20 1 154 40 174 52 13 7 27 11 32
10 10 -3 -3 520 -14 531 -4 5 -51 11 -104 13 l-96 5 0 -306z"/>
<path d="M8010 2921 l0 -669 84 -26 c102 -32 104 -32 111 -3 2 12 6 318 8 679
l3 657 -25 10 c-14 5 -61 12 -103 15 l-78 6 0 -669z"/>
<path d="M3100 3351 c0 -5 -8 -63 -19 -128 -43 -272 -58 -413 -42 -413 6 0 38
7 71 17 68 19 65 8 46 148 -8 55 -20 164 -27 243 -7 78 -16 142 -21 142 -4 0
-8 -4 -8 -9z"/>
<path d="M4013 3619 c-7 -7 -41 -10 -97 -8 l-85 4 -3 -233 c-2 -129 -2 -235 0
-236 7 -8 177 25 189 36 11 11 13 59 11 232 -2 164 -6 214 -15 205z"/>
<path d="M6527 1956 l-16 -34 30 -11 30 -10 -7 37 c-9 53 -18 57 -37 18z"/>
<path d="M3314 1866 c-35 -15 -44 -32 -44 -80 0 -70 61 -104 82 -45 6 17 21
34 33 39 18 7 21 14 17 37 -5 31 -29 63 -46 63 -6 -1 -25 -7 -42 -14z"/>
<path d="M4577 1265 c-4 -8 -2 -17 3 -20 6 -4 10 3 10 14 0 25 -6 27 -13 6z"/>
<path d="M4561 1224 c0 -11 3 -14 6 -6 3 7 2 16 -1 19 -3 4 -6 -2 -5 -13z"/>
<path d="M1319 9356 c-104 -27 -205 -109 -251 -204 -32 -65 -33 -71 -33 -192
0 -105 3 -130 20 -160 11 -21 19 -56 20 -88 1 -49 4 -56 50 -103 28 -27 64
-59 82 -70 45 -28 117 -28 187 1 48 19 59 21 75 9 147 -108 386 -314 650 -558
89 -84 118 -118 138 -161 13 -30 31 -62 40 -72 15 -17 12 -22 -48 -86 -35 -37
-110 -113 -166 -168 -135 -133 -135 -129 -5 -256 107 -105 132 -122 164 -112
38 12 150 92 252 179 l98 84 62 -54 c33 -29 99 -86 146 -126 47 -39 171 -149
275 -245 105 -95 246 -218 315 -273 107 -87 130 -101 161 -101 44 0 64 20 55
55 -7 27 -2 48 58 231 20 61 36 117 36 123 0 13 -75 86 -270 261 -125 112
-257 251 -299 315 -14 22 -39 52 -54 68 -68 67 -77 175 -16 207 15 9 24 8 36
-2 14 -11 15 -10 8 12 -8 25 67 -40 205 -180 30 -30 125 -122 210 -205 85 -82
185 -178 221 -213 l66 -64 32 56 31 56 -102 98 c-57 53 -134 126 -173 162
-131 121 -415 405 -415 415 0 6 13 26 28 45 16 19 57 77 91 128 42 61 81 106
117 134 60 45 104 109 104 152 0 15 -14 47 -31 72 -36 53 -187 184 -211 184
-22 0 -104 -71 -170 -150 -53 -62 -321 -321 -339 -328 -5 -2 -9 1 -9 7 0 29
-41 51 -95 51 -49 0 -57 3 -77 30 -12 17 -47 50 -78 72 -61 47 -161 132 -260
224 -36 33 -83 74 -105 90 -23 16 -104 82 -181 147 l-141 117 13 52 c26 98 13
143 -63 228 -85 94 -168 122 -248 84 -32 -15 -35 -14 -62 4 -37 26 -87 32
-144 18z m76 -116 l26 -10 -63 -71 c-35 -39 -81 -83 -103 -98 l-40 -27 -21 42
c-19 36 -20 45 -9 71 16 38 65 73 124 89 58 16 55 16 86 4z m233 -2 c19 -19
14 -38 -8 -38 -26 0 -72 -23 -89 -44 -20 -24 -2 -19 31 9 16 14 37 25 46 25
11 -1 3 -12 -23 -32 -22 -17 -74 -66 -115 -108 -97 -99 -166 -154 -185 -147
-8 4 -19 -1 -24 -11 -6 -9 -11 -14 -11 -10 0 8 33 69 62 113 11 17 72 81 136
142 118 114 149 132 180 101z m116 -134 c3 -9 6 -19 6 -24 0 -8 -40 -22 -71
-25 -25 -3 -40 -15 -33 -27 5 -7 2 -8 -5 -4 -8 5 -28 -10 -56 -40 -24 -27 -47
-52 -52 -56 -48 -43 -83 -68 -94 -68 -8 0 -26 -14 -42 -32 -34 -41 -25 -10 14
47 40 59 177 190 229 219 51 29 95 34 104 10z m-575 -135 c-16 -81 -33 -103
-26 -34 5 53 24 111 33 102 3 -2 0 -33 -7 -68z m416 -39 c-51 -52 -70 -59 -41
-15 15 22 71 65 86 65 2 0 -18 -22 -45 -50z m187 -66 c17 -9 26 -19 22 -24
-28 -26 -148 -120 -153 -120 -4 0 -7 18 -6 40 1 32 8 48 40 80 44 45 53 47 97
24z m-546 -32 c-3 -4 -7 -26 -10 -48 -7 -61 -17 -94 -27 -88 -18 11 -10 90 12
118 19 24 37 37 25 18z m132 -69 c-7 -16 -15 -32 -19 -38 -3 -5 -14 -34 -24
-63 -9 -28 -21 -49 -26 -46 -13 8 -3 38 38 112 35 64 51 82 31 35z m510 15 c7
-7 12 -15 12 -19 0 -9 -210 -162 -215 -157 -7 7 102 138 135 163 38 28 51 30
68 13z m103 -67 l24 -20 -42 -38 c-32 -29 -52 -39 -78 -40 -32 -1 -35 1 -29
20 8 27 73 97 90 97 6 0 22 -9 35 -19z m138 -101 l23 -20 -28 -23 c-16 -12
-59 -43 -96 -70 l-68 -47 2 27 c1 16 6 34 12 42 9 12 7 13 -9 8 -23 -8 31 42
85 78 43 29 49 29 79 5z m1246 -92 c36 -43 47 -73 35 -103 -9 -24 -10 -24 -84
47 -66 63 -73 74 -64 93 6 11 16 23 21 27 13 8 57 -22 92 -64z m-1217 -26
c-21 -30 -62 -75 -87 -97 l-23 -20 22 38 c12 20 38 51 58 67 42 35 48 37 30
12z m1072 -52 c8 -15 -21 -48 -173 -196 -100 -99 -202 -201 -227 -229 -57 -64
-17 -28 145 132 124 122 195 183 195 167 0 -13 -187 -192 -207 -198 -10 -3
-27 -19 -38 -36 -11 -16 -23 -30 -27 -30 -5 0 -8 -7 -8 -16 0 -23 -150 -173
-171 -171 -20 1 -17 7 35 66 l31 35 -47 -38 c-25 -20 -113 -108 -194 -194
-215 -228 -262 -272 -289 -272 -13 0 -26 4 -30 9 -3 6 34 52 82 103 49 51 125
134 170 183 218 240 709 716 731 708 7 -3 17 -13 22 -23z m-906 -10 c14 -5 26
-14 26 -19 0 -6 -35 -35 -77 -66 -43 -31 -102 -82 -130 -113 -29 -31 -53 -51
-53 -45 0 7 32 45 70 83 67 67 78 90 44 90 -23 0 -16 16 21 49 38 33 58 37 99
21z m927 -49 c-6 -10 -22 -26 -37 -36 l-27 -17 29 36 c31 38 51 49 35 17z
m-852 -48 c0 -11 -159 -135 -159 -125 0 15 75 90 110 111 37 22 50 26 49 14z
m101 -53 c0 -5 -42 -38 -94 -74 -52 -36 -110 -85 -130 -108 -19 -24 -36 -38
-36 -33 0 17 123 157 178 202 43 35 57 42 68 32 8 -6 14 -15 14 -19z m60 -59
c0 -5 -21 -27 -47 -48 -27 -20 -65 -53 -86 -71 -22 -18 -41 -31 -44 -28 -3 3
6 23 20 45 39 58 157 135 157 102z m-330 -35 c0 -2 -8 -10 -17 -17 -16 -13
-17 -12 -4 4 13 16 21 21 21 13z m460 -52 c0 -20 -96 -121 -132 -140 -27 -14
-29 -13 -38 11 -6 15 -10 31 -10 36 0 6 -8 5 -21 -1 -18 -10 -19 -9 -11 7 15
26 62 69 97 87 41 21 115 21 115 0z m-260 -229 c0 -48 -16 -61 -26 -21 -5 21
9 66 21 66 3 0 5 -20 5 -45z m430 -79 c0 -2 -8 -10 -17 -17 -16 -13 -17 -12
-4 4 13 16 21 21 21 13z m-270 -113 c0 -13 -282 -285 -288 -278 -3 3 9 21 28
39 19 18 82 81 140 140 96 98 120 118 120 99z m136 -38 c-24 -31 -46 -45 -46
-30 0 10 63 75 68 70 3 -2 -7 -20 -22 -40z m434 -188 c0 -14 -39 23 -52 48 -8
14 -2 12 21 -9 17 -17 31 -34 31 -39z m-600 29 c0 -3 -4 -8 -10 -11 -5 -3 -10
-1 -10 4 0 6 5 11 10 11 6 0 10 -2 10 -4z m-76 -71 c-16 -13 -31 -21 -33 -19
-8 8 42 53 52 47 5 -3 -4 -16 -19 -28z m-218 -84 l80 -78 -29 -17 c-16 -9 -34
-16 -41 -16 -7 0 -39 25 -71 55 -33 30 -63 55 -67 55 -18 0 -6 40 18 59 15 12
27 21 28 21 1 0 38 -35 82 -79z m964 -327 c74 -68 124 -111 189 -162 70 -55
194 -172 182 -172 -5 0 -33 22 -61 50 -28 27 -94 85 -148 127 -53 43 -137 118
-187 167 -91 90 -78 84 25 -10z"/>
<path d="M2205 7315 c52 -45 71 -45 23 0 -21 19 -43 35 -50 35 -7 -1 5 -16 27
-35z"/>
<path d="M8723 9335 c-17 -9 -65 -51 -106 -94 -88 -90 -101 -129 -72 -214 20
-59 19 -60 -95 -145 -41 -30 -102 -78 -135 -106 -33 -28 -82 -69 -110 -91 -27
-21 -71 -57 -96 -79 -25 -23 -94 -84 -154 -136 -60 -52 -127 -114 -150 -137
-29 -29 -55 -45 -84 -52 -24 -5 -54 -19 -67 -32 l-24 -22 -82 78 c-46 43 -155
152 -243 242 -88 90 -168 163 -177 163 -38 0 -232 -188 -244 -236 -3 -13 -4
-34 0 -47 10 -40 74 -115 122 -143 29 -17 59 -48 86 -88 22 -33 63 -87 90
-118 34 -40 48 -64 44 -76 -5 -16 -143 -152 -583 -576 -57 -55 -103 -107 -103
-117 0 -15 27 -88 36 -98 2 -3 62 51 132 120 70 68 165 160 212 203 47 44 154
147 237 230 l153 150 10 -31 c7 -20 24 -37 46 -48 19 -9 34 -22 34 -28 0 -17
-79 -144 -135 -216 -25 -33 -85 -96 -133 -139 -48 -44 -143 -131 -211 -193
-68 -63 -149 -136 -180 -163 -31 -27 -57 -57 -59 -67 -2 -9 8 -39 22 -66 13
-27 32 -78 41 -113 9 -36 25 -81 35 -102 15 -31 16 -45 8 -78 -9 -35 -8 -44 8
-61 45 -50 45 -50 202 102 142 137 374 346 531 478 42 35 112 97 156 138 44
40 88 73 98 73 31 0 152 -87 205 -149 51 -59 136 -111 180 -111 45 0 272 194
272 233 0 25 -39 67 -155 169 -66 58 -142 129 -168 158 l-48 52 25 41 c48 83
223 260 370 377 17 13 87 76 156 140 69 63 145 130 170 149 25 19 57 47 71 63
l27 30 87 -22 c111 -28 147 -22 225 37 63 47 104 105 115 163 3 19 15 61 26
93 34 101 18 249 -36 343 -55 95 -176 171 -285 181 -49 5 -64 2 -95 -17 -34
-21 -37 -21 -55 -5 -27 25 -107 30 -147 10z m179 -180 c99 -80 154 -145 178
-209 24 -64 -9 -48 -129 65 -67 63 -143 131 -169 153 -55 45 -61 55 -38 72 26
19 47 8 158 -81z m191 69 c42 -21 75 -52 93 -86 26 -50 20 -52 -91 -32 -32 6
-148 111 -139 126 9 14 104 9 137 -8z m-380 -111 c91 -46 230 -188 297 -304
22 -36 47 -72 56 -80 19 -15 44 -69 44 -94 0 -8 -8 -15 -19 -15 -14 0 -21 12
-29 54 -17 84 -105 204 -182 250 l-32 18 16 -23 c23 -36 47 -99 38 -99 -5 0
-65 56 -135 125 -91 89 -127 131 -127 148 0 42 21 47 73 20z m-12 -272 c16
-16 30 -37 30 -45 6 -75 6 -76 -21 -59 -47 31 -130 94 -130 99 0 7 61 33 78
34 8 0 27 -13 43 -29z m489 -58 c20 -32 30 -59 26 -70 -10 -24 -29 -2 -60 68
-32 74 -10 75 34 2z m-613 -34 c53 -25 99 -82 79 -98 -21 -18 -194 99 -180
121 8 12 46 3 101 -23z m437 -83 c12 -19 14 -27 5 -24 -13 4 -78 105 -79 122
0 9 38 -42 74 -98z m-526 -12 c28 -28 31 -35 20 -48 -11 -12 -17 -12 -43 1
-61 31 -93 74 -62 86 22 9 51 -4 85 -39z m-144 -59 c43 -21 103 -82 90 -94
-26 -25 -51 -20 -119 24 -39 25 -73 45 -77 45 -16 0 -7 17 15 28 31 15 54 14
91 -3z m-1192 -32 c10 -9 18 -20 18 -26 0 -5 -34 -42 -74 -82 l-75 -73 -11 31
c-12 35 -7 44 60 120 46 52 55 55 82 30z m1099 -81 c48 -31 75 -59 66 -69 -8
-7 -112 54 -134 80 -15 16 -15 17 3 17 11 0 40 -13 65 -28z m-563 -457 c90
-88 196 -198 235 -244 40 -47 114 -134 166 -194 71 -83 90 -112 80 -118 -27
-17 -29 -16 -182 156 -105 120 -548 563 -607 609 -14 11 64 -71 173 -180 108
-110 197 -203 197 -206 0 -4 -5 -10 -10 -13 -6 -4 -9 -1 -8 6 2 7 -2 13 -9 14
-6 0 -15 4 -20 9 -5 5 -2 6 6 1 9 -5 12 -4 7 3 -4 6 -13 9 -21 5 -8 -3 -15 0
-15 6 0 7 -8 11 -17 9 -11 -2 -17 3 -16 12 2 9 -7 20 -19 25 -13 6 -28 21 -35
35 -7 14 -13 21 -13 16 0 -15 -410 397 -410 412 0 7 14 25 32 41 l32 29 145
-137 c80 -75 219 -208 309 -296z m490 375 c51 -41 72 -72 53 -78 -17 -6 -13
-32 5 -32 26 0 94 -94 78 -108 -4 -4 -8 -2 -10 3 -18 47 -53 79 -153 139 -61
37 -111 71 -111 76 0 7 64 38 81 39 4 1 29 -17 57 -39z m-1028 -90 c6 -11 8
-20 6 -20 -3 0 -10 9 -16 20 -6 11 -8 20 -6 20 3 0 10 -9 16 -20z m880 -92
c34 -55 20 -65 -25 -18 -15 16 -32 28 -38 27 -6 -1 -12 18 -15 43 l-4 45 27
-25 c14 -13 39 -46 55 -72z m-766 -47 c86 -100 100 -121 86 -121 -21 0 -160
169 -160 194 0 12 9 3 74 -73z m661 19 c37 -23 77 -64 104 -110 36 -60 23 -57
-46 11 -38 36 -83 76 -100 88 -63 43 -26 52 42 11z m-95 -55 c39 -20 59 -40
99 -102 28 -42 51 -87 51 -99 0 -13 5 -26 10 -29 12 -8 13 -35 1 -35 -5 0 -12
12 -16 28 -3 15 -15 46 -27 70 -15 33 -24 41 -38 37 -10 -3 -21 -1 -25 5 -3 6
-11 7 -17 4 -5 -4 -39 22 -74 57 -58 58 -63 65 -47 76 23 17 26 17 83 -12z
m422 -712 c15 -15 28 -30 28 -35 0 -10 -84 -88 -121 -112 -28 -17 -31 -17 -55
-1 l-26 17 55 57 c30 31 60 66 66 79 15 28 19 28 53 -5z m-907 -239 c-73 -66
-218 -189 -235 -199 -22 -12 107 106 197 180 89 75 112 85 38 19z"/>
<path d="M8690 9067 c0 -3 26 -26 58 -53 39 -33 48 -38 27 -15 -30 32 -85 77
-85 68z"/>
<path d="M2563 7214 c-18 -14 -33 -29 -33 -33 0 -4 20 -17 44 -28 105 -51 239
-199 306 -340 27 -56 54 -104 59 -108 6 -3 57 0 115 7 77 9 103 15 99 25 -3 7
-44 44 -92 82 -47 38 -102 86 -121 106 -19 21 -66 64 -105 97 -38 33 -106 96
-151 139 -44 44 -83 79 -85 79 -2 0 -19 -12 -36 -26z"/>
<path d="M7709 7172 c-133 -122 -313 -278 -400 -345 -46 -36 -94 -76 -107 -90
l-24 -25 89 -5 c48 -3 99 -7 112 -9 21 -3 27 5 52 66 65 159 213 329 342 391
76 36 88 50 65 73 -25 25 -57 11 -129 -56z"/>
<path d="M7065 6353 c-57 -30 -65 -42 -65 -103 0 -80 31 -138 90 -167 55 -27
99 -20 154 23 91 72 60 200 -61 251 -42 17 -81 16 -118 -4z m119 -99 c21 -20
21 -70 0 -78 -60 -23 -119 19 -96 69 9 20 19 25 46 25 19 0 42 -7 50 -16z"/>
<path d="M3114 6341 c-52 -32 -74 -68 -74 -122 0 -39 5 -52 30 -77 50 -50 113
-75 176 -70 91 8 140 57 154 158 11 78 0 96 -60 98 -23 1 -54 9 -70 17 -41 21
-118 19 -156 -4z m202 -97 c-17 -68 -91 -94 -142 -51 -47 40 -10 90 50 68 23
-9 28 -7 48 19 21 29 22 29 36 9 8 -12 11 -30 8 -45z"/>
<path d="M1268 5880 c-58 -15 -174 -76 -218 -116 -82 -75 -137 -205 -128 -304
14 -146 136 -266 284 -278 134 -10 227 45 290 173 48 97 56 182 22 239 -32 55
-75 78 -143 77 -48 0 -65 -6 -125 -45 -111 -72 -140 -147 -81 -207 39 -38 87
-39 130 -3 33 28 39 61 21 109 -12 31 1 61 30 70 43 14 90 -43 90 -108 0 -77
-84 -169 -181 -198 -50 -16 -112 7 -168 61 -146 142 -1 394 246 428 101 14
189 -16 257 -87 35 -36 51 -39 66 -11 6 11 36 38 66 61 31 23 52 44 47 48 -4
5 -34 13 -66 20 -32 7 -91 27 -130 43 -61 26 -87 31 -172 34 -55 2 -117 -1
-137 -6z"/>
<path d="M8875 5876 c-84 -17 -126 -27 -225 -55 -41 -11 -87 -23 -102 -26 -36
-7 -36 -20 0 -33 15 -5 53 -32 83 -60 l56 -51 32 39 c50 62 143 100 246 100
169 0 363 -209 325 -351 -12 -44 -68 -112 -111 -135 -75 -39 -194 2 -249 84
-25 38 -30 55 -30 107 0 79 30 130 75 130 29 0 29 0 26 -58 -3 -66 12 -122 42
-154 24 -27 44 -28 92 -9 43 18 61 71 41 121 -16 38 -74 87 -138 118 -26 12
-48 28 -48 35 0 28 -104 4 -151 -35 -42 -36 -59 -80 -59 -155 0 -90 32 -153
107 -213 84 -68 125 -85 209 -85 39 0 86 5 105 12 88 30 164 113 196 215 14
45 15 62 5 115 -26 140 -106 245 -235 308 -97 47 -181 57 -292 36z"/>
<path d="M3560 5614 c0 -8 14 -35 30 -59 17 -24 37 -68 45 -97 l15 -53 -6 75
c-8 113 -13 130 -41 141 -34 13 -43 11 -43 -7z"/>
<path d="M6766 5604 c-17 -17 -21 -51 -7 -72 6 -11 10 -10 16 5 27 68 23 100
-9 67z"/>
<path d="M3541 4960 c-39 -49 -113 -92 -196 -116 -62 -18 -63 -19 -68 -57 -7
-54 -59 -156 -99 -194 -18 -17 -60 -47 -92 -65 l-60 -33 -12 -70 c-6 -39 -18
-83 -25 -100 -25 -56 -86 -140 -138 -188 -28 -26 -51 -49 -51 -50 0 -1 37 0
82 1 46 2 184 -1 308 -8 146 -7 334 -9 538 -4 l313 7 -34 36 c-104 108 -244
389 -296 596 -6 22 -33 71 -61 109 -37 51 -51 80 -56 117 -4 27 -10 51 -14 54
-4 2 -22 -14 -39 -35z m-91 -594 c-29 -72 -55 -134 -59 -137 -3 -4 -16 -10
-28 -14 -33 -9 -30 6 22 131 25 59 45 111 45 115 0 17 -68 9 -93 -11 l-26 -21
-11 20 c-6 12 -8 32 -4 45 6 25 9 25 102 28 75 2 98 0 100 -11 2 -7 -20 -72
-48 -145z m258 142 c19 -19 16 -232 -3 -252 -21 -21 -75 -29 -107 -17 -34 13
-43 43 -43 146 0 111 16 135 88 135 29 0 58 -5 65 -12z"/>
<path d="M3613 4464 c-9 -4 -13 -28 -13 -69 0 -85 9 -122 30 -128 35 -9 41 6
38 104 -3 86 -5 94 -23 96 -11 1 -26 -1 -32 -3z"/>
<path d="M6780 4938 c0 -13 -17 -60 -38 -104 -46 -93 -54 -114 -83 -214 -48
-167 -158 -379 -251 -485 -22 -25 -39 -48 -36 -50 8 -9 685 -8 931 1 l259 9
-46 32 c-50 35 -101 100 -143 182 -20 40 -29 75 -33 130 l-5 76 -58 31 c-68
36 -144 121 -170 191 -28 74 -29 75 -98 98 -85 29 -168 71 -201 103 l-28 26 0
-26z m290 -452 c0 -31 -27 -131 -56 -207 -22 -60 -27 -66 -49 -61 -14 2 -25 5
-25 6 0 1 16 41 35 89 19 47 36 101 37 119 l3 33 -50 0 c-47 0 -50 2 -53 27
-3 27 -3 27 65 30 75 3 93 -4 93 -36z m-204 8 c13 -52 -2 -160 -29 -207 -36
-60 -52 -73 -80 -59 -12 6 -28 12 -36 14 -9 3 -2 12 21 26 19 12 40 33 46 47
13 29 13 29 -51 40 -28 4 -40 13 -47 31 -13 34 -12 78 2 109 11 24 15 25 89
25 76 0 79 -1 85 -26z"/>
<path d="M6737 4463 c-13 -12 -7 -51 9 -67 35 -36 83 -2 70 50 -5 19 -13 24
-40 24 -18 0 -36 -3 -39 -7z"/>
<path d="M6252 8191 c-8 -5 -12 -21 -10 -37 3 -26 7 -29 45 -32 35 -3 42 0 48
19 12 38 -47 74 -83 50z"/>
<path d="M6562 8179 c-20 -8 -22 -15 -22 -83 0 -90 18 -118 64 -100 13 5 16
23 16 94 0 95 -8 107 -58 89z"/>
<path d="M4074 8176 c-16 -12 -19 -27 -19 -89 0 -42 2 -78 5 -80 12 -12 56
-16 70 -7 11 7 15 29 15 89 -1 44 -3 82 -5 84 -15 14 -49 15 -66 3z"/>
</g>
</svg>
