<?xml version="1.0" encoding="UTF-8"?>
<svg xmlns="http://www.w3.org/2000/svg" width="240" height="240" viewBox="0 0 240 240" fill="none">
  <circle cx="120" cy="120" r="110" fill="#662D91"/>
  <path d="M120 35C115.858 35 112.5 38.3579 112.5 42.5C112.5 46.6421 115.858 50 120 50C124.142 50 127.5 46.6421 127.5 42.5C127.5 38.3579 124.142 35 120 35Z" fill="#006837"/>
  <path d="M120 50L130 85H110L120 50Z" fill="#006837"/>
  <path d="M80 120C80 102.386 90.2649 87.4446 105 80.1343M170 120C170 102.386 159.735 87.4446 145 80.1343" stroke="#006837" stroke-width="5"/>
  <circle cx="92.5" cy="127.5" r="17.5" fill="#FFE35A"/>
  <circle cx="92.5" cy="172.5" r="17.5" fill="#FFE35A"/>
  <circle cx="122.5" cy="187.5" r="17.5" fill="#FFE35A"/>
  <circle cx="152.5" cy="172.5" r="17.5" fill="#FFE35A"/>
  <circle cx="147.5" cy="127.5" r="17.5" fill="#FFE35A"/>
  <circle cx="120" cy="107.5" r="17.5" fill="#FFE35A"/>
  <circle cx="120" cy="147.5" r="17.5" fill="#FFE35A"/>
  <circle cx="92.5" cy="127.5" r="12.5" fill="#4D1979"/>
  <circle cx="92.5" cy="172.5" r="12.5" fill="#4D1979"/>
  <circle cx="122.5" cy="187.5" r="12.5" fill="#4D1979"/>
  <circle cx="152.5" cy="172.5" r="12.5" fill="#4D1979"/>
  <circle cx="147.5" cy="127.5" r="12.5" fill="#4D1979"/>
  <circle cx="120" cy="107.5" r="12.5" fill="#4D1979"/>
  <circle cx="120" cy="147.5" r="12.5" fill="#4D1979"/>
  <circle cx="120" cy="120" r="12.5" fill="#FFE35A"/>
  <path d="M60.7334 190.734L63.5376 176.536H67.1866L62.8377 195.33H59.4942L56.2408 181.268L52.9873 195.33H49.6439L45.3052 176.536H48.9434L51.7019 190.909L55.1074 176.536H57.3633L60.7334 190.734Z" fill="#FFFFFF"/>
  <path d="M69.4772 195.33V176.536H72.9612V184.158H79.7621V176.536H83.246V195.33H79.7621V187.286H72.9612V195.33H69.4772Z" fill="#FFFFFF"/>
  <path d="M86.2003 195.33V176.536H98.2124V179.611H89.7843V184.364H97.5125V187.439H89.7843V192.256H98.384V195.33H86.2003Z" fill="#FFFFFF"/>
  <path d="M112.591 183.68C112.591 185.023 112.27 186.189 111.629 187.178C110.988 188.154 110.124 188.913 109.038 189.454C107.951 189.983 106.739 190.248 105.401 190.248C104.063 190.248 102.851 189.983 101.765 189.454C100.678 188.913 99.8145 188.154 99.1737 187.178C98.533 186.189 98.2126 185.023 98.2126 183.68C98.2126 182.336 98.533 181.171 99.1737 180.181C99.8145 179.192 100.678 178.433 101.765 177.906C102.851 177.364 104.063 177.093 105.401 177.093C106.739 177.093 107.951 177.364 109.038 177.906C110.124 178.433 110.988 179.192 111.629 180.181C112.27 181.171 112.591 182.336 112.591 183.68ZM109.145 183.68C109.145 182.826 108.967 182.114 108.613 181.541C108.258 180.968 107.785 180.539 107.194 180.255C106.617 179.97 106.033 179.828 105.442 179.828C104.851 179.828 104.261 179.97 103.67 180.255C103.079 180.539 102.606 180.968 102.251 181.541C101.896 182.114 101.719 182.826 101.719 183.68C101.719 184.533 101.896 185.245 102.251 185.818C102.606 186.391 103.079 186.82 103.67 187.104C104.261 187.389 104.851 187.531 105.442 187.531C106.033 187.531 106.617 187.389 107.194 187.104C107.785 186.82 108.258 186.391 108.613 185.818C108.967 185.245 109.145 184.533 109.145 183.68Z" fill="#FFFFFF"/>
  <path d="M124.339 190.734L123.151 191.021C122.762 191.088 122.487 191.122 122.326 191.122C121.414 191.122 120.616 190.847 119.933 190.297C119.265 189.746 118.93 188.818 118.93 187.515V179.611H115.768V176.536H118.93L119.402 172.883H122.414V176.536H126.328V179.611H122.414V186.75C122.414 187.329 122.539 187.739 122.789 187.979C123.053 188.208 123.382 188.322 123.777 188.322C124.172 188.322 124.607 188.236 125.081 188.063L124.339 190.734Z" fill="#FFFFFF"/>
  <path d="M138.341 183.68C138.341 185.023 138.021 186.189 137.38 187.178C136.739 188.154 135.875 188.913 134.789 189.454C133.702 189.983 132.49 190.248 131.152 190.248C129.814 190.248 128.602 189.983 127.516 189.454C126.429 188.913 125.566 188.154 124.925 187.178C124.284 186.189 123.964 185.023 123.964 183.68C123.964 182.336 124.284 181.171 124.925 180.181C125.566 179.192 126.429 178.433 127.516 177.906C128.602 177.364 129.814 177.093 131.152 177.093C132.49 177.093 133.702 177.364 134.789 177.906C135.875 178.433 136.739 179.192 137.38 180.181C138.021 181.171 138.341 182.336 138.341 183.68ZM134.896 183.68C134.896 182.826 134.718 182.114 134.363 181.541C134.008 180.968 133.536 180.539 132.945 180.255C132.368 179.97 131.784 179.828 131.193 179.828C130.602 179.828 130.011 179.97 129.421 180.255C128.83 180.539 128.357 180.968 128.002 181.541C127.646 182.114 127.469 182.826 127.469 183.68C127.469 184.533 127.646 185.245 128.002 185.818C128.357 186.391 128.83 186.82 129.421 187.104C130.011 187.389 130.602 187.531 131.193 187.531C131.784 187.531 132.368 187.389 132.945 187.104C133.536 186.82 134.008 186.391 134.363 185.818C134.718 185.245 134.896 184.533 134.896 183.68Z" fill="#FFFFFF"/>
  <path d="M150.09 185.337V177.341H153.546V195.33H150.09V193.047C149.646 193.845 149.031 194.455 148.246 194.876C147.46 195.283 146.563 195.487 145.554 195.487C144.532 195.487 143.634 195.287 142.862 194.89C142.09 194.478 141.476 193.868 141.019 193.061C140.561 192.253 140.333 191.246 140.333 190.041V177.341H143.788V189.317C143.788 190.32 144.08 191.115 144.665 191.704C145.25 192.278 145.994 192.565 146.899 192.565C147.634 192.565 148.284 192.393 148.855 192.045C149.44 191.698 149.904 191.176 150.249 190.48C150.608 189.783 150.788 189.01 150.788 188.15V177.341H154.244V185.337H150.09Z" fill="#FFFFFF"/>
  <path d="M165.845 195.487C164.575 195.487 163.421 195.223 162.38 194.696C161.351 194.155 160.546 193.409 159.965 192.46C159.394 191.498 159.109 190.441 159.109 189.29C159.109 188.152 159.394 187.104 159.965 186.142C160.546 185.18 161.351 184.429 162.38 183.887C163.421 183.333 164.575 183.055 165.845 183.055C166.732 183.055 167.559 183.186 168.325 183.447C169.092 183.708 169.776 184.073 170.375 184.543C170.974 185.012 171.47 185.571 171.859 186.224L169.149 187.616C168.814 187.069 168.366 186.64 167.8 186.328C167.241 186.016 166.59 185.86 165.845 185.86C165.07 185.86 164.355 186.02 163.701 186.341C163.062 186.661 162.549 187.1 162.162 187.656C161.79 188.212 161.601 188.842 161.607 189.544C161.601 190.246 161.79 190.876 162.162 191.433C162.549 191.989 163.062 192.428 163.701 192.748C164.355 193.068 165.07 193.228 165.845 193.228C166.52 193.228 167.138 193.085 167.695 192.799C168.268 192.501 168.712 192.089 169.027 191.568L171.778 192.932C171.389 193.572 170.879 194.131 170.252 194.613C169.637 195.081 168.94 195.447 168.158 195.707C167.378 195.96 166.55 196.087 165.676 196.087C165.676 196.087 165.845 195.487 165.845 195.487Z" fill="#FFFFFF"/>
  <path d="M181.778 195.487C180.521 195.487 179.38 195.223 178.352 194.696C177.337 194.155 176.528 193.409 175.924 192.46C175.333 191.498 175.037 190.441 175.037 189.29C175.037 188.139 175.327 187.091 175.911 186.142C176.494 185.18 177.282 184.429 178.272 183.887C179.275 183.333 180.397 183.055 181.638 183.055C182.893 183.055 184.031 183.333 185.052 183.887C186.073 184.429 186.881 185.18 187.475 186.142C188.08 187.091 188.381 188.132 188.381 189.262C188.381 189.431 188.368 189.613 188.342 189.804C188.33 189.996 188.306 190.189 188.272 190.386H177.626C177.696 191.047 177.901 191.607 178.245 192.062C178.588 192.518 179.024 192.871 179.548 193.118C180.085 193.351 180.636 193.475 181.201 193.487C181.944 193.487 182.577 193.344 183.098 193.059C183.635 192.774 184.075 192.374 184.418 191.866L186.962 193.242C186.433 194.014 185.721 194.632 184.829 195.09C183.949 195.548 182.936 195.773 181.778 195.778V195.487ZM177.584 188.164H185.863C185.793 187.531 185.589 186.974 185.245 186.5C184.913 186.011 184.495 185.645 183.993 185.398C183.49 185.152 182.945 185.029 182.357 185.029C181.766 185.029 181.214 185.152 180.7 185.398C180.185 185.645 179.756 186.011 179.413 186.5C179.069 186.989 177.584 188.164 177.584 188.164Z" fill="#FFFFFF"/>
  <path d="M194.97 190.048V186.07H199.584V190.048H194.97Z" fill="#FFFFFF"/>
  <circle cx="120" cy="120" r="110" stroke="#FFFFFF" stroke-width="3"/>
</svg>