<?xml version="1.0" encoding="UTF-8"?>
<svg xmlns="http://www.w3.org/2000/svg" width="240" height="240" viewBox="0 0 240 240" fill="none">
  <circle cx="120" cy="120" r="110" fill="#F57F29"/>
  <path d="M170 97C170 82.6406 150.376 71 126 71C101.624 71 82 82.6406 82 97C82 111.359 101.624 123 126 123C150.376 123 170 111.359 170 97Z" fill="#F5DEB3"/>
  <path d="M155 97C155 88.7157 142.121 82 126 82C109.879 82 97 88.7157 97 97C97 105.284 109.879 112 126 112C142.121 112 155 105.284 155 97Z" fill="#A0522D"/>
  <path d="M78 90L60 57H180L162 90" stroke="#A0522D" stroke-width="6"/>
  <path d="M152 90V145C152 156.046 143.046 165 132 165H108C96.9543 165 88 156.046 88 145V90" stroke="#A0522D" stroke-width="6"/>
  <path d="M115 165V185" stroke="#A0522D" stroke-width="6"/>
  <path d="M125 165V185" stroke="#A0522D" stroke-width="6"/>
  <path d="M105 185H135" stroke="#A0522D" stroke-width="6"/>
  <path d="M93.5 135H147" stroke="#FFFFFF" stroke-width="3"/>
  <path d="M93.5 145H147" stroke="#FFFFFF" stroke-width="3"/>
  <path d="M93.5 125H147" stroke="#FFFFFF" stroke-width="3"/>
  <mask id="mask0_0_1" style="mask-type:alpha" maskUnits="userSpaceOnUse" x="60" y="57" width="120" height="33">
    <path d="M78 90L60 57H180L162 90H78Z" fill="#A0522D"/>
  </mask>
  <g mask="url(#mask0_0_1)">
    <path d="M76 90L58 57H178L160 90" stroke="#FFFFFF" stroke-width="3"/>
    <path d="M30 92H50" stroke="#FFFFFF" stroke-width="3"/>
    <path d="M30 82H50" stroke="#FFFFFF" stroke-width="3"/>
    <path d="M30 72H50" stroke="#FFFFFF" stroke-width="3"/>
    <path d="M30 62H50" stroke="#FFFFFF" stroke-width="3"/>
    <path d="M60 92H80" stroke="#FFFFFF" stroke-width="3"/>
    <path d="M60 82H80" stroke="#FFFFFF" stroke-width="3"/>
    <path d="M60 72H80" stroke="#FFFFFF" stroke-width="3"/>
    <path d="M60 62H80" stroke="#FFFFFF" stroke-width="3"/>
    <path d="M90 92H110" stroke="#FFFFFF" stroke-width="3"/>
    <path d="M90 82H110" stroke="#FFFFFF" stroke-width="3"/>
    <path d="M90 72H110" stroke="#FFFFFF" stroke-width="3"/>
    <path d="M90 62H110" stroke="#FFFFFF" stroke-width="3"/>
    <path d="M120 92H140" stroke="#FFFFFF" stroke-width="3"/>
    <path d="M120 82H140" stroke="#FFFFFF" stroke-width="3"/>
    <path d="M120 72H140" stroke="#FFFFFF" stroke-width="3"/>
    <path d="M120 62H140" stroke="#FFFFFF" stroke-width="3"/>
    <path d="M150 92H170" stroke="#FFFFFF" stroke-width="3"/>
    <path d="M150 82H170" stroke="#FFFFFF" stroke-width="3"/>
    <path d="M150 72H170" stroke="#FFFFFF" stroke-width="3"/>
    <path d="M150 62H170" stroke="#FFFFFF" stroke-width="3"/>
    <path d="M180 92H200" stroke="#FFFFFF" stroke-width="3"/>
    <path d="M180 82H200" stroke="#FFFFFF" stroke-width="3"/>
    <path d="M180 72H200" stroke="#FFFFFF" stroke-width="3"/>
    <path d="M180 62H200" stroke="#FFFFFF" stroke-width="3"/>
    <path d="M210 92H230" stroke="#FFFFFF" stroke-width="3"/>
    <path d="M210 82H230" stroke="#FFFFFF" stroke-width="3"/>
    <path d="M210 72H230" stroke="#FFFFFF" stroke-width="3"/>
    <path d="M210 62H230" stroke="#FFFFFF" stroke-width="3"/>
  </g>
  <path d="M49.2461 184.206L52.0503 170.007H55.6993L51.3505 188.801H48.0071L44.7536 174.739L41.5002 188.801H38.1567L33.8181 170.007H37.4563L40.2147 184.38L43.6202 170.007H45.8761L49.2461 184.206Z" fill="#FFFFFF"/>
  <path d="M57.9355 188.801V170.007H61.4194V177.629H68.2203V170.007H71.7042V188.801H68.2203V180.757H61.4194V188.801H57.9355Z" fill="#FFFFFF"/>
  <path d="M74.6631 188.801V170.007H86.6753V173.082H78.2471V177.835H85.9753V180.91H78.2471V185.727H86.8469V188.801H74.6631Z" fill="#FFFFFF"/>
  <path d="M97.9136 181.522C97.9136 182.48 97.6968 183.352 97.2632 184.14C96.8297 184.927 96.1905 185.555 95.3455 186.023C94.5051 186.491 93.502 186.725 92.3363 186.725C91.4538 186.725 90.6294 186.595 89.8629 186.334C89.1011 186.074 88.4351 185.705 87.865 185.229C87.2995 184.735 86.8752 184.165 86.5919 183.516L89.0986 182.123C89.3147 182.522 89.5947 182.877 89.9382 183.188C90.2862 183.5 90.6866 183.749 91.1392 183.935C91.5963 184.107 92.0765 184.193 92.5797 184.193C93.3136 184.193 93.9273 184.015 94.4209 183.659C94.9191 183.29 95.1681 182.779 95.1681 182.123C95.1681 181.62 95.0196 181.213 94.7226 180.902C94.4256 180.577 94.0371 180.324 93.5568 180.141C93.0812 179.944 92.5644 179.776 92.0063 179.636C91.4483 179.482 90.8948 179.297 90.3459 179.08C89.8016 178.851 89.3055 178.566 88.8574 178.227C88.4139 177.874 88.0637 177.427 87.8067 176.887C87.5497 176.334 87.4212 175.662 87.4212 174.87C87.4212 173.912 87.6356 173.082 88.0645 172.38C88.498 171.665 89.1059 171.115 89.8883 170.73C90.6753 170.332 91.5556 170.133 92.5292 170.133C93.6445 170.133 94.5743 170.338 95.3188 170.749C96.063 171.147 96.6526 171.721 97.0873 172.471L94.6319 173.811C94.3067 173.274 93.8966 172.882 93.4013 172.635C92.9059 172.375 92.3561 172.245 91.7517 172.245C91.1563 172.245 90.6769 172.389 90.3136 172.677C89.9503 172.965 89.7686 173.362 89.7686 173.865C89.7686 174.304 89.9105 174.67 90.194 174.966C90.4822 175.247 90.8585 175.48 91.323 175.662C91.7874 175.832 92.2854 175.983 92.8167 176.113C93.3481 176.232 93.8748 176.39 94.3972 176.586C94.9195 176.77 95.3984 177.028 95.834 177.36C96.2864 177.679 96.6503 178.106 96.9258 178.639C97.2177 179.172 97.3636 180.263 97.9136 181.522Z" fill="#FFFFFF"/>
  <path d="M100.688 188.801V170.007H109.289L107.939 172.725H104.172V179.331H108.658V182.048H104.172V186.057H109.289L107.939 188.801H100.688Z" fill="#FFFFFF"/>
  <path d="M117.958 189.047C116.646 189.047 115.454 188.783 114.378 188.256C113.317 187.715 112.481 186.964 111.871 186.002C111.272 185.026 110.973 183.909 110.973 182.65C110.973 181.363 111.278 180.234 111.886 179.258C112.496 178.282 113.336 177.537 114.406 177.022C115.474 176.495 116.678 176.229 118.013 176.229C119.348 176.229 120.555 176.495 121.629 177.022C122.716 177.537 123.572 178.282 124.196 179.258C124.839 180.234 125.158 181.363 125.158 182.65C125.158 183.909 124.839 185.026 124.196 186.002C123.563 186.964 122.699 187.715 121.604 188.256C120.524 188.783 119.314 189.047 117.958 189.047ZM117.958 186.284C118.644 186.284 119.265 186.128 119.824 185.818C120.394 185.495 120.842 185.051 121.169 184.485C121.508 183.907 121.679 183.247 121.679 182.501C121.679 181.731 121.508 181.077 121.169 180.54C120.842 179.99 120.397 179.564 119.839 179.258C119.281 178.952 118.665 178.802 117.991 178.802C117.318 178.802 116.702 178.952 116.144 179.258C115.598 179.564 115.169 179.99 114.859 180.54C114.561 181.077 114.412 181.731 114.412 182.501C114.412 183.247 114.561 183.907 114.859 184.485C115.169 185.051 115.598 185.495 116.144 185.818C116.702 186.128 117.302 186.284 117.958 186.284Z" fill="#FFFFFF"/>
  <path d="M133.993 189.047C132.68 189.047 131.489 188.783 130.413 188.256C129.351 187.715 128.515 186.964 127.906 186.002C127.307 185.026 127.007 183.909 127.007 182.65C127.007 181.363 127.313 180.234 127.921 179.258C128.531 178.282 129.37 177.537 130.44 177.022C131.509 176.495 132.713 176.229 134.048 176.229C135.383 176.229 136.59 176.495 137.664 177.022C138.751 177.537 139.607 178.282 140.23 179.258C140.873 180.234 141.193 181.363 141.193 182.65C141.193 183.909 140.873 185.026 140.23 186.002C139.598 186.964 138.734 187.715 137.639 188.256C136.559 188.783 135.348 189.047 133.993 189.047ZM133.993 186.284C134.679 186.284 135.3 186.128 135.858 185.818C136.428 185.495 136.877 185.051 137.204 184.485C137.543 183.907 137.713 183.247 137.713 182.501C137.713 181.731 137.543 181.077 137.204 180.54C136.877 179.99 136.431 179.564 135.873 179.258C135.315 178.952 134.7 178.802 134.026 178.802C133.353 178.802 132.737 178.952 132.179 179.258C131.633 179.564 131.204 179.99 130.894 180.54C130.596 181.077 130.447 181.731 130.447 182.501C130.447 183.247 130.596 183.907 130.894 184.485C131.204 185.051 131.633 185.495 132.179 185.818C132.737 186.128 133.337 186.284 133.993 186.284Z" fill="#FFFFFF"/>
  <path d="M149.027 189.047C147.714 189.047 146.522 188.783 145.446 188.256C144.385 187.715 143.549 186.964 142.939 186.002C142.34 185.026 142.041 183.909 142.041 182.65C142.041 181.363 142.346 180.234 142.954 179.258C143.564 178.282 144.404 177.537 145.474 177.022C146.543 176.495 147.746 176.229 149.081 176.229C150.417 176.229 151.623 176.495 152.697 177.022C153.784 177.537 154.64 178.282 155.264 179.258C155.907 180.234 156.226 181.363 156.226 182.65C156.226 183.909 155.907 185.026 155.264 186.002C154.632 186.964 153.767 187.715 152.672 188.256C151.592 188.783 150.381 189.047 149.027 189.047ZM149.027 186.284C149.712 186.284 150.334 186.128 150.892 185.818C151.462 185.495 151.91 185.051 152.237 184.485C152.576 183.907 152.747 183.247 152.747 182.501C152.747 181.731 152.576 181.077 152.237 180.54C151.91 179.99 151.465 179.564 150.907 179.258C150.349 178.952 149.733 178.802 149.059 178.802C148.386 178.802 147.77 178.952 147.212 179.258C146.666 179.564 146.237 179.99 145.927 180.54C145.629 181.077 145.48 181.731 145.48 182.501C145.48 183.247 145.629 183.907 145.927 184.485C146.237 185.051 146.666 185.495 147.212 185.818C147.77 186.128 148.37 186.284 149.027 186.284Z" fill="#FFFFFF"/>
  <path d="M164.092 186.057V176.475H166.405V179.052H171.762V186.057H169.025V181.363H166.405V188.801H159.507V176.475H162.044V186.057H164.092Z" fill="#FFFFFF"/>
  <path d="M179.87 189.047C178.613 189.047 177.445 188.834 176.367 188.41C175.303 187.973 174.386 187.365 173.617 186.583C172.864 185.786 172.306 184.881 171.945 183.869L174.654 182.576C174.908 183.236 175.276 183.825 175.756 184.343C176.252 184.845 176.84 185.242 177.518 185.532C178.197 185.811 178.919 185.95 179.684 185.95C180.567 185.95 181.357 185.786 182.055 185.457C182.764 185.115 183.325 184.643 183.739 184.04C184.163 183.425 184.376 182.713 184.376 181.905C184.376 181.04 184.146 180.301 183.685 179.686C183.24 179.071 182.631 178.6 181.853 178.271C181.091 177.929 180.227 177.758 179.261 177.758C178.63 177.758 177.926 177.851 177.15 178.037C176.379 178.21 175.642 178.462 174.935 178.788L176.434 176C177.029 175.749 177.669 175.543 178.348 175.383C179.042 175.223 179.657 175.143 180.193 175.143C181.703 175.143 183.057 175.44 184.256 176.032C185.472 176.613 186.442 177.427 187.168 178.475C187.91 179.511 188.28 180.719 188.28 182.098C188.28 183.361 187.957 184.481 187.31 185.457C186.667 186.419 185.775 187.183 184.633 187.748C183.505 188.314 182.234 189.047 179.87 189.047Z" fill="#FFFFFF"/>
  <path d="M196.359 189.047C195.203 189.047 194.149 188.778 193.2 188.24C192.255 187.702 191.499 186.947 190.932 185.974C190.381 184.988 190.106 183.859 190.106 182.585C190.106 181.311 190.387 180.187 190.947 179.214C191.511 178.241 192.261 177.486 193.2 176.949C194.149 176.411 195.178 176.143 196.285 176.143C197.404 176.143 198.397 176.411 199.262 176.949C200.141 177.486 200.828 178.241 201.322 179.214C201.83 180.187 202.083 181.311 202.083 182.585C202.083 183.859 201.83 184.988 201.322 185.974C200.828 186.947 200.141 187.702 199.262 188.24C198.383 188.778 197.437 189.047 196.359 189.047ZM196.359 186.284C197.101 186.284 197.755 186.116 198.321 185.778C198.903 185.427 199.359 184.967 199.689 184.396C200.034 183.825 200.207 183.225 200.207 182.585C200.207 181.947 200.034 181.347 199.689 180.79C199.359 180.227 198.909 179.772 198.336 179.422C197.778 179.071 197.144 178.896 196.434 178.896C195.694 178.896 195.04 179.065 194.473 179.402C193.907 179.725 193.457 180.161 193.123 180.707C192.79 181.25 192.623 181.881 192.623 182.585C192.623 183.261 192.79 183.879 193.123 184.436C193.457 184.994 193.894 185.432 194.443 185.753C195.005 186.074 195.639 186.245 196.359 186.284Z" fill="#FFFFFF"/>
  <path d="M210.016 189.047C208.746 189.047 207.6 188.783 206.579 188.256C205.558 187.715 204.747 186.969 204.147 186.016C203.563 185.051 203.27 183.994 203.27 182.846C203.27 181.644 203.563 180.565 204.147 179.611C204.747 178.657 205.555 177.918 206.573 177.391C207.597 176.852 208.746 176.582 210.016 176.582C210.857 176.582 211.661 176.704 212.427 176.949C213.209 177.193 213.884 177.566 214.45 178.066C215.031 178.566 215.425 179.214 215.625 180.01H212.427C212.218 179.598 211.896 179.28 211.464 179.055C211.047 178.818 210.561 178.699 210.01 178.699C209.445 178.699 208.933 178.842 208.474 179.13C208.031 179.402 207.676 179.782 207.41 180.267C207.158 180.745 207.031 181.288 207.031 181.895C207.031 182.516 207.158 183.077 207.41 183.58C207.676 184.071 208.031 184.454 208.474 184.727C208.933 185 209.445 185.137 210.01 185.137C210.338 185.137 210.647 185.082 210.937 184.974C211.236 184.866 211.499 184.711 211.725 184.506C211.95 184.289 212.126 184.027 212.254 183.722H215.523C215.326 184.474 214.969 185.098 214.45 185.599C213.947 186.084 213.314 186.453 212.554 186.698C211.796 186.931 210.953 189.047 210.016 189.047Z" fill="#FFFFFF"/>
  <path d="M217.375 188.801V176.475H220.811V188.801H217.375ZM219.093 174.614C218.488 174.614 218.01 174.449 217.657 174.119C217.305 173.774 217.128 173.321 217.128 172.762C217.128 172.203 217.305 171.759 217.657 171.432C218.01 171.087 218.488 170.915 219.093 170.915C219.699 170.915 220.177 171.082 220.528 171.419C220.881 171.742 221.058 172.18 221.058 172.735C221.058 173.307 220.881 173.774 220.528 174.119C220.177 174.449 219.699 174.614 219.093 174.614Z" fill="#FFFFFF"/>
  <path d="M229.493 189.047C228.185 189.047 227.004 188.783 225.949 188.256C224.908 187.715 224.088 186.969 223.486 186.016C222.898 185.051 222.603 183.952 222.603 182.716C222.603 181.48 222.898 180.389 223.486 179.437C224.088 178.472 224.902 177.719 225.925 177.178C226.963 176.636 228.13 176.366 229.428 176.366C230.725 176.366 231.893 176.636 232.932 177.178C233.984 177.719 234.812 178.472 235.414 179.437C236.015 180.389 236.316 181.48 236.316 182.716C236.316 183.952 236.015 185.051 235.414 186.016C234.826 186.969 234.02 187.715 232.994 188.256C231.969 188.783 230.802 189.047 229.493 189.047ZM229.493 186.284C230.151 186.284 230.745 186.128 231.273 185.818C231.815 185.495 232.242 185.051 232.553 184.485C232.879 183.907 233.043 183.247 233.043 182.501C233.043 181.731 232.879 181.077 232.553 180.54C232.242 179.99 231.815 179.564 231.273 179.258C230.745 178.952 230.151 178.802 229.493 178.802C228.835 178.802 228.241 178.952 227.713 179.258C227.185 179.564 226.765 179.99 226.454 180.54C226.143 181.077 225.988 181.731 225.988 182.501C225.988 183.247 226.143 183.907 226.454 184.485C226.765 185.051 227.185 185.495 227.713 185.818C228.241 186.128 228.835 186.284 229.493 186.284Z" fill="#FFFFFF"/>
  <path d="M238.027 188.801V176.475H241.464V188.801H238.027ZM239.746 174.614C239.14 174.614 238.662 174.449 238.309 174.119C237.957 173.774 237.781 173.321 237.781 172.762C237.781 172.203 237.957 171.759 238.309 171.432C238.662 171.087 239.14 170.915 239.746 170.915C240.351 170.915 240.829 171.082 241.18 171.419C241.533 171.742 241.71 172.18 241.71 172.735C241.71 173.307 241.533 173.774 241.18 174.119C240.829 174.449 240.351 174.614 239.746 174.614Z" fill="#FFFFFF"/>
  <path d="M249.929 186.057V176.475H252.242V179.052H257.598V186.057H254.861V181.363H252.242V188.801H245.344V176.475H247.881V186.057H249.929Z" fill="#FFFFFF"/>
  <path d="M265.707 189.047C264.45 189.047 263.282 188.834 262.203 188.41C261.139 187.973 260.222 187.365 259.453 186.583C258.701 185.786 258.142 184.881 257.782 183.869L260.491 182.576C260.744 183.236 261.113 183.825 261.593 184.343C262.088 184.845 262.676 185.242 263.354 185.532C264.033 185.811 264.755 185.95 265.52 185.95C266.404 185.95 267.193 185.786 267.891 185.457C268.6 185.115 269.162 184.643 269.575 184.04C270 183.425 270.212 182.713 270.212 181.905C270.212 181.04 269.982 180.301 269.521 179.686C269.076 179.071 268.467 178.6 267.689 178.271C266.927 177.929 266.064 177.758 265.097 177.758C264.467 177.758 263.763 177.851 262.986 178.037C262.215 178.21 261.478 178.462 260.771 178.788L262.27 176C262.865 175.749 263.505 175.543 264.184 175.383C264.878 175.223 265.493 175.143 266.029 175.143C267.539 175.143 268.893 175.44 270.092 176.032C271.308 176.613 272.278 177.427 273.004 178.475C273.746 179.511 274.117 180.719 274.117 182.098C274.117 183.361 273.793 184.481 273.146 185.457C272.503 186.419 271.611 187.183 270.469 187.748C269.341 188.314 267.97 189.047 265.707 189.047Z" fill="#FFFFFF"/>
  <circle cx="120" cy="120" r="110" stroke="#FFFFFF" stroke-width="3"/>
</svg>