<?xml version="1.0" encoding="UTF-8"?>
<svg xmlns="http://www.w3.org/2000/svg" width="240" height="240" viewBox="0 0 240 240" fill="none">
  <circle cx="120" cy="120" r="110" fill="#0D4C92"/>
  <path d="M65 90 L120 65 L175 90 V140 C175 165 150 180 120 180 C90 180 65 165 65 140 V90Z" fill="#FFFFFF"/>
  <path d="M85 100 L120 80 L155 100 V135 C155 155 140 165 120 165 C100 165 85 155 85 135 V100Z" fill="#0D4C92"/>
  <path d="M105 90 L120 80 L135 90 V110 C135 125 128 130 120 130 C112 130 105 125 105 110 V90Z" fill="#FFFFFF"/>
  <path d="M110 100 L120 95 L130 100 V110 C130 118 125 120 120 120 C115 120 110 118 110 110 V100Z" fill="#0D4C92"/>
  <path d="M70 140 H170" stroke="#FFFFFF" stroke-width="6"/>
  <path d="M80 150 H160" stroke="#FFFFFF" stroke-width="4"/>
  <path d="M90 160 H150" stroke="#FFFFFF" stroke-width="3"/>
  <path d="M42.6602 170.284L45.4644 156.085H49.1133L44.7646 174.879H41.4211L38.1676 160.817L34.9142 174.879H31.5707L27.232 156.085H30.8702L33.6287 170.459L37.0341 156.085H39.29L42.6602 170.284Z" fill="#FFFFFF"/>
  <path d="M62.2153 170.535C61.9446 171.51 61.4055 172.261 60.6035 172.789C59.801 173.304 58.8489 173.562 57.7476 173.562C56.9661 173.562 56.247 173.414 55.5875 173.118C54.9281 172.822 54.3509 172.399 53.8538 171.849C53.3718 171.299 52.9911 170.639 52.7153 169.87C52.4525 169.088 52.321 168.23 52.321 167.296C52.321 166.419 52.455 165.618 52.7242 164.891C52.9929 164.151 53.3681 163.514 53.8501 162.982C54.3472 162.45 54.9244 162.04 55.5835 161.753C56.2428 161.465 56.9463 161.321 57.6949 161.321C58.7817 161.321 59.7257 161.572 60.5237 162.075C61.3365 162.563 61.9298 163.292 62.3071 164.262L59.3176 165.374C59.198 164.906 58.9795 164.546 58.6617 164.296C58.3592 164.033 57.9711 163.901 57.4979 163.901C56.8031 163.901 56.2428 164.168 55.8169 164.702C55.4015 165.237 55.1938 166.044 55.1938 167.124C55.1938 168.216 55.3943 169.037 55.7954 169.588C56.1968 170.14 56.742 170.416 57.4295 170.416C58.2999 170.416 58.8869 169.954 59.1973 169.032L62.2153 170.535Z" fill="#FFFFFF"/>
  <path d="M73.5327 174.879L68.0406 166.905H67.0444V174.879H63.2617V156.085H70.1274C71.5102 156.085 72.693 156.356 73.6776 156.899C74.6765 157.442 75.4248 158.18 75.9216 159.114C76.4187 160.036 76.6673 161.085 76.6673 162.258C76.6673 163.595 76.3005 164.78 75.567 165.813C74.8477 166.847 73.7637 167.57 72.3156 167.982L78.2383 174.879H73.5327ZM67.0444 164.196H70.0193C71.0804 164.196 71.885 163.936 72.4331 163.416C72.9812 162.895 73.2563 162.163 73.2563 161.218C73.2563 160.307 72.9951 159.595 72.4727 159.084C71.9504 158.572 71.1585 158.316 70.097 158.316H67.0444V164.196Z" fill="#FFFFFF"/>
  <path d="M89.5405 167.035C89.5405 167.87 89.2957 168.638 88.8059 169.341C88.3164 170.032 87.6233 170.583 86.7266 170.994C85.8438 171.393 84.869 171.592 83.8025 171.592H81.1953V174.879H77.4126V156.085H83.8025C84.8827 156.085 85.8538 156.287 86.7151 156.693C87.5764 157.086 88.2622 157.631 88.7722 158.325C89.2844 159.019 89.5405 159.827 89.5405 160.748C89.5405 161.555 89.3457 162.261 88.956 162.867C88.5667 163.46 88.0322 163.934 87.3521 164.287C88.1651 164.592 88.8164 165.094 89.3062 165.791C89.7957 166.485 89.5405 167.035 89.5405 167.035ZM81.1953 159.248V162.372H83.4951C84.0752 162.372 84.5276 162.222 84.8528 161.921C85.1778 161.607 85.3405 161.182 85.3405 160.646C85.3405 160.11 85.1778 159.693 84.8528 159.391C84.5397 159.089 84.0949 158.938 83.5171 158.938H81.1953V159.248ZM81.1953 164.972V168.477H83.9688C84.5371 168.477 84.9834 168.322 85.3086 168.011C85.6467 167.688 85.8159 167.249 85.8159 166.695C85.8159 166.127 85.6397 165.68 85.2876 165.352C84.9487 165.012 84.4824 164.842 83.8789 164.842L81.1953 164.972Z" fill="#FFFFFF"/>
  <path d="M106.204 168.079C106.204 169.368 105.864 170.516 105.186 171.524C104.508 172.532 103.553 173.316 102.324 173.875C101.096 174.422 99.7148 174.695 98.1855 174.695C96.6692 174.695 95.2916 174.422 94.0527 173.875C92.8268 173.316 91.8716 172.532 91.1875 171.524C90.5161 170.516 90.1802 169.368 90.1802 168.079C90.1802 166.79 90.5161 165.642 91.1875 164.634C91.8716 163.626 92.8268 162.846 94.0527 162.287C95.2916 161.728 96.6692 161.448 98.1855 161.448C99.7148 161.448 101.096 161.728 102.324 162.287C103.553 162.846 104.508 163.626 105.186 164.634C105.864 165.642 106.204 166.79 106.204 168.079ZM102.21 168.079C102.21 167.367 102.044 166.751 101.713 166.233C101.383 165.703 100.932 165.297 100.36 165.016C99.8011 164.736 99.1589 164.595 98.4355 164.595C97.7245 164.595 97.0825 164.736 96.5107 165.016C95.9512 165.297 95.5034 165.703 95.1675 166.233C94.8442 166.751 94.6826 167.367 94.6826 168.079C94.6826 168.791 94.8442 169.41 95.1675 169.939C95.5034 170.458 95.9512 170.86 96.5107 171.141C97.0825 171.41 97.7245 171.545 98.4355 171.545C99.1589 171.545 99.8011 171.41 100.36 171.141C100.932 170.86 101.383 170.458 101.713 169.939C102.044 169.41 102.21 168.791 102.21 168.079Z" fill="#FFFFFF"/>
  <path d="M118.396 156.085V159.16H112.913V174.879H109.429V159.16H103.947V156.085H118.396Z" fill="#FFFFFF"/>
  <path d="M124.673 174.879V156.085H136.685V159.16H128.257V163.913H135.985V166.988H128.257V171.805H136.856V174.879H124.673Z" fill="#FFFFFF"/>
  <path d="M146.771 170.284L149.576 156.085H153.224L148.876 174.879H145.532L142.279 160.817L139.025 174.879H135.682L131.343 156.085H134.981L137.74 170.459L141.145 156.085H143.401L146.771 170.284Z" fill="#FFFFFF"/>
  <path d="M153.611 167.372C153.611 164.77 154.229 162.764 155.467 161.356C156.716 159.947 158.446 159.243 160.657 159.243C161.681 159.243 162.605 159.43 163.427 159.804C164.25 160.178 164.88 160.671 165.318 161.282V159.458H167.841V174.879H165.318V173.055C164.88 173.677 164.242 174.178 163.406 174.559C162.581 174.939 161.662 175.13 160.649 175.13C158.462 175.13 156.739 174.421 155.479 173.003C154.233 171.583 153.611 169.554 153.611 166.988V167.372ZM165.318 168.079C165.318 166.421 164.927 165.11 164.147 164.148C163.367 163.187 162.328 162.706 161.03 162.706C159.732 162.706 158.685 163.176 157.891 164.114C157.108 165.051 156.716 166.354 156.716 168.022C156.716 169.7 157.108 171.015 157.891 171.965C158.674 172.915 159.72 173.389 161.03 173.389C162.34 173.389 163.383 172.919 164.158 171.98C164.932 171.03 165.318 169.737 165.318 168.079Z" fill="#FFFFFF"/>
  <path d="M180.254 169.781C180.254 170.607 180.009 171.349 179.521 172.008C179.048 172.654 178.376 173.17 177.506 173.557C176.637 173.932 175.621 174.119 174.458 174.119H168.775V155.766H175.062C176.029 155.766 176.884 155.944 177.631 156.303C178.39 156.662 178.982 157.158 179.406 157.793C179.83 158.427 180.042 159.139 180.042 159.925C180.042 160.815 179.779 161.559 179.254 162.156C178.743 162.74 178.064 163.15 177.216 163.387C178.202 163.573 178.988 163.992 179.576 164.642C180.164 165.292 180.462 166.143 180.462 167.196C180.462 167.935 180.349 168.62 180.123 169.254C179.91 169.875 180.254 169.781 180.254 169.781ZM172.52 162.918H174.825C175.55 162.918 176.114 162.74 176.514 162.384C176.928 162.027 177.135 161.519 177.135 160.855C177.135 160.216 176.928 159.72 176.514 159.364C176.1 159.008 175.525 158.83 174.785 158.83H172.52V162.918ZM172.52 171.056H175.042C175.938 171.056 176.611 170.845 177.062 170.425C177.527 170.005 177.76 169.423 177.76 168.679C177.76 167.962 177.52 167.407 177.041 167.013C176.562 166.618 175.874 166.421 174.979 166.421H172.52V171.056Z" fill="#FFFFFF"/>
  <path d="M192.755 161.728C194.057 161.728 195.254 161.99 196.342 162.514C197.443 163.039 198.318 163.78 198.969 164.741C199.618 165.69 199.943 166.793 199.943 168.048C199.943 169.303 199.618 170.412 198.969 171.373C198.318 172.32 197.443 173.062 196.342 173.599C195.254 174.124 194.057 174.385 192.755 174.385C191.452 174.385 190.254 174.124 189.166 173.599C188.078 173.062 187.208 172.32 186.557 171.373C185.907 170.412 185.582 169.303 185.582 168.048C185.582 166.793 185.907 165.69 186.557 164.741C187.208 163.78 188.078 163.039 189.166 162.514C190.254 161.99 191.452 161.728 192.755 161.728ZM192.755 164.511C192.029 164.511 191.363 164.673 190.757 164.995C190.164 165.318 189.693 165.765 189.339 166.335C188.998 166.892 188.828 167.424 188.828 168.229C188.828 168.934 188.998 169.559 189.339 170.103C189.693 170.647 190.164 171.079 190.757 171.402C191.363 171.724 192.029 171.885 192.755 171.885C193.48 171.885 194.146 171.724 194.752 171.402C195.359 171.079 195.834 170.647 196.175 170.103C196.528 169.559 196.705 168.934 196.705 168.229C196.705 167.524 196.528 166.892 196.175 166.335C195.834 165.765 195.359 165.318 194.752 164.995C194.146 164.673 193.48 164.511 192.755 164.511Z" fill="#FFFFFF"/>
  <path d="M213.438 174.879L207.946 166.905H206.95V174.879H203.167V156.085H210.033C211.416 156.085 212.599 156.356 213.583 156.899C214.583 157.442 215.331 158.18 215.828 159.114C216.325 160.036 216.573 161.085 216.573 162.258C216.573 163.595 216.207 164.78 215.473 165.813C214.754 166.847 213.67 167.57 212.221 167.982L218.144 174.879H213.438ZM206.95 164.196H209.924C210.986 164.196 211.79 163.936 212.339 163.416C212.887 162.895 213.162 162.163 213.162 161.218C213.162 160.307 212.901 159.595 212.378 159.084C211.856 158.572 211.064 158.316 210.002 158.316H206.95V164.196Z" fill="#FFFFFF"/>
  <path d="M227.094 161.728C228.396 161.728 229.594 161.99 230.682 162.514C231.783 163.039 232.658 163.78 233.308 164.741C233.958 165.69 234.283 166.793 234.283 168.048C234.283 169.303 233.958 170.412 233.308 171.373C232.658 172.32 231.783 173.062 230.682 173.599C229.594 174.124 228.396 174.385 227.094 174.385C225.792 174.385 224.594 174.124 223.506 173.599C222.418 173.062 221.547 172.32 220.897 171.373C220.246 170.412 219.922 169.303 219.922 168.048C219.922 166.793 220.246 165.69 220.897 164.741C221.547 163.78 222.418 163.039 223.506 162.514C224.594 161.99 225.792 161.728 227.094 161.728ZM227.094 164.511C226.368 164.511 225.703 164.673 225.096 164.995C224.504 165.318 224.032 165.765 223.678 166.335C223.338 166.892 223.168 167.424 223.168 168.229C223.168 168.934 223.338 169.559 223.678 170.103C224.032 170.647 224.504 171.079 225.096 171.402C225.703 171.724 226.368 171.885 227.094 171.885C227.82 171.885 228.485 171.724 229.092 171.402C229.698 171.079 230.174 170.647 230.514 170.103C230.868 169.559 231.044 168.934 231.044 168.229C231.044 167.524 230.868 166.892 230.514 166.335C230.174 165.765 229.698 165.318 229.092 164.995C228.485 164.673 227.82 164.511 227.094 164.511Z" fill="#FFFFFF"/>
  <path d="M235.293 174.879V156.085H242.903C244.286 156.085 245.469 156.356 246.454 156.899C247.453 157.442 248.202 158.18 248.699 159.114C249.196 160.036 249.444 161.085 249.444 162.258C249.444 163.431 249.196 164.48 248.699 165.402C248.202 166.324 247.453 167.059 246.454 167.602C245.469 168.134 244.286 168.399 242.903 168.399H239.076V174.879H235.293ZM239.076 165.374H242.69C243.751 165.374 244.564 165.108 245.127 164.575C245.691 164.03 245.973 163.249 245.973 162.232C245.973 161.214 245.691 160.438 245.127 159.904C244.564 159.359 243.751 159.087 242.69 159.087H239.076V165.374Z" fill="#FFFFFF"/>
  <path d="M255.713 170.535C255.442 171.51 254.903 172.261 254.101 172.789C253.298 173.304 252.347 173.562 251.245 173.562C250.464 173.562 249.745 173.414 249.086 173.118C248.426 172.822 247.849 172.399 247.352 171.849C246.87 171.299 246.489 170.639 246.214 169.87C245.951 169.088 245.819 168.23 245.819 167.296C245.819 166.419 245.953 165.618 246.223 164.891C246.491 164.151 246.867 163.514 247.347 162.982C247.845 162.45 248.422 162.04 249.081 161.753C249.74 161.465 250.445 161.321 251.193 161.321C252.281 161.321 253.225 161.572 254.022 162.075C254.834 162.563 255.428 163.292 255.806 164.262L252.815 165.374C252.697 164.906 252.477 164.546 252.16 164.296C251.858 164.033 251.468 163.901 250.996 163.901C250.301 163.901 249.74 164.168 249.313 164.702C248.9 165.237 248.693 166.044 248.693 167.124C248.693 168.216 248.894 169.037 249.295 169.588C249.698 170.14 250.243 170.416 250.93 170.416C251.8 170.416 252.387 169.954 252.695 169.032L255.713 170.535Z" fill="#FFFFFF"/>
  <path d="M258.311 174.879V156.085H262.095V174.879H258.311Z" fill="#FFFFFF"/>
  <path d="M275.835 170.535C275.564 171.51 275.025 172.261 274.223 172.789C273.42 173.304 272.469 173.562 271.367 173.562C270.586 173.562 269.868 173.414 269.208 173.118C268.549 172.822 267.972 172.399 267.474 171.849C266.992 171.299 266.611 170.639 266.336 169.87C266.073 169.088 265.941 168.23 265.941 167.296C265.941 166.419 266.076 165.618 266.345 164.891C266.614 164.151 266.989 163.514 267.47 162.982C267.967 162.45 268.544 162.04 269.203 161.753C269.862 161.465 270.567 161.321 271.315 161.321C272.403 161.321 273.347 161.572 274.145 162.075C274.956 162.563 275.55 163.292 275.928 164.262L272.938 165.374C272.819 164.906 272.599 164.546 272.282 164.296C271.979 164.033 271.59 163.901 271.118 163.901C270.423 163.901 269.862 164.168 269.436 164.702C269.022 165.237 268.815 166.044 268.815 167.124C268.815 168.216 269.016 169.037 269.418 169.588C269.82 170.14 270.365 170.416 271.052 170.416C271.922 170.416 272.509 169.954 272.817 169.032L275.835 170.535Z" fill="#FFFFFF"/>
  <path d="M287.396 174.879V156.085H291.179V171.804H299.15V174.879H287.396Z" fill="#FFFFFF"/>
  <path d="M301.338 174.879V156.085H305.121V174.879H301.338Z" fill="#FFFFFF"/>
  <path d="M315.271 161.728C316.574 161.728 317.771 161.99 318.859 162.514C319.96 163.039 320.835 163.78 321.485 164.741C322.135 165.69 322.46 166.793 322.46 168.048C322.46 169.303 322.135 170.412 321.485 171.373C320.835 172.32 319.96 173.062 318.859 173.599C317.771 174.124 316.574 174.385 315.271 174.385C313.969 174.385 312.771 174.124 311.683 173.599C310.595 173.062 309.725 172.32 309.074 171.373C308.424 170.412 308.099 169.303 308.099 168.048C308.099 166.793 308.424 165.69 309.074 164.741C309.725 163.78 310.595 163.039 311.683 162.514C312.771 161.99 313.969 161.728 315.271 161.728ZM315.271 164.511C314.546 164.511 313.88 164.673 313.273 164.995C312.681 165.318 312.209 165.765 311.855 166.335C311.515 166.892 311.345 167.424 311.345 168.229C311.345 168.934 311.515 169.559 311.855 170.103C312.209 170.647 312.681 171.079 313.273 171.402C313.88 171.724 314.546 171.885 315.271 171.885C315.997 171.885 316.662 171.724 317.269 171.402C317.876 171.079 318.351 170.647 318.691 170.103C319.045 169.559 319.221 168.934 319.221 168.229C319.221 167.524 319.045 166.892 318.691 166.335C318.351 165.765 317.876 165.318 317.269 164.995C316.662 164.673 315.997 164.511 315.271 164.511Z" fill="#FFFFFF"/>
  <path d="M335.953 174.879L330.461 166.905H329.465V174.879H325.682V156.085H332.548C333.931 156.085 335.114 156.356 336.098 156.899C337.098 157.442 337.847 158.18 338.343 159.114C338.84 160.036 339.089 161.085 339.089 162.258C339.089 163.595 338.722 164.78 337.988 165.813C337.269 166.847 336.185 167.57 334.737 167.982L340.66 174.879H335.953ZM329.465 164.196H332.44C333.501 164.196 334.305 163.936 334.854 163.416C335.402 162.895 335.677 162.163 335.677 161.218C335.677 160.307 335.416 159.595 334.894 159.084C334.371 158.572 333.58 158.316 332.518 158.316H329.465V164.196Z" fill="#FFFFFF"/>
  <path d="M349.61 170.535C349.339 171.51 348.8 172.261 347.997 172.789C347.195 173.304 346.243 173.562 345.142 173.562C344.361 173.562 343.643 173.414 342.983 173.118C342.324 172.822 341.747 172.399 341.249 171.849C340.767 171.299 340.386 170.639 340.111 169.87C339.848 169.088 339.716 168.23 339.716 167.296C339.716 166.419 339.851 165.618 340.12 164.891C340.389 164.151 340.764 163.514 341.245 162.982C341.742 162.45 342.319 162.04 342.978 161.753C343.637 161.465 344.342 161.321 345.09 161.321C346.178 161.321 347.122 161.572 347.92 162.075C348.731 162.563 349.325 163.292 349.703 164.262L346.713 165.374C346.594 164.906 346.374 164.546 346.057 164.296C345.754 164.033 345.365 163.901 344.893 163.901C344.198 163.901 343.637 164.168 343.211 164.702C342.797 165.237 342.59 166.044 342.59 167.124C342.59 168.216 342.791 169.037 343.193 169.588C343.595 170.14 344.14 170.416 344.827 170.416C345.697 170.416 346.284 169.954 346.592 169.032L349.61 170.535Z" fill="#FFFFFF"/>
  <circle cx="120" cy="120" r="110" stroke="#FFFFFF" stroke-width="4"/>  
</svg>