<?xml version="1.0" encoding="UTF-8"?>
<svg xmlns="http://www.w3.org/2000/svg" width="240" height="240" viewBox="0 0 240 240" fill="none">
  <circle cx="120" cy="120" r="110" fill="#13294B"/>
  <path d="M36 120C36 73.6081 73.6081 36 120 36C166.392 36 204 73.6081 204 120" stroke="white" stroke-width="8"/>
  <path d="M142.889 140.556C142.889 152.981 132.87 163 120.444 163C108.019 163 98 152.981 98 140.556C98 128.13 108.019 118.111 120.444 118.111C132.87 118.111 142.889 128.13 142.889 140.556Z" fill="#C8102E" stroke="white" stroke-width="2"/>
  <path d="M120 85.1111L137.716 117.111H102.284L120 85.1111Z" fill="#C8102E" stroke="white" stroke-width="2"/>
  <path d="M49.1562 69.9209L72.5414 112.667C72.8396 113.178 73.4922 113.346 74.0033 113.047L116.75 89.6623C117.261 89.3642 117.429 88.7116 117.13 88.2004L93.7453 45.454C93.4471 44.9429 92.7945 44.7748 92.2834 45.073L49.5369 68.458C49.0258 68.7562 48.8577 69.4088 49.1562 69.9209Z" fill="#FFFFFF"/>
  <path d="M49.1562 170.079L72.5414 127.333C72.8396 126.822 73.4922 126.654 74.0033 126.953L116.75 150.338C117.261 150.636 117.429 151.288 117.13 151.8L93.7453 194.546C93.4471 195.057 92.7945 195.225 92.2834 194.927L49.5369 171.542C49.0258 171.244 48.8577 170.591 49.1562 170.079Z" fill="#FFFFFF"/>
  <path d="M190.844 69.9209L167.459 112.667C167.16 113.178 166.508 113.346 165.997 113.047L123.25 89.6623C122.739 89.3642 122.571 88.7116 122.87 88.2004L146.255 45.454C146.553 44.9429 147.205 44.7748 147.717 45.073L190.463 68.458C190.974 68.7562 191.142 69.4088 190.844 69.9209Z" fill="#FFFFFF"/>
  <path d="M190.844 170.079L167.459 127.333C167.16 126.822 166.508 126.654 165.997 126.953L123.25 150.338C122.739 150.636 122.571 151.288 122.87 151.8L146.255 194.546C146.553 195.057 147.205 195.225 147.717 194.927L190.463 171.542C190.974 171.244 191.142 170.591 190.844 170.079Z" fill="#FFFFFF"/>
  <path d="M60 120H46.6667C44.0893 120 42 118.209 42 116C42 113.791 44.0893 112 46.6667 112H60C62.5774 112 64.6667 113.791 64.6667 116C64.6667 118.209 62.5774 120 60 120Z" fill="#C8102E"/>
  <path d="M180 120H193.333C195.911 120 198 118.209 198 116C198 113.791 195.911 112 193.333 112H180C177.423 112 175.333 113.791 175.333 116C175.333 118.209 177.423 120 180 120Z" fill="#C8102E"/>
  <path d="M114.889 188.556H125.556C128.133 188.556 130.222 190.347 130.222 192.556C130.222 194.765 128.133 196.556 125.556 196.556H114.889C112.311 196.556 110.222 194.765 110.222 192.556C110.222 190.347 112.311 188.556 114.889 188.556Z" fill="#C8102E"/>
  <path d="M38 155.528L144.417 158.528L196.472 98.912L184.056 89.3323L38 155.528Z" fill="#13294B"/>
  <path d="M168.375 135.389C167.312 135.389 166.335 135.182 165.444 134.769C164.553 134.338 163.817 133.759 163.236 133.032C162.673 132.306 162.311 131.476 162.152 130.544L164.745 130.141C164.904 130.554 165.168 130.966 165.538 131.379C165.927 131.774 166.405 132.095 166.974 132.34C167.543 132.568 168.17 132.682 168.857 132.682C169.615 132.682 170.307 132.54 170.931 132.255C171.555 131.953 172.05 131.525 172.416 130.97C172.783 130.414 172.966 129.766 172.966 129.024C172.966 128.281 172.783 127.642 172.416 127.104C172.05 126.565 171.555 126.152 170.931 125.868C170.307 125.584 169.615 125.441 168.857 125.441C168.334 125.441 167.753 125.539 167.113 125.734C166.474 125.93 165.927 126.201 165.473 126.548L163.106 125.171L164.809 117.303H173.838V120.035H167.35L166.456 124.008C166.844 123.859 167.29 123.735 167.792 123.638C168.294 123.523 168.787 123.465 169.271 123.465C170.415 123.465 171.442 123.709 172.35 124.197C173.277 124.685 174.006 125.366 174.538 126.24C175.089 127.097 175.364 128.087 175.364 129.211C175.364 130.406 175.046 131.445 174.409 132.329C173.771 133.213 172.923 133.902 171.866 134.397C170.809 135.058 169.648 135.389 168.375 135.389ZM156.142 135.219C154.983 135.219 153.941 134.975 153.014 134.486C152.088 133.998 151.357 133.334 150.825 132.497C150.292 131.64 150.026 130.684 150.026 129.628C150.026 128.971 150.133 128.353 150.345 127.775C150.575 127.177 150.91 126.665 151.35 126.24C151.79 125.814 152.3 125.5 152.88 125.296C152.194 124.995 151.622 124.591 151.163 124.086C150.704 123.581 150.365 123.019 150.145 122.399C149.942 121.761 149.84 121.124 149.84 120.488C149.84 119.529 150.084 118.669 150.574 117.905C151.082 117.142 151.77 116.54 152.638 116.1C153.524 115.66 154.51 115.439 155.595 115.439C156.699 115.439 157.684 115.66 158.552 116.1C159.42 116.54 160.097 117.142 160.586 117.905C161.094 118.669 161.349 119.525 161.349 120.475C161.349 121.131 161.247 121.778 161.044 122.417C160.841 123.037 160.512 123.599 160.053 124.104C159.594 124.61 159.011 125.013 158.307 125.314C158.905 125.519 159.411 125.834 159.827 126.259C160.26 126.685 160.587 127.186 160.809 127.765C161.048 128.344 161.167 128.966 161.167 129.628C161.167 130.684 160.901 131.644 160.369 132.506C159.836 133.348 159.105 134.016 158.178 134.509C157.252 134.983 156.21 135.219 156.142 135.219ZM156.129 122.878C156.834 122.878 157.436 122.651 157.938 122.195C158.458 121.741 158.718 121.118 158.718 120.327C158.718 119.528 158.458 118.905 157.938 118.459C157.436 117.994 156.834 117.762 156.129 117.762C155.445 117.762 154.842 117.994 154.322 118.459C153.802 118.905 153.542 119.528 153.542 120.327C153.542 121.118 153.802 121.741 154.322 122.195C154.842 122.651 155.445 122.878 156.129 122.878ZM156.142 132.955C156.898 132.955 157.532 132.7 158.044 132.191C158.575 131.681 158.84 131.018 158.84 130.202C158.84 129.359 158.575 128.687 158.044 128.186C157.532 127.676 156.898 127.421 156.142 127.421C155.387 127.421 154.748 127.676 154.225 128.186C153.702 128.687 153.446 129.359 153.446 130.202C153.446 131.018 153.702 131.681 154.225 132.191C154.748 132.7 155.387 132.955 156.142 132.955ZM141.5 135.219C140.426 135.219 139.435 134.975 138.526 134.486C137.636 133.998 136.93 133.334 136.409 132.497C135.886 131.64 135.625 130.684 135.625 129.628C135.625 128.925 135.736 128.264 135.957 127.643C136.179 127.023 136.524 126.461 136.991 125.956C137.459 125.45 138.062 125.047 138.8 124.745C138.131 124.433 137.559 124.025 137.083 123.519C136.607 123.014 136.249 122.449 136.01 121.829C135.789 121.19 135.678 120.544 135.678 119.891C135.678 118.914 135.922 118.05 136.412 117.303C136.92 116.557 137.613 115.968 138.49 115.538C139.385 115.107 140.388 114.891 141.5 114.891C142.613 114.891 143.607 115.107 144.484 115.538C145.379 115.968 146.08 116.557 146.588 117.303C147.096 118.05 147.35 118.914 147.35 119.891C147.35 120.544 147.229 121.19 146.99 121.829C146.769 122.449 146.411 123.014 145.918 123.519C145.441 124.025 144.869 124.433 144.2 124.745C144.957 125.047 145.56 125.45 146.009 125.956C146.476 126.461 146.821 127.023 147.043 127.643C147.265 128.264 147.375 128.925 147.375 129.628C147.375 130.684 147.115 131.644 146.591 132.506C146.068 133.348 145.354 134.016 144.446 134.509C143.555 134.983 142.574 135.219 141.5 135.219ZM141.5 132.955C142.256 132.955 142.894 132.7 143.416 132.191C143.939 131.681 144.2 131.018 144.2 130.202C144.2 129.359 143.939 128.687 143.416 128.186C142.894 127.676 142.256 127.421 141.5 127.421C140.744 127.421 140.106 127.676 139.584 128.186C139.061 128.687 138.8 129.359 138.8 130.202C138.8 131.018 139.061 131.681 139.584 132.191C140.106 132.7 140.744 132.955 141.5 132.955ZM141.5 125.094C142.186 125.094 142.784 124.866 143.294 124.411C143.805 123.956 144.061 123.333 144.061 122.543C144.061 121.744 143.805 121.121 143.294 120.675C142.784 120.211 142.186 119.978 141.5 119.978C140.833 119.978 140.243 120.211 139.732 120.675C139.22 121.121 138.965 121.744 138.965 122.543C138.965 123.333 139.22 123.956 139.732 124.411C140.243 124.866 140.833 125.094 141.5 125.094ZM126.229 135V114.891H134.25L132.9 117.609H129.259V124.093H132.875L131.525 126.839H129.259V135H126.229ZM117.549 135V121.263H115.236V118.687H120.592V135H117.549ZM117.953 116.048C117.348 116.048 116.87 115.883 116.517 115.553C116.164 115.208 115.988 114.755 115.988 114.196C115.988 113.637 116.164 113.193 116.517 112.866C116.87 112.521 117.348 112.348 117.953 112.348C118.559 112.348 119.037 112.516 119.388 112.853C119.741 113.176 119.918 113.614 119.918 114.169C119.918 114.741 119.741 115.208 119.388 115.553C119.037 115.883 118.559 116.048 117.953 116.048ZM104.635 135V121.263H102.322V118.687H107.678V135H104.635ZM105.039 116.048C104.434 116.048 103.956 115.883 103.603 115.553C103.251 115.208 103.074 114.755 103.074 114.196C103.074 113.637 103.251 113.193 103.603 112.866C103.956 112.521 104.434 112.348 105.039 112.348C105.645 112.348 106.123 112.516 106.474 112.853C106.827 113.176 107.004 113.614 107.004 114.169C107.004 114.741 106.827 115.208 106.474 115.553C106.123 115.883 105.645 116.048 105.039 116.048ZM97.8462 135.219C96.3804 135.219 95.1245 134.873 94.0785 134.182C93.0325 133.471 92.225 132.506 91.6561 131.288C91.1037 130.071 90.8275 128.687 90.8275 127.138V122.979C90.8275 121.431 91.1003 120.055 91.6458 118.852C92.1913 117.631 92.9951 116.679 94.0575 115.998C95.1199 115.298 96.3925 114.947 97.8753 114.947C99.2799 114.947 100.507 115.248 101.553 115.851C102.6 116.436 103.416 117.245 104.002 118.277C104.588 119.309 104.886 120.493 104.895 121.829H101.839C101.822 121.028 101.619 120.308 101.23 119.668C100.841 119.012 100.308 118.499 99.6307 118.127C98.9533 117.739 98.1681 117.544 97.275 117.544C96.1678 117.544 95.2335 117.788 94.4719 118.277C93.7103 118.747 93.1345 119.411 92.7448 120.268C92.355 121.125 92.1602 122.092 92.1602 123.167V126.95C92.1602 128.07 92.3619 129.066 92.7653 129.937C93.1852 130.808 93.7859 131.49 94.5675 131.979C95.3491 132.468 96.2867 132.712 97.3805 132.712C99.0535 132.712 100.327 132.165 101.202 131.069C102.094 129.974 102.545 128.526 102.555 126.726V125.552L102.603 125.04H97.5585V122.514H105.453V124.784C105.453 127.064 104.93 128.917 103.883 130.346C102.853 131.774 101.368 132.775 99.4292 133.349C98.6209 133.596 98.1885 133.696 98.1058 133.65C98.0232 133.605 97.8785 133.719 97.6719 133.992L96.9072 135H97.8462ZM80.7458 135V114.891H88.7864L87.4364 117.609H83.7755V123.37H87.1802L85.8302 126.088H83.7755V132.255H88.7864L87.4364 135H80.7458ZM74.3088 135C73.2887 135 72.3833 134.825 71.5927 134.476C70.8021 134.126 70.1814 133.605 69.7305 132.911C69.2796 132.217 69.0542 131.369 69.0542 130.368C69.0542 129.403 69.2751 128.583 69.7169 127.907C70.1587 127.213 70.7794 126.67 71.5791 126.275C72.3787 125.863 73.2976 125.656 74.3358 125.656C74.9359 125.656 75.5993 125.731 76.3259 125.878C77.0526 126.026 77.7571 126.212 78.4397 126.437V125.868C78.4397 124.914 78.1203 124.161 77.4814 123.607C76.8606 123.036 75.9642 122.75 74.7924 122.75C74.1354 122.75 73.5777 122.848 73.1195 123.043C72.6794 123.239 72.3294 123.5 72.0695 123.828C71.8094 124.155 71.6351 124.532 71.5464 124.957H69.0407C69.103 124.086 69.3736 123.319 69.8526 122.652C70.3316 121.986 70.9929 121.47 71.8366 121.103C72.6984 120.736 73.7174 120.552 74.8934 120.552C77.0346 120.552 78.5989 121.085 79.5865 122.149C80.5919 123.214 81.0948 124.504 81.0948 126.02V131.877C81.0948 132.339 81.1879 132.667 81.374 132.86C81.5584 133.052 81.8677 133.148 82.302 133.148H83.3914L82.2528 135H80.9839C80.3014 135 79.7414 134.889 79.3038 134.666C78.8846 134.444 78.5647 134.135 78.3443 133.742C78.1427 133.348 78.0419 132.882 78.0419 132.345C77.5971 132.85 77.0797 133.307 76.4897 133.715C75.9178 134.105 75.2853 134.404 74.5923 134.614C73.8993 134.871 73.1555 135 74.3088 135ZM74.7924 132.844C75.7167 132.844 76.5166 132.638 77.192 132.226C77.8673 131.795 78.4083 131.234 78.8149 130.544C79.2215 129.855 79.4249 129.101 79.4249 128.281V128.025C78.7605 127.82 78.0915 127.656 77.4182 127.535C76.7629 127.413 76.122 127.352 75.4954 127.352C74.5981 127.352 73.8579 127.58 73.2751 128.035C72.7106 128.473 72.4282 129.075 72.4282 129.843C72.4282 130.562 72.6839 131.134 73.1953 131.559C73.7067 131.983 74.1594 132.213 74.5209 132.25C74.8825 132.286 74.8961 132.335 74.7924 132.844ZM56.1523 135L59.6273 114.891H65.9098L69.3983 135H66.3281L65.6954 130.765H59.8416L59.2225 135H56.1523ZM60.2193 128.186H65.3312L63.8387 117.814L62.7754 117.892L60.2193 128.186Z" fill="white"/>
  <path d="M67.1562 82.9209L76.0414 97.6667C76.3396 98.1778 76.9922 98.3459 77.5033 98.0474L92.25 89.1623C92.7611 88.8642 92.9292 88.2116 92.6307 87.7004L83.7453 72.954C83.4471 72.4429 82.7945 72.2748 82.2834 72.573L67.5369 81.458C67.0258 81.7562 66.8577 82.4088 67.1562 82.9209Z" fill="#C8102E" stroke="#FFFFFF" stroke-width="1.5"/>
  <path d="M148.156 82.9209L139.272 97.6667C138.974 98.1778 138.321 98.3459 137.81 98.0474L123.064 89.1623C122.552 88.8642 122.384 88.2116 122.683 87.7004L131.568 72.954C131.866 72.4429 132.519 72.2748 133.03 72.573L147.776 81.458C148.287 81.7562 148.455 82.4088 148.156 82.9209Z" fill="#C8102E" stroke="#FFFFFF" stroke-width="1.5"/>
  <path d="M96 69C96 65.6863 92.866 63 89 63C85.134 63 82 65.6863 82 69C82 72.3137 85.134 75 89 75C92.866 75 96 72.3137 96 69Z" fill="#FFFFFF"/>
  <path d="M159 69C159 65.6863 155.866 63 152 63C148.134 63 145 65.6863 145 69C145 72.3137 148.134 75 152 75C155.866 75 159 72.3137 159 69Z" fill="#FFFFFF"/>
  <path d="M88 68C88 66.3431 86.6569 65 85 65C83.3431 65 82 66.3431 82 68C82 69.6569 83.3431 71 85 71C86.6569 71 88 69.6569 88 68Z" fill="#13294B"/>
  <path d="M158 68C158 66.3431 156.657 65 155 65C153.343 65 152 66.3431 152 68C152 69.6569 153.343 71 155 71C156.657 71 158 69.6569 158 68Z" fill="#13294B"/>
  <circle cx="120" cy="120" r="110" stroke="#FFFFFF" stroke-width="3"/>
</svg>