<?xml version="1.0" encoding="UTF-8"?>
<svg xmlns="http://www.w3.org/2000/svg" width="240" height="240" viewBox="0 0 240 240" fill="none">
  <circle cx="120" cy="120" r="110" fill="#0B4F6C"/>
  <path d="M65 90H175V130C175 152.091 157.091 170 135 170H105C82.9086 170 65 152.091 65 130V90Z" fill="#FFFFFF"/>
  <path d="M80 90H160V125C160 141.569 146.569 155 130 155H110C93.4315 155 80 141.569 80 125V90Z" fill="#CBB677"/>
  <path d="M85 90H155V120C155 133.255 144.255 144 131 144H109C95.7452 144 85 133.255 85 120V90Z" fill="#0B4F6C"/>
  <path d="M125 75C125 79.9706 122.761 84 120 84C117.239 84 115 79.9706 115 75C115 70.0294 117.239 66 120 66C122.761 66 125 70.0294 125 75Z" fill="#FFFFFF"/>
  <path d="M140 70C140 72.7614 137.761 75 135 75C132.239 75 130 72.7614 130 70C130 67.2386 132.239 65 135 65C137.761 65 140 67.2386 140 70Z" fill="#FFFFFF"/>
  <path d="M110 70C110 72.7614 107.761 75 105 75C102.239 75 100 72.7614 100 70C100 67.2386 102.239 65 105 65C107.761 65 110 67.2386 110 70Z" fill="#FFFFFF"/>
  <rect x="115" y="66" width="10" height="24" fill="#FFFFFF"/>
  <rect x="130" y="65" width="10" height="25" fill="#FFFFFF"/>
  <rect x="100" y="65" width="10" height="25" fill="#FFFFFF"/>
  <path d="M175 96H65V86H175V96Z" fill="#CBB677"/>
  <rect x="85" y="105" width="70" height="5" fill="#FFFFFF"/>
  <rect x="85" y="115" width="70" height="5" fill="#FFFFFF"/>
  <rect x="85" y="125" width="70" height="5" fill="#FFFFFF"/>
  <path d="M60.3931 186.284L63.1973 172.085H66.8462L62.4975 190.879H59.154L55.9005 176.817L52.6471 190.879H49.3036L44.9649 172.085H48.6031L51.3616 186.459L54.767 172.085H57.0229L60.3931 186.284Z" fill="#FFFFFF"/>
  <path d="M69.1371 190.879V172.085H72.921V179.707H79.722V172.085H83.506V190.879H79.722V182.835H72.921V190.879H69.1371Z" fill="#FFFFFF"/>
  <path d="M87.3677 190.879V172.085H91.1516V187.805H98.9526V190.879H87.3677Z" fill="#FFFFFF"/>
  <path d="M113.114 187.535C112.842 188.51 112.304 189.261 111.501 189.789C110.699 190.304 109.747 190.562 108.646 190.562C107.866 190.562 107.146 190.414 106.487 190.118C105.828 189.822 105.251 189.399 104.754 188.849C104.271 188.299 103.891 187.639 103.614 186.87C103.351 186.088 103.219 185.23 103.219 184.296C103.219 183.419 103.354 182.618 103.623 181.891C103.891 181.151 104.267 180.514 104.748 179.982C105.245 179.45 105.822 179.04 106.481 178.753C107.141 178.465 107.845 178.321 108.594 178.321C109.681 178.321 110.625 178.572 111.423 179.075C112.235 179.563 112.829 180.292 113.206 181.262L110.216 182.374C110.097 181.906 109.878 181.546 109.561 181.296C109.258 181.033 108.869 180.901 108.396 180.901C107.702 180.901 107.141 181.168 106.714 181.702C106.3 182.237 106.093 183.044 106.093 184.124C106.093 185.216 106.294 186.037 106.696 186.588C107.098 187.14 107.643 187.416 108.331 187.416C109.2 187.416 109.787 186.954 110.096 186.032L113.114 187.535Z" fill="#FFFFFF"/>
  <path d="M115.711 190.879V172.085H119.495V190.879H115.711Z" fill="#FFFFFF"/>
  <path d="M129.644 178.065C130.947 178.065 132.144 178.327 133.232 178.851C134.333 179.375 135.209 180.117 135.859 181.078C136.509 182.027 136.833 183.129 136.833 184.384C136.833 185.639 136.509 186.748 135.859 187.709C135.209 188.657 134.333 189.399 133.232 189.936C132.144 190.46 130.947 190.722 129.644 190.722C128.341 190.722 127.145 190.46 126.057 189.936C124.969 189.399 124.098 188.657 123.447 187.709C122.797 186.748 122.472 185.639 122.472 184.384C122.472 183.129 122.797 182.027 123.447 181.078C124.098 180.117 124.969 179.375 126.057 178.851C127.145 178.327 128.341 178.065 129.644 178.065ZM129.644 180.848C128.919 180.848 128.253 181.01 127.647 181.332C127.055 181.655 126.583 182.102 126.229 182.672C125.889 183.229 125.719 183.861 125.719 184.566C125.719 185.271 125.889 185.896 126.229 186.44C126.583 186.984 127.055 187.416 127.647 187.739C128.253 188.061 128.919 188.222 129.644 188.222C130.37 188.222 131.035 188.061 131.642 187.739C132.249 187.416 132.724 186.984 133.065 186.44C133.418 185.896 133.595 185.271 133.595 184.566C133.595 183.861 133.418 183.229 133.065 182.672C132.724 182.102 132.249 181.655 131.642 181.332C131.035 181.01 130.37 180.848 129.644 180.848Z" fill="#FFFFFF"/>
  <path d="M149.326 190.879L144.286 183.042H141.966V190.879H138.382V172.085H145.248C146.632 172.085 147.815 172.356 148.799 172.899C149.798 173.442 150.547 174.18 151.044 175.114C151.541 176.036 151.789 177.085 151.789 178.258C151.789 179.595 151.422 180.78 150.688 181.813C149.969 182.847 148.885 183.57 147.437 183.982L152.91 190.879H149.326ZM141.966 180.196H145.14C146.201 180.196 147.006 179.936 147.554 179.416C148.103 178.895 148.378 178.163 148.378 177.218C148.378 176.307 148.116 175.595 147.593 175.084C147.07 174.572 146.278 174.316 145.217 174.316H141.966V180.196Z" fill="#FFFFFF"/>
  <path d="M154.458 190.879V172.085H166.47V175.16H158.242V179.913H165.97V182.988H158.242V187.805H166.642V190.879H154.458Z" fill="#FFFFFF"/>
  <path d="M179.258 186.032C178.894 187.5 178.162 188.644 177.059 189.464C175.956 190.271 174.627 190.674 173.071 190.674C171.732 190.674 170.53 190.398 169.465 189.846C168.415 189.295 167.583 188.531 166.969 187.556C166.37 186.58 166.07 185.47 166.07 184.228C166.07 182.973 166.37 181.859 166.969 180.883C167.583 179.895 168.415 179.128 169.465 178.576C170.53 178.011 171.73 177.729 173.071 177.729C174.579 177.729 175.882 178.105 176.979 178.857C178.091 179.595 178.84 180.596 179.224 181.863L175.849 183.04C175.66 182.423 175.35 181.949 174.918 181.621C174.501 181.292 173.977 181.128 173.348 181.128C172.471 181.128 171.759 181.423 171.213 182.011C170.666 182.585 170.393 183.342 170.393 184.279C170.393 185.23 170.664 185.991 171.206 186.565C171.762 187.126 172.471 187.406 173.348 187.406C174.703 187.406 175.586 186.856 175.999 185.756L179.258 186.032Z" fill="#FFFFFF"/>
  <path d="M181.791 190.879V172.085H185.575V190.879H181.791Z" fill="#FFFFFF"/>
  <path d="M196.658 178.065C197.961 178.065 199.158 178.327 200.246 178.851C201.347 179.375 202.223 180.117 202.873 181.078C203.523 182.027 203.847 183.129 203.847 184.384C203.847 185.639 203.523 186.748 202.873 187.709C202.223 188.657 201.347 189.399 200.246 189.936C199.158 190.46 197.961 190.722 196.658 190.722C195.355 190.722 194.159 190.46 193.071 189.936C191.983 189.399 191.112 188.657 190.461 187.709C189.811 186.748 189.486 185.639 189.486 184.384C189.486 183.129 189.811 182.027 190.461 181.078C191.112 180.117 191.983 179.375 193.071 178.851C194.159 178.327 195.355 178.065 196.658 178.065ZM196.658 180.848C195.933 180.848 195.267 181.01 194.661 181.332C194.069 181.655 193.597 182.102 193.243 182.672C192.903 183.229 192.733 183.861 192.733 184.566C192.733 185.271 192.903 185.896 193.243 186.44C193.597 186.984 194.069 187.416 194.661 187.739C195.267 188.061 195.933 188.222 196.658 188.222C197.384 188.222 198.049 188.061 198.656 187.739C199.263 187.416 199.738 186.984 200.079 186.44C200.432 185.896 200.609 185.271 200.609 184.566C200.609 183.861 200.432 183.229 200.079 182.672C199.738 182.102 199.263 181.655 198.656 181.332C198.049 181.01 197.384 180.848 196.658 180.848Z" fill="#FFFFFF"/>
  <path d="M216.345 190.879L214.953 186.944H208.152L206.787 190.879H202.873L209.297 172.164H214.043L220.311 190.879H216.345ZM209.217 184.098H213.888L211.553 177.069L209.217 184.098Z" fill="#FFFFFF"/>
  <path d="M232.343 190.879L227.294 183.248H226.688V190.879H222.904V172.085H226.688V180.54H227.294L232.185 172.085H236.546L230.516 181.784L236.731 190.879H232.343Z" fill="#FFFFFF"/>
  <path d="M246.593 178.065C247.896 178.065 249.093 178.327 250.181 178.851C251.282 179.375 252.157 180.117 252.807 181.078C253.458 182.027 253.782 183.129 253.782 184.384C253.782 185.639 253.458 186.748 252.807 187.709C252.157 188.657 251.282 189.399 250.181 189.936C249.093 190.46 247.896 190.722 246.593 190.722C245.289 190.722 244.093 190.46 243.005 189.936C241.917 189.399 241.047 188.657 240.396 187.709C239.745 186.748 239.421 185.639 239.421 184.384C239.421 183.129 239.745 182.027 240.396 181.078C241.047 180.117 241.917 179.375 243.005 178.851C244.093 178.327 245.289 178.065 246.593 178.065ZM246.593 180.848C245.867 180.848 245.202 181.01 244.595 181.332C244.003 181.655 243.531 182.102 243.178 182.672C242.837 183.229 242.667 183.861 242.667 184.566C242.667 185.271 242.837 185.896 243.178 186.44C243.531 186.984 244.003 187.416 244.595 187.739C245.202 188.061 245.867 188.222 246.593 188.222C247.318 188.222 247.984 188.061 248.59 187.739C249.197 187.416 249.673 186.984 250.013 186.44C250.367 185.896 250.543 185.271 250.543 184.566C250.543 183.861 250.367 183.229 250.013 182.672C249.673 182.102 249.197 181.655 248.59 181.332C247.984 181.01 247.318 180.848 246.593 180.848Z" fill="#FFFFFF"/>
  <circle cx="120" cy="120" r="110" stroke="#FFFFFF" stroke-width="3"/>
  <circle cx="120" cy="144" r="7" fill="#FFFFFF"/>
</svg>