<?xml version="1.0" encoding="UTF-8"?>
<svg xmlns="http://www.w3.org/2000/svg" width="240" height="240" viewBox="0 0 240 240" fill="none">
  <circle cx="120" cy="120" r="110" fill="#880016"/>
  <path d="M90 75C90 58.4315 103.431 45 120 45C136.569 45 150 58.4315 150 75V160C150 176.569 136.569 190 120 190C103.431 190 90 176.569 90 160V75Z" fill="#FFFFFF"/>
  <path d="M105 70C105 63.3726 110.373 58 117 58H123C129.627 58 135 63.3726 135 70V160C135 166.627 129.627 172 123 172H117C110.373 172 105 166.627 105 160V70Z" fill="#880016"/>
  <path d="M65 162C65 157.582 68.5817 154 73 154H167C171.418 154 175 157.582 175 162V172C175 176.418 171.418 180 167 180H73C68.5817 180 65 176.418 65 172V162Z" fill="#FFFFFF"/>
  <path d="M68.4281 95.4043L71.2324 81.2056H74.8813L70.5325 100H67.189L63.9355 85.9375L60.6821 100H57.3386L53 81.2056H56.6382L59.3967 95.5791L62.8022 81.2056H65.0581L68.4281 95.4043Z" fill="#FFFFFF"/>
  <path d="M77.3271 100V81.2056H80.911V88.9351H87.7119V81.2056H91.2958V100H87.7119V91.9556H80.911V100H77.3271Z" fill="#FFFFFF"/>
  <path d="M94.2954 100V81.2056H106.307V84.2803H97.8793V89.0337H105.607V92.1084H97.8793V96.9253H106.479V100H94.2954Z" fill="#FFFFFF"/>
  <path d="M157.796 100L152.755 92.1627H150.435V100H146.851V81.2056H153.718C155.101 81.2056 156.284 81.4771 157.269 82.02C158.268 82.5629 159.016 83.3012 159.513 84.2349C160.01 85.1573 160.258 86.2055 160.258 87.3794C160.258 88.7158 159.891 89.9008 159.158 90.9343C158.438 91.9679 157.354 92.6907 155.906 93.103L161.379 100H157.796ZM150.435 89.3164H153.609C154.67 89.3164 155.475 89.0563 156.023 88.5361C156.572 88.0159 156.847 87.2833 156.847 86.3382C156.847 85.4272 156.585 84.7158 156.062 84.2042C155.539 83.6925 154.747 83.4367 153.686 83.4367H150.435V89.3164Z" fill="#FFFFFF"/>
  <path d="M166.427 100V84.2803H160.865V81.2056H175.558V84.2803H169.996V100H166.427Z" fill="#FFFFFF"/>
  <path d="M61.0308 165V146.206H70.6318L69.3943 149.28H64.6147V154.034H69.2078L67.9703 157.108H64.6147V165H61.0308Z" fill="#880016"/>
  <path d="M77.8076 165.246C76.4908 165.246 75.3195 164.978 74.2939 164.442C73.2682 163.893 72.4646 163.141 71.8831 162.187C71.3127 161.22 71.0276 160.13 71.0276 158.917C71.0276 157.703 71.3127 156.619 71.8831 155.665C72.4646 154.699 73.2682 153.941 74.2939 153.392C75.3195 152.843 76.4908 152.569 77.8076 152.569C79.1245 152.569 80.2958 152.843 81.3214 153.392C82.3471 153.941 83.1451 154.699 83.7155 155.665C84.297 156.619 84.5878 157.703 84.5878 158.917C84.5878 160.13 84.297 161.22 83.7155 162.187C83.1451 163.141 82.3471 163.893 81.3214 164.442C80.2958 164.978 79.1245 165.246 77.8076 165.246ZM77.8076 162.187C78.6055 162.187 79.2812 161.9 79.8348 161.325C80.3883 160.75 80.6651 159.945 80.6651 158.917C80.6651 157.889 80.3883 157.09 79.8348 156.527C79.2812 155.952 78.6055 155.665 77.8076 155.665C77.0098 155.665 76.3341 155.952 75.7805 156.527C75.227 157.09 74.9502 157.889 74.9502 158.917C74.9502 159.945 75.227 160.75 75.7805 161.325C76.3341 161.9 77.0098 162.187 77.8076 162.187Z" fill="#880016"/>
  <path d="M92.0037 165.246C90.6869 165.246 89.5156 164.978 88.49 164.442C87.4643 163.893 86.6607 163.141 86.0792 162.187C85.5088 161.22 85.2236 160.13 85.2236 158.917C85.2236 157.703 85.5088 156.619 86.0792 155.665C86.6607 154.699 87.4643 153.941 88.49 153.392C89.5156 152.843 90.6869 152.569 92.0037 152.569C93.3205 152.569 94.4918 152.843 95.5175 153.392C96.5431 153.941 97.3412 154.699 97.9116 155.665C98.4931 156.619 98.7839 157.703 98.7839 158.917C98.7839 160.13 98.4931 161.22 97.9116 162.187C97.3412 163.141 96.5431 163.893 95.5175 164.442C94.4918 164.978 93.3205 165.246 92.0037 165.246ZM92.0037 162.187C92.8015 162.187 93.4772 161.9 94.0308 161.325C94.5844 160.75 94.8612 159.945 94.8612 158.917C94.8612 157.889 94.5844 157.09 94.0308 156.527C93.4772 155.952 92.8015 155.665 92.0037 155.665C91.2059 155.665 90.5302 155.952 89.9766 156.527C89.4231 157.09 89.1463 157.889 89.1463 158.917C89.1463 159.945 89.4231 160.75 89.9766 161.325C90.5302 161.9 91.2059 162.187 92.0037 162.187Z" fill="#880016"/>
  <path d="M106.2 165.246C104.883 165.246 103.712 164.978 102.686 164.442C101.661 163.893 100.857 163.141 100.275 162.187C99.7051 161.22 99.42 160.13 99.42 158.917C99.42 157.703 99.7051 156.619 100.275 155.665C100.857 154.699 101.661 153.941 102.686 153.392C103.712 152.843 104.883 152.569 106.2 152.569C107.517 152.569 108.688 152.843 109.714 153.392C110.739 153.941 111.537 154.699 112.108 155.665C112.689 156.619 112.98 157.703 112.98 158.917C112.98 160.13 112.689 161.22 112.108 162.187C111.537 163.141 110.739 163.893 109.714 164.442C108.688 164.978 107.517 165.246 106.2 165.246ZM106.2 162.187C106.997 162.187 107.673 161.9 108.227 161.325C108.78 160.75 109.057 159.945 109.057 158.917C109.057 157.889 108.78 157.09 108.227 156.527C107.673 155.952 106.997 155.665 106.2 155.665C105.402 155.665 104.726 155.952 104.172 156.527C103.619 157.09 103.342 157.889 103.342 158.917C103.342 159.945 103.619 160.75 104.172 161.325C104.726 161.9 105.402 162.187 106.2 162.187Z" fill="#880016"/>
  <path d="M120.396 165.246C119.079 165.246 117.908 164.978 116.882 164.442C115.857 163.893 115.053 163.141 114.471 162.187C113.901 161.22 113.616 160.13 113.616 158.917C113.616 157.703 113.901 156.619 114.471 155.665C115.053 154.699 115.857 153.941 116.882 153.392C117.908 152.843 119.079 152.569 120.396 152.569C121.713 152.569 122.884 152.843 123.91 153.392C124.935 153.941 125.733 154.699 126.304 155.665C126.885 156.619 127.176 157.703 127.176 158.917C127.176 160.13 126.885 161.22 126.304 162.187C125.733 163.141 124.935 163.893 123.91 164.442C122.884 164.978 121.713 165.246 120.396 165.246ZM120.396 162.187C121.193 162.187 121.869 161.9 122.423 161.325C122.976 160.75 123.253 159.945 123.253 158.917C123.253 157.889 122.976 157.09 122.423 156.527C121.869 155.952 121.193 155.665 120.396 155.665C119.598 155.665 118.922 155.952 118.368 156.527C117.815 157.09 117.538 157.889 117.538 158.917C117.538 159.945 117.815 160.75 118.368 161.325C118.922 161.9 119.598 162.187 120.396 162.187Z" fill="#880016"/>
  <path d="M135.461 152.815L131.694 165H127.974L132.928 152.815H135.461Z" fill="#880016"/>
  <path d="M144.019 157.737H150.923V160.75H144.019V157.737ZM144.019 153.556V165H140.435V153.556H144.019ZM147.276 151.695C146.57 151.695 145.995 151.483 145.553 151.06C145.124 150.637 144.91 150.102 144.91 149.457C144.91 148.811 145.124 148.276 145.553 147.853C145.995 147.43 146.57 147.219 147.276 147.219C147.982 147.219 148.551 147.424 148.981 147.834C149.423 148.232 149.643 148.745 149.643 149.376C149.643 150.047 149.423 150.598 148.981 151.021C148.551 151.47 147.982 151.695 147.276 151.695Z" fill="#880016"/>
  <path d="M159.366 159.044L163.504 152.815H167.621L161.657 160.886V165H157.075V160.886L151.111 152.815H155.228L159.366 159.044Z" fill="#880016"/>
  <path d="M177.242 157.737H184.146V160.75H177.242V157.737ZM177.242 153.556V165H173.658V153.556H177.242ZM180.499 151.695C179.793 151.695 179.218 151.483 178.776 151.06C178.347 150.637 178.133 150.102 178.133 149.457C178.133 148.811 178.347 148.276 178.776 147.853C179.218 147.43 179.793 147.219 180.499 147.219C181.205 147.219 181.774 147.424 182.204 147.834C182.646 148.232 182.866 148.745 182.866 149.376C182.866 150.047 182.646 150.598 182.204 151.021C181.774 151.47 181.205 151.695 180.499 151.695Z" fill="#880016"/>
  <ellipse cx="120" cy="101" rx="22" ry="9" fill="#FFFFFF"/>
  <mask id="mask0_0_1" style="mask-type:alpha" maskUnits="userSpaceOnUse" x="105" y="58" width="30" height="114">
    <path d="M105 70C105 63.3726 110.373 58 117 58H123C129.627 58 135 63.3726 135 70V160C135 166.627 129.627 172 123 172H117C110.373 172 105 166.627 105 160V70Z" fill="#D9D9D9"/>
  </mask>
  <g mask="url(#mask0_0_1)">
    <path d="M140 120L95 120" stroke="#FFFFFF" stroke-width="2"/>
    <path d="M140 130L95 130" stroke="#FFFFFF" stroke-width="2"/>
    <path d="M140 110L95 110" stroke="#FFFFFF" stroke-width="2"/>
    <path d="M140 140L95 140" stroke="#FFFFFF" stroke-width="2"/>
    <path d="M140 150L95 150" stroke="#FFFFFF" stroke-width="2"/>
    <path d="M140 100L95 100" stroke="#FFFFFF" stroke-width="2"/>
    <path d="M140 90L95 90" stroke="#FFFFFF" stroke-width="2"/>
    <path d="M140 80L95 80" stroke="#FFFFFF" stroke-width="2"/>
    <path d="M140 70L95 70" stroke="#FFFFFF" stroke-width="2"/>
  </g>
  <circle cx="120" cy="120" r="110" stroke="#FFFFFF" stroke-width="3"/>
</svg>