<?xml version="1.0" encoding="UTF-8"?>
<svg xmlns="http://www.w3.org/2000/svg" width="240" height="240" viewBox="0 0 240 240" fill="none">
  <circle cx="120" cy="120" r="110" fill="#D81159"/>
  <path d="M80 78L120 45L160 78V130C160 145.464 147.464 158 132 158H108C92.536 158 80 145.464 80 130V78Z" fill="#FFFFFF"/>
  <path d="M100 90L120 70L140 90V125C140 133.284 133.284 140 125 140H115C106.716 140 100 133.284 100 125V90Z" fill="#D81159"/>
  <path d="M80 130V150C80 163 90 175 105 175H135C150 175 160 163 160 150V130" stroke="#FFFFFF" stroke-width="5"/>
  <path d="M113 175V185" stroke="#FFFFFF" stroke-width="5"/>
  <path d="M127 175V185" stroke="#FFFFFF" stroke-width="5"/>
  <path d="M105 185H135" stroke="#FFFFFF" stroke-width="5"/>
  <path d="M140 110C150.493 110 159 101.493 159 91C159 80.5066 150.493 72 140 72C129.507 72 121 80.5066 121 91C121 101.493 129.507 110 140 110Z" fill="#FFFFFF"/>
  <path d="M136 72H144V110H136V72Z" fill="#D81159"/>
  <path d="M140 72m-13 0a13 13 0 1 0 26 0a13 13 0 1 0 -26 0" fill="#FFFFFF"/>
  <path d="M140 72m-9 0a9 9 0 1 0 18 0a9 9 0 1 0 -18 0" fill="#FFBC42"/>
  <path d="M59.6602 182.284L62.4644 168.085H66.1133L61.7646 186.879H58.4211L55.1676 172.817L51.9142 186.879H48.5707L44.232 168.085H47.8702L50.6287 182.459L54.0341 168.085H56.29L59.6602 182.284Z" fill="#FFFFFF"/>
  <path d="M68.4042 186.879V168.085H71.8881V175.707H78.6891V168.085H82.173V186.879H78.6891V178.835H71.8881V186.879H68.4042Z" fill="#FFFFFF"/>
  <path d="M85.1347 186.879V168.085H97.1469V171.16H88.7187V175.913H96.4469V178.988H88.7187V183.805H97.3185V186.879H85.1347Z" fill="#FFFFFF"/>
  <path d="M111.215 179.535C110.944 180.51 110.405 181.261 109.603 181.789C108.8 182.304 107.848 182.562 106.747 182.562C105.967 182.562 105.247 182.414 104.588 182.118C103.929 181.822 103.352 181.399 102.855 180.849C102.372 180.299 101.992 179.639 101.715 178.87C101.452 178.088 101.32 177.23 101.32 176.296C101.32 175.419 101.455 174.618 101.724 173.891C101.992 173.151 102.368 172.514 102.849 171.982C103.346 171.45 103.923 171.04 104.582 170.753C105.242 170.465 105.946 170.321 106.695 170.321C107.782 170.321 108.726 170.572 109.524 171.075C110.336 171.563 110.93 172.292 111.307 173.262L108.317 174.374C108.198 173.906 107.979 173.546 107.662 173.296C107.359 173.033 106.97 172.901 106.497 172.901C105.803 172.901 105.242 173.168 104.815 173.702C104.401 174.237 104.194 175.044 104.194 176.124C104.194 177.216 104.395 178.037 104.797 178.588C105.199 179.14 105.744 179.416 106.432 179.416C107.301 179.416 107.888 178.954 108.197 178.032L111.215 179.535Z" fill="#FFFFFF"/>
  <path d="M113.813 186.879V168.085H117.596V186.879H113.813Z" fill="#FFFFFF"/>
  <path d="M127.746 174.065C129.048 174.065 130.246 174.327 131.333 174.851C132.435 175.375 133.31 176.117 133.96 177.078C134.61 178.027 134.935 179.129 134.935 180.384C134.935 181.639 134.61 182.748 133.96 183.709C133.31 184.657 132.435 185.399 131.333 185.936C130.246 186.46 129.048 186.722 127.746 186.722C126.443 186.722 125.246 186.46 124.158 185.936C123.07 185.399 122.199 184.657 121.548 183.709C120.898 182.748 120.574 181.639 120.574 180.384C120.574 179.129 120.898 178.027 121.548 177.078C122.199 176.117 123.07 175.375 124.158 174.851C125.246 174.327 126.443 174.065 127.746 174.065ZM127.746 176.848C127.02 176.848 126.355 177.01 125.748 177.332C125.156 177.655 124.684 178.102 124.33 178.672C123.99 179.229 123.82 179.861 123.82 180.566C123.82 181.271 123.99 181.896 124.33 182.44C124.684 182.984 125.156 183.416 125.748 183.739C126.355 184.061 127.02 184.222 127.746 184.222C128.471 184.222 129.137 184.061 129.743 183.739C130.35 183.416 130.825 182.984 131.166 182.44C131.519 181.896 131.696 181.271 131.696 180.566C131.696 179.861 131.519 179.229 131.166 178.672C130.825 178.102 130.35 177.655 129.743 177.332C129.137 177.01 128.471 176.848 127.746 176.848Z" fill="#FFFFFF"/>
  <path d="M147.428 186.879L142.388 179.248H141.782V186.879H137.998V168.085H141.782V176.54H142.388L147.279 168.085H151.64L145.61 177.784L151.825 186.879H147.428Z" fill="#FFFFFF"/>
  <path d="M161.694 174.065C162.997 174.065 164.194 174.327 165.282 174.851C166.383 175.375 167.259 176.117 167.909 177.078C168.559 178.027 168.883 179.129 168.883 180.384C168.883 181.639 168.559 182.748 167.909 183.709C167.259 184.657 166.383 185.399 165.282 185.936C164.194 186.46 162.997 186.722 161.694 186.722C160.392 186.722 159.195 186.46 158.107 185.936C157.019 185.399 156.148 184.657 155.497 183.709C154.847 182.748 154.522 181.639 154.522 180.384C154.522 179.129 154.847 178.027 155.497 177.078C156.148 176.117 157.019 175.375 158.107 174.851C159.195 174.327 160.392 174.065 161.694 174.065ZM161.694 176.848C160.969 176.848 160.303 177.01 159.697 177.332C159.105 177.655 158.633 178.102 158.279 178.672C157.939 179.229 157.769 179.861 157.769 180.566C157.769 181.271 157.939 181.896 158.279 182.44C158.633 182.984 159.105 183.416 159.697 183.739C160.303 184.061 160.969 184.222 161.694 184.222C162.42 184.222 163.085 184.061 163.692 183.739C164.298 183.416 164.774 182.984 165.114 182.44C165.468 181.896 165.644 181.271 165.644 180.566C165.644 179.861 165.468 179.229 165.114 178.672C164.774 178.102 164.298 177.655 163.692 177.332C163.085 177.01 162.42 176.848 161.694 176.848Z" fill="#FFFFFF"/>
  <path d="M181.377 186.879L175.885 178.905H174.889V186.879H171.106V168.085H177.972C179.355 168.085 180.538 168.356 181.523 168.899C182.522 169.442 183.271 170.18 183.768 171.114C184.265 172.036 184.513 173.085 184.513 174.258C184.513 175.595 184.146 176.78 183.412 177.813C182.693 178.847 181.609 179.57 180.161 179.982L186.084 186.879H181.377ZM174.889 176.196H177.864C178.925 176.196 179.73 175.936 180.278 175.416C180.826 174.895 181.102 174.163 181.102 173.218C181.102 172.307 180.841 171.595 180.318 171.084C179.794 170.572 179.003 170.316 177.941 170.316H174.889V176.196Z" fill="#FFFFFF"/>
  <path d="M197.783 186.879L196.391 182.944H189.59L188.225 186.879H184.311L190.735 168.164H195.481L201.749 186.879H197.783ZM190.655 180.098H195.326L192.991 173.069L190.655 180.098Z" fill="#FFFFFF"/>
  <path d="M211.781 182.032C211.416 183.5 210.685 184.644 209.582 185.464C208.479 186.271 207.15 186.674 205.594 186.674C204.254 186.674 203.053 186.398 201.987 185.846C200.937 185.295 200.105 184.531 199.492 183.556C198.893 182.58 198.593 181.47 198.593 180.228C198.593 178.973 198.893 177.859 199.492 176.883C200.105 175.895 200.937 175.128 201.987 174.576C203.053 174.011 204.252 173.729 205.594 173.729C207.101 173.729 208.404 174.105 209.501 174.857C210.613 175.595 211.363 176.596 211.747 177.863L208.371 179.04C208.183 178.423 207.873 177.949 207.441 177.621C207.024 177.292 206.5 177.128 205.871 177.128C204.994 177.128 204.281 177.423 203.735 178.011C203.189 178.585 202.916 179.342 202.916 180.279C202.916 181.23 203.184 181.991 203.726 182.565C204.281 183.126 204.99 183.406 205.867 183.406C207.222 183.406 208.105 182.856 208.518 181.756L211.781 182.032Z" fill="#FFFFFF"/>
  <path d="M221.937 186.879L216.446 178.905H215.45V186.879H211.666V168.085H218.533C219.916 168.085 221.099 168.356 222.083 168.899C223.083 169.442 223.831 170.18 224.328 171.114C224.825 172.036 225.073 173.085 225.073 174.258C225.073 175.595 224.706 176.78 223.972 177.813C223.253 178.847 222.169 179.57 220.721 179.982L226.644 186.879H221.937ZM215.45 176.196H218.424C219.485 176.196 220.29 175.936 220.838 175.416C221.387 174.895 221.662 174.163 221.662 173.218C221.662 172.307 221.401 171.595 220.878 171.084C220.354 170.572 219.563 170.316 218.502 170.316H215.45V176.196Z" fill="#FFFFFF"/>
  <path d="M234.593 182.1C234.593 182.926 234.348 183.669 233.86 184.327C233.387 184.973 232.715 185.489 231.845 185.877C230.976 186.251 229.959 186.439 228.797 186.439H223.114V168.085H229.401C230.367 168.085 231.222 168.264 231.969 168.622C232.728 168.981 233.321 169.478 233.744 170.112C234.168 170.746 234.38 171.458 234.38 172.245C234.38 173.134 234.117 173.878 233.593 174.475C233.082 175.059 232.402 175.469 231.555 175.707C232.54 175.893 233.326 176.311 233.915 176.962C234.503 177.612 234.801 178.463 234.801 179.515C234.801 180.254 234.688 180.939 234.462 181.573C234.249 182.194 234.593 182.1 234.593 182.1ZM226.858 175.237H229.163C229.889 175.237 230.452 175.059 230.852 174.703C231.266 174.346 231.473 173.838 231.473 173.174C231.473 172.536 231.266 172.04 230.852 171.684C230.439 171.327 229.863 171.149 229.124 171.149H226.858V175.237ZM226.858 183.375H229.381C230.276 183.375 230.949 183.165 231.4 182.744C231.866 182.324 232.098 181.742 232.098 180.998C232.098 180.281 231.858 179.727 231.379 179.333C230.9 178.938 230.212 178.741 229.317 178.741H226.858V183.375Z" fill="#FFFFFF"/>
  <path d="M247.093 174.065C248.395 174.065 249.593 174.327 250.681 174.851C251.782 175.375 252.658 176.117 253.308 177.078C253.958 178.027 254.282 179.129 254.282 180.384C254.282 181.639 253.958 182.748 253.308 183.709C252.658 184.657 251.782 185.399 250.681 185.936C249.593 186.46 248.395 186.722 247.093 186.722C245.79 186.722 244.593 186.46 243.505 185.936C242.417 185.399 241.546 184.657 240.896 183.709C240.245 182.748 239.921 181.639 239.921 180.384C239.921 179.129 240.245 178.027 240.896 177.078C241.546 176.117 242.417 175.375 243.505 174.851C244.593 174.327 245.79 174.065 247.093 174.065ZM247.093 176.848C246.367 176.848 245.702 177.01 245.095 177.332C244.503 177.655 244.031 178.102 243.677 178.672C243.337 179.229 243.167 179.861 243.167 180.566C243.167 181.271 243.337 181.896 243.677 182.44C244.031 182.984 244.503 183.416 245.095 183.739C245.702 184.061 246.367 184.222 247.093 184.222C247.818 184.222 248.484 184.061 249.09 183.739C249.697 183.416 250.172 182.984 250.513 182.44C250.866 181.896 251.043 181.271 251.043 180.566C251.043 179.861 250.866 179.229 250.513 178.672C250.172 178.102 249.697 177.655 249.09 177.332C248.484 177.01 247.818 176.848 247.093 176.848Z" fill="#FFFFFF"/>
  <circle cx="120" cy="120" r="110" stroke="#FFFFFF" stroke-width="3"/>
</svg>