<?xml version="1.0" standalone="no"?>
<!DOCTYPE svg PUBLIC "-//W3C//DTD SVG 20010904//EN"
 "http://www.w3.org/TR/2001/REC-SVG-20010904/DTD/svg10.dtd">
<svg version="1.0" xmlns="http://www.w3.org/2000/svg"
 width="1024.000000pt" height="1024.000000pt" viewBox="0 0 1024.000000 1024.000000"
 preserveAspectRatio="xMidYMid meet">

<g transform="translate(0.000000,1024.000000) scale(0.100000,-0.100000)"
fill="#000000" stroke="none">
<path d="M0 5120 l0 -5120 5120 0 5120 0 0 5120 0 5120 -5120 0 -5120 0 0
-5120z m5149 4676 c16 -35 38 -69 49 -75 12 -6 51 -11 88 -11 l68 0 -63 -44
c-35 -25 -65 -47 -68 -49 -2 -3 1 -25 8 -48 21 -78 27 -109 20 -109 -3 0 -30
18 -59 40 -29 22 -58 40 -65 40 -6 0 -38 -16 -71 -35 -32 -20 -61 -34 -63 -31
-3 3 4 33 16 67 11 34 18 65 16 70 -3 4 -32 24 -65 44 -33 20 -60 40 -60 45 0
4 38 11 84 15 93 7 89 3 117 103 7 23 14 42 15 42 2 0 17 -29 33 -64z m467
-431 c321 -31 526 -68 829 -150 203 -54 370 -109 520 -169 113 -45 635 -297
634 -306 0 -3 -23 -21 -50 -40 -56 -39 -216 -212 -230 -248 -5 -12 -18 -77
-29 -143 -12 -67 -30 -148 -41 -181 l-21 -59 26 -33 c13 -18 381 -391 816
-829 788 -793 791 -796 853 -816 91 -31 221 -108 271 -161 31 -33 45 -57 49
-88 4 -24 13 -42 20 -42 74 0 579 -88 594 -104 4 -4 -13 -28 -38 -54 -25 -26
-70 -76 -99 -112 -30 -36 -91 -103 -135 -150 -65 -69 -154 -176 -219 -264 -5
-8 7 -37 36 -82 122 -190 428 -779 428 -823 0 -26 -16 -26 -82 0 -101 41 -180
58 -316 70 -116 11 -161 10 -293 -3 -155 -16 -199 -29 -199 -58 0 -22 178
-309 273 -441 72 -100 130 -163 173 -187 12 -7 15 -14 9 -20 -5 -5 -95 -67
-198 -138 -206 -142 -354 -234 -522 -327 -60 -33 -162 -92 -225 -130 -170
-102 -440 -231 -685 -327 -139 -55 -179 -85 -414 -308 -490 -467 -1325 -1284
-1856 -1816 l-379 -381 -411 410 c-226 226 -482 480 -570 565 -88 85 -290 284
-450 441 -275 270 -735 716 -966 936 -95 90 -114 104 -188 132 -336 130 -876
403 -1338 677 -175 104 -356 224 -369 245 -3 5 12 16 33 26 57 27 371 376 440
488 30 50 63 102 74 117 10 15 19 31 19 36 0 5 -35 16 -77 25 -329 70 -658 60
-841 -26 -23 -11 -45 -18 -47 -15 -2 2 27 67 64 143 38 77 72 151 76 165 29
97 259 526 300 560 28 23 36 12 -199 295 -82 99 -182 214 -223 256 -70 71 -73
77 -51 82 12 4 38 7 56 7 18 0 79 12 134 26 85 21 369 74 399 74 5 0 12 19 15
42 13 78 104 151 283 225 l85 35 819 819 818 820 -10 52 c-6 28 -18 105 -26
171 -14 108 -18 123 -50 166 -47 65 -247 255 -285 271 -16 8 -30 16 -30 20 0
3 26 16 58 28 31 13 91 43 132 66 157 88 217 118 339 167 322 128 693 233
1146 323 65 13 371 50 475 58 146 11 721 6 866 -8z"/>
<path d="M4775 9240 c-245 -18 -396 -43 -799 -131 -216 -48 -485 -131 -806
-249 -110 -40 -332 -149 -328 -161 2 -5 41 -41 87 -81 137 -118 140 -125 162
-280 10 -73 26 -184 35 -245 l17 -113 -837 -836 -837 -835 -87 -35 c-116 -47
-198 -92 -239 -130 -30 -29 -33 -36 -33 -92 l0 -61 -57 -6 c-32 -4 -119 -20
-193 -36 -74 -15 -154 -31 -177 -35 -24 -4 -43 -12 -43 -18 0 -6 31 -42 69
-81 52 -54 221 -257 332 -401 6 -7 -19 -55 -64 -125 -100 -156 -160 -262 -213
-376 -24 -53 -60 -118 -80 -146 l-36 -50 44 6 c179 25 342 16 588 -32 206 -41
227 -44 235 -32 3 6 28 11 55 11 l49 0 -28 -42 c-16 -24 -45 -77 -65 -118 -59
-119 -213 -372 -260 -426 -24 -27 -91 -85 -150 -128 -58 -44 -105 -84 -103
-90 4 -11 34 -29 247 -146 63 -35 185 -104 270 -153 200 -117 640 -341 797
-406 67 -28 186 -80 264 -116 l142 -66 226 -218 c124 -120 291 -278 371 -352
80 -73 246 -233 370 -354 124 -121 284 -277 355 -345 194 -187 845 -831 959
-948 54 -56 100 -102 102 -102 2 0 175 172 386 383 349 350 947 936 1288 1262
477 457 674 642 710 666 22 15 73 40 113 55 260 98 597 259 788 377 58 36 147
86 197 111 98 49 242 136 417 251 61 40 132 85 159 100 l49 28 -56 49 c-61 53
-136 159 -214 303 -27 50 -89 159 -137 244 -59 105 -83 157 -75 161 6 4 43 11
81 14 38 4 118 16 178 26 197 34 335 43 446 31 56 -6 109 -13 118 -17 32 -12
-151 352 -256 509 -33 49 -75 113 -93 144 l-34 56 39 56 c64 94 276 331 351
393 l42 35 -74 17 c-134 31 -303 64 -361 71 l-56 6 1 59 c2 55 -1 62 -33 95
-35 36 -116 79 -244 131 -58 23 -85 45 -228 183 -371 358 -582 567 -951 941
-389 394 -530 529 -556 530 -15 0 -15 -7 18 225 40 285 57 365 90 409 28 39
80 80 152 119 39 22 34 27 -61 58 -36 12 -126 52 -200 89 -368 184 -976 349
-1460 395 -187 18 -709 27 -875 15z m677 -150 c113 0 123 -10 64 -68 l-34 -34
-6 -151 c-19 -500 -19 -485 4 -492 25 -8 25 -16 1 -36 -16 -14 -19 -38 -25
-200 -3 -101 -9 -199 -12 -216 -6 -29 -3 -34 21 -43 15 -6 68 -11 119 -13 l91
-2 7 95 c4 52 12 144 18 204 11 106 10 109 -11 132 -24 26 -24 26 7 42 19 10
21 22 27 184 6 150 16 287 31 431 4 33 -1 44 -41 90 -40 47 -42 52 -24 55 12
2 56 -4 98 -12 43 -9 119 -20 168 -26 138 -16 155 -20 155 -33 0 -7 -21 -34
-45 -60 -25 -27 -45 -57 -45 -68 0 -11 -4 -73 -9 -137 -6 -64 -15 -191 -22
-281 l-11 -164 27 -22 28 -22 -24 -16 c-23 -16 -25 -26 -36 -175 -6 -86 -12
-198 -12 -248 -1 -101 -1 -101 -88 -169 -26 -22 -66 -56 -88 -76 l-40 -37 -75
13 c-41 7 -128 16 -192 20 l-118 7 -96 95 -96 95 6 97 c3 53 8 174 12 269 6
169 6 174 -15 188 -28 20 -27 42 3 50 l23 5 6 307 c6 333 7 322 -50 384 -41
44 -24 52 95 44 58 -3 149 -6 204 -6z m-637 -26 c17 -14 57 -48 91 -75 l61
-49 7 -157 c16 -394 18 -415 37 -434 23 -23 23 -28 3 -50 -15 -16 -15 -34 -5
-176 7 -87 16 -200 22 -252 l10 -94 -113 -109 -113 -109 -130 -9 c-71 -5 -157
-15 -189 -21 -43 -9 -61 -9 -63 -2 -2 6 -44 46 -92 87 l-88 76 -6 118 c-4 64
-9 176 -13 247 -6 124 -8 131 -33 151 l-26 22 24 19 24 19 -16 135 c-9 74 -19
166 -22 204 -3 39 -11 111 -16 161 l-11 92 49 48 c27 27 64 68 83 91 l35 42
190 24 c250 32 263 32 300 1z m1510 -117 c50 -14 153 -44 230 -65 318 -90 367
-108 402 -149 18 -21 49 -70 69 -109 l35 -70 -20 -85 c-29 -122 -71 -362 -71
-410 0 -22 -5 -49 -10 -60 -12 -22 -61 -49 -105 -59 -28 -6 -30 -8 -27 -50 3
-46 45 -367 62 -473 5 -32 28 -99 51 -148 22 -50 39 -92 36 -95 -2 -3 -40 10
-83 27 -44 18 -137 51 -209 74 -137 43 -167 66 -106 80 37 8 37 3 11 200 -25
188 -59 366 -72 383 -6 6 -25 12 -44 12 -38 0 -31 24 -69 -235 -14 -93 -25
-184 -25 -200 0 -18 14 -49 35 -79 54 -76 45 -92 -31 -60 -37 16 -191 60 -319
91 -33 8 -62 16 -64 18 -2 3 21 28 51 57 l55 53 13 95 c11 91 53 365 66 442 5
31 3 38 -20 53 -37 24 -35 55 4 55 26 0 30 4 30 28 0 37 37 305 61 433 26 143
25 149 -21 205 -43 52 -52 80 -22 71 9 -3 58 -16 107 -30z m-2457 -89 c125
-68 117 -52 148 -298 14 -118 34 -246 44 -284 l17 -69 -49 -66 c-28 -36 -58
-83 -69 -103 -10 -20 -28 -43 -39 -51 -11 -7 -92 -34 -181 -58 l-160 -44 5
-30 c3 -16 17 -115 31 -220 15 -104 31 -200 36 -212 4 -12 28 -32 51 -44 46
-23 62 -39 49 -52 -4 -4 -39 -16 -78 -27 -39 -11 -144 -47 -232 -80 -88 -33
-162 -60 -165 -60 -15 0 -2 27 44 86 28 36 50 76 50 89 0 30 -24 247 -49 438
-12 90 -25 157 -35 172 -14 22 -15 28 -2 48 10 16 12 34 6 67 -29 168 -42 252
-59 378 -11 79 -25 150 -32 158 -7 9 -38 28 -68 44 l-56 28 30 12 c301 118
640 231 670 223 11 -3 53 -23 93 -45z m-770 -1138 c-12 -35 -737 -819 -791
-855 -8 -5 -83 -74 -167 -153 -239 -224 -390 -346 -390 -314 0 4 144 149 320
322 176 173 377 373 447 444 460 465 562 566 573 566 6 0 10 -4 8 -10z m4457
-404 c193 -194 466 -464 608 -601 142 -138 263 -258 269 -268 54 -100 -195
116 -587 508 -361 361 -689 696 -714 729 -11 16 -21 33 -21 38 0 28 132 -93
445 -406z m-4358 90 c5 -62 2 -78 -56 -291 -17 -60 -30 -122 -31 -137 l0 -27
63 29 c72 32 575 202 587 198 13 -5 447 -502 601 -689 48 -57 128 -149 179
-204 52 -55 136 -152 188 -215 52 -63 116 -137 141 -163 l46 -48 0 -437 c0
-396 -2 -443 -18 -497 -11 -33 -28 -72 -38 -87 -27 -37 -159 -101 -289 -139
-58 -17 -128 -42 -157 -55 -59 -28 -113 -84 -113 -118 0 -12 -2 -25 -5 -28 -8
-7 -131 11 -215 32 -41 10 -118 26 -170 35 -316 53 -819 224 -1165 397 -167
83 -304 169 -305 191 0 18 36 37 68 37 15 0 15 -2 2 -10 -13 -8 -13 -10 1 -10
10 0 88 -35 175 -78 88 -44 195 -95 239 -114 44 -20 122 -55 174 -77 208 -93
695 -239 916 -275 55 -10 125 -24 155 -32 54 -16 55 -16 70 7 52 79 145 136
277 169 137 35 275 96 294 131 6 12 15 50 20 85 13 91 30 677 22 775 -6 76 -8
82 -37 102 -30 20 -254 269 -350 390 -27 34 -111 130 -186 212 -75 83 -177
198 -226 256 -49 59 -125 147 -169 196 -44 49 -97 109 -117 133 l-37 43 -38
-15 c-21 -9 -85 -32 -143 -51 -102 -34 -407 -148 -482 -181 -55 -24 -72 -21
-64 10 4 14 13 80 21 147 27 222 82 422 133 480 15 16 16 17 25 1 5 -9 12 -44
14 -78z m3905 57 c37 -40 52 -75 82 -193 24 -98 62 -423 50 -441 -2 -4 -50 14
-107 41 -56 26 -121 53 -143 59 -23 6 -75 25 -115 42 -41 17 -139 53 -219 81
l-145 49 -58 -63 c-32 -35 -86 -97 -120 -138 -34 -41 -109 -129 -167 -195
-238 -273 -408 -474 -516 -614 -28 -36 -97 -110 -153 -164 l-101 -98 0 -342
c1 -363 10 -519 35 -566 19 -38 58 -65 115 -82 25 -7 54 -18 65 -25 11 -7 74
-31 140 -54 137 -48 200 -84 234 -135 16 -24 29 -34 40 -30 9 3 63 13 120 21
336 47 729 172 1121 356 129 61 263 121 298 134 75 29 116 54 105 65 -5 5 -40
10 -79 11 -40 2 -76 8 -83 16 -15 16 53 16 170 1 122 -16 149 -36 87 -62 -18
-8 -69 -40 -113 -72 -95 -68 -150 -97 -355 -188 -403 -179 -780 -293 -1225
-372 -49 -9 -98 -19 -107 -21 -15 -4 -18 1 -18 29 0 57 -36 97 -130 144 -47
23 -121 51 -165 63 -44 11 -108 32 -143 47 -189 78 -203 130 -192 743 6 354 3
337 66 406 166 180 326 362 414 474 25 31 93 113 151 181 59 68 162 189 230
269 176 207 291 334 307 338 27 7 518 -152 610 -198 24 -12 46 -20 48 -17 8 8
-19 178 -52 323 -37 163 -41 204 -21 204 7 0 25 -12 39 -27z m-1402 -42 c325
-39 501 -76 591 -122 42 -21 53 -42 38 -70 -15 -29 -124 -164 -249 -309 -138
-159 -387 -458 -511 -612 -53 -65 -134 -160 -179 -211 -108 -121 -177 -225
-187 -285 -14 -82 -10 -808 5 -887 34 -178 84 -220 389 -321 192 -64 203 -69
203 -90 0 -16 -14 -23 -115 -52 -148 -43 -197 -47 -545 -47 -275 0 -355 3
-449 18 -204 33 -274 66 -224 106 12 10 81 37 155 61 143 46 246 93 296 135
43 36 79 117 97 220 19 109 22 791 4 877 -17 81 -39 116 -172 272 -67 79 -176
208 -242 287 -127 151 -264 310 -460 534 -209 238 -265 306 -265 320 0 52 169
114 406 149 86 13 348 39 499 50 28 2 205 2 395 1 279 -2 379 -7 520 -24z
m1760 -538 c31 -71 46 -83 101 -83 26 0 50 -4 53 -9 3 -5 -17 -23 -44 -41 -28
-18 -50 -36 -50 -41 0 -4 5 -31 11 -59 6 -28 9 -53 7 -56 -3 -2 -22 9 -44 26
-50 37 -71 37 -123 -1 -24 -17 -45 -28 -48 -25 -3 3 0 33 7 67 13 60 13 63 -9
78 -56 40 -64 48 -57 59 4 7 31 12 62 12 l55 0 26 60 c15 33 28 60 29 60 2 0
12 -21 24 -47z m-4640 -23 l30 -60 60 0 c33 0 60 -4 60 -10 0 -5 -3 -10 -7
-10 -5 -1 -26 -16 -47 -34 l-39 -34 13 -61 c7 -34 10 -64 7 -68 -4 -3 -25 11
-47 31 -47 43 -74 45 -124 11 -20 -14 -41 -25 -46 -25 -5 0 -1 25 7 55 15 52
15 56 -3 76 -10 12 -31 27 -46 35 -42 22 -34 34 23 34 68 0 84 11 104 70 9 27
18 50 21 50 2 0 17 -27 34 -60z m647 -331 c88 -12 183 -51 227 -95 57 -57 68
-100 67 -262 0 -81 -4 -199 -10 -262 -15 -163 -14 -333 4 -415 9 -42 15 -124
15 -205 0 -160 -13 -201 -82 -250 -106 -77 -178 -100 -341 -107 -105 -5 -130
-3 -145 9 -9 9 -36 25 -59 37 -24 12 -43 24 -43 27 0 3 64 3 143 -1 110 -5
158 -3 213 8 158 34 223 83 245 184 13 66 17 810 4 1001 -9 135 -23 164 -105
204 -59 30 -145 42 -382 54 -65 3 -118 10 -118 14 0 19 39 52 70 60 51 12 207
12 297 -1z m3634 -16 c27 -14 49 -30 49 -34 0 -13 -55 -18 -235 -22 -183 -4
-224 -13 -296 -62 -78 -55 -77 -49 -90 -447 -8 -261 -8 -382 0 -457 6 -56 11
-152 11 -214 0 -133 13 -167 81 -209 75 -46 144 -58 341 -58 98 0 178 -4 178
-8 0 -4 -26 -21 -57 -37 -149 -74 -458 -23 -553 93 -58 71 -59 81 -57 702 l2
565 29 52 c31 55 71 89 149 123 59 26 139 37 286 39 105 1 117 -1 162 -26z
m-4021 -168 c158 -20 239 -37 363 -75 94 -30 138 -56 136 -82 0 -10 -2 -10 -6
0 -2 6 -14 12 -24 12 -11 0 -17 -4 -14 -10 10 -16 -16 -12 -95 15 -96 33 -304
72 -450 85 -149 13 -524 13 -687 0 -70 -6 -191 -22 -268 -36 -77 -14 -167 -30
-200 -35 -93 -15 -312 -77 -395 -111 -117 -49 -154 -77 -163 -123 -5 -22 -13
-55 -19 -73 -8 -27 -7 -37 6 -51 9 -10 16 -23 16 -29 0 -8 9 -10 25 -6 35 9
31 -2 -7 -22 -55 -29 -81 -84 -39 -84 24 0 36 -16 20 -26 -16 -9 -51 -92 -45
-103 4 -5 15 -7 26 -4 25 7 25 -1 -1 -37 -18 -23 -20 -36 -14 -67 4 -21 7 -45
6 -53 0 -8 -2 -67 -3 -131 -3 -116 -3 -116 18 -102 76 49 390 124 517 122 116
-1 108 -14 -29 -43 -137 -30 -365 -95 -429 -122 -22 -9 -59 -30 -83 -46 -24
-16 -45 -28 -46 -26 -1 1 1 77 5 168 4 91 8 304 8 474 1 255 4 314 16 332 8
13 45 41 82 63 165 96 591 195 1026 237 180 17 574 11 747 -11z m4775 14 c416
-27 671 -78 947 -190 149 -60 206 -93 212 -122 3 -12 8 -230 11 -484 8 -526
15 -487 -79 -434 -45 26 -230 91 -341 120 -58 15 -304 61 -415 77 -403 58
-1223 31 -1455 -47 -33 -11 -67 -22 -76 -25 -13 -5 -15 6 -11 83 4 91 13 116
33 96 9 -9 8 -22 -4 -52 -9 -22 -13 -42 -9 -45 7 -4 86 9 277 46 103 20 140
22 560 22 373 -1 465 -4 535 -17 47 -9 117 -22 155 -29 39 -7 76 -17 84 -22 8
-5 16 -4 20 3 8 12 9 12 231 -20 105 -15 260 -55 357 -91 46 -17 86 -29 89
-25 12 12 17 163 5 185 -6 12 -8 22 -2 22 5 0 6 15 0 38 -4 20 -6 46 -3 57 3
11 -2 38 -11 60 -11 27 -13 36 -4 28 7 -7 17 -13 21 -13 10 0 10 77 0 84 -4 2
-9 55 -9 116 -2 93 -5 116 -20 132 -18 20 -17 20 5 14 18 -6 22 -4 22 14 0 35
-26 84 -51 97 -61 30 -294 124 -355 143 -87 27 -380 85 -514 102 -178 22 -662
17 -925 -10 -220 -22 -299 -37 -345 -63 -91 -51 -121 -76 -129 -104 -7 -24 -9
-13 -10 50 l-1 80 53 22 c73 31 114 40 257 57 69 8 170 20 225 27 92 11 289
23 445 27 36 1 137 -3 225 -9z m-601 -238 c3 -4 6 -112 7 -240 1 -188 4 -231
15 -231 10 0 14 -14 14 -45 l0 -45 -80 0 c-61 0 -80 3 -80 14 0 7 -3 28 -6 45
-6 28 -4 31 20 31 l26 0 0 166 0 165 -22 -3 c-20 -3 -23 2 -26 31 -3 28 2 38
27 58 17 14 31 31 31 38 0 20 63 34 74 16z m373 -13 c50 -46 53 -64 53 -270
l0 -194 -40 -39 c-40 -39 -43 -40 -119 -43 l-78 -4 -37 36 c-37 38 -55 81 -40
96 5 5 30 11 57 15 46 7 47 7 47 -19 0 -25 2 -26 55 -26 l55 0 0 64 0 64 -44
-5 c-59 -7 -109 11 -146 53 -28 33 -30 40 -30 115 0 82 12 119 46 150 22 20
37 23 128 27 60 3 72 0 93 -20z m413 -3 c39 -35 46 -73 44 -220 -1 -77 -3
-166 -3 -197 -1 -56 -2 -58 -48 -93 l-48 -36 -75 7 c-83 7 -92 12 -126 66 -34
54 -31 65 21 72 51 8 65 3 65 -25 0 -16 7 -19 55 -19 l55 0 0 43 c0 23 3 52 6
65 7 23 6 23 -53 17 -64 -8 -104 5 -150 48 -21 19 -23 29 -23 121 l0 101 35
37 36 37 95 -3 c72 -3 100 -8 114 -21z m-5874 -531 c-1 -1 -25 1 -54 3 l-54 6
9 56 c4 31 8 147 8 258 l0 202 40 3 40 3 6 -265 c3 -146 6 -266 5 -266z m145
526 c18 0 88 -135 118 -225 l16 -50 3 138 3 137 44 0 45 0 0 -260 0 -260 -40
0 c-37 0 -41 3 -55 38 -40 97 -101 222 -109 222 -8 0 -6 -69 7 -239 2 -21 -2
-23 -46 -25 l-47 -1 0 269 0 268 23 -6 c12 -3 29 -6 38 -6z m871 -40 c5 -56 0
-72 -21 -66 -9 3 -42 6 -74 7 l-58 3 -3 -60 -4 -60 47 0 46 1 3 -47 3 -48 -48
3 -48 2 4 -65 c1 -36 5 -67 7 -69 2 -3 34 1 70 8 37 6 68 11 69 9 2 -2 5 -25
6 -52 l4 -49 -125 2 c-69 1 -125 3 -125 4 0 1 1 119 3 262 l4 260 118 0 118 0
4 -45z m5236 36 c55 -29 70 -56 78 -140 7 -78 7 -80 -21 -102 l-27 -22 20 -28
c18 -25 20 -39 15 -107 -5 -74 -8 -81 -42 -114 l-36 -35 -84 7 c-47 4 -92 12
-101 17 -29 18 -60 73 -60 106 0 32 1 32 49 32 47 0 50 -2 53 -27 3 -26 6 -28
59 -31 l57 -3 7 60 c4 33 4 65 0 70 -3 6 -26 11 -51 11 -28 0 -44 4 -44 13 0
6 -3 29 -6 49 l-6 37 53 3 54 3 3 49 c4 58 -4 66 -70 66 -35 0 -48 -4 -48 -14
0 -21 -27 -27 -81 -20 l-48 6 15 32 c9 17 32 46 52 63 34 30 42 33 110 33 43
0 84 -6 100 -14z m-6465 -35 c38 -42 54 -78 40 -91 -4 -5 -26 -10 -47 -12 -35
-3 -40 0 -46 22 -5 21 -11 25 -40 22 -19 -1 -40 -7 -47 -14 -16 -13 -17 -72
-2 -100 9 -17 17 -19 55 -13 42 6 49 4 90 -30 l44 -36 0 -91 c0 -87 -1 -91
-30 -118 -30 -28 -73 -40 -146 -40 -35 0 -47 5 -73 35 -19 22 -31 47 -31 64 0
31 14 41 61 41 22 0 29 -5 29 -20 0 -17 7 -20 50 -20 l50 0 0 64 0 64 -45 -6
c-55 -6 -97 11 -131 51 -24 29 -26 37 -22 102 8 123 46 160 169 164 31 1 43
-6 72 -38z m890 2 c18 -25 27 -48 27 -75 l0 -38 -45 0 c-43 0 -45 1 -45 30 0
32 -16 37 -67 24 -23 -6 -23 -9 -23 -171 l0 -164 48 3 c44 3 47 4 44 30 -3 33
8 41 53 32 34 -6 35 -8 35 -49 0 -76 -56 -117 -149 -108 -47 5 -61 11 -83 37
l-27 31 -1 192 0 192 31 36 c30 34 33 35 103 35 70 -1 71 -1 99 -37z m3830
-135 c-16 -18 -18 -19 -21 -3 -4 19 16 37 31 28 4 -3 0 -14 -10 -25z m-5368
-18 c-10 -11 -20 -18 -23 -15 -7 6 18 35 31 35 5 0 2 -9 -8 -20z m2799 -16
c14 -5 16 -30 16 -175 0 -148 -2 -170 -16 -176 -36 -14 -44 23 -44 194 0 171
1 174 44 157z m249 -120 c8 -119 4 -214 -8 -234 -11 -17 -32 6 -71 76 -44 79
-56 88 -48 35 4 -22 3 -56 0 -76 -6 -29 -11 -35 -31 -35 l-25 0 0 159 c0 88 3
166 6 175 12 30 34 16 63 -41 16 -32 36 -67 45 -78 14 -19 15 -15 16 51 0 68
12 98 35 91 5 -2 13 -56 18 -123z m160 114 c31 -16 46 -39 47 -70 0 -37 -35
-48 -61 -19 -39 42 -49 29 -49 -66 0 -100 7 -133 25 -133 7 0 18 14 24 30 10
31 29 38 49 18 31 -31 -8 -108 -54 -108 -32 0 -80 25 -88 45 -9 24 -7 258 2
272 8 12 61 43 75 43 5 0 18 -5 30 -12z m1118 -173 l4 -170 -31 -3 -31 -3 5
130 c4 116 3 131 -12 131 -30 0 -18 34 33 87 7 8 17 11 21 6 4 -4 9 -84 11
-178z m-1642 158 c5 -10 11 -31 12 -48 5 -40 -21 -44 -56 -9 -32 32 -48 22
-43 -27 3 -31 7 -35 51 -48 43 -13 48 -18 58 -54 13 -49 4 -102 -22 -128 -23
-23 -80 -25 -114 -3 -24 15 -49 67 -38 78 12 12 51 6 63 -9 16 -19 49 -19 56
-1 9 24 -10 46 -62 75 l-49 26 0 64 c0 54 4 66 24 82 31 25 106 26 120 2z
m779 -7 c6 -27 -24 -46 -69 -46 -43 0 -52 -9 -44 -43 5 -17 17 -26 43 -33 27
-7 38 -15 40 -31 2 -16 -2 -23 -15 -24 -57 -3 -58 -4 -61 -33 -4 -36 10 -46
67 -46 35 0 42 -3 37 -16 -3 -9 -6 -22 -6 -31 0 -12 -13 -14 -77 -11 l-77 4 1
100 c0 54 1 130 2 167 l1 68 77 -3 c68 -3 78 -6 81 -22z m1106 5 c13 -11 16
-37 16 -143 l0 -130 -29 -29 c-42 -42 -99 -41 -136 2 -14 17 -24 37 -22 43 6
18 47 19 67 1 30 -27 55 -16 55 25 0 34 -1 35 -46 40 -69 8 -79 21 -79 101 0
94 18 113 100 107 32 -2 65 -10 74 -17z m213 8 c15 -5 31 -16 35 -22 4 -7 8
-66 8 -132 0 -95 -3 -125 -16 -144 -21 -29 -68 -49 -100 -43 -27 5 -77 58 -71
76 6 19 36 18 63 -3 30 -23 52 -18 60 15 10 38 -1 51 -50 56 -67 8 -76 19 -76
97 0 36 4 71 8 78 19 29 90 41 139 22z m274 -18 c21 -25 27 -115 9 -126 -7 -4
-7 -12 0 -25 5 -10 10 -43 10 -73 0 -67 -26 -97 -94 -104 -40 -5 -48 -2 -76
25 -54 54 -28 107 31 63 37 -27 61 -24 73 10 14 40 2 59 -37 59 -38 0 -63 21
-53 45 3 10 19 15 46 15 l41 0 -3 38 c-3 32 -7 37 -31 40 -18 2 -29 -2 -33
-12 -7 -18 -59 -22 -69 -5 -10 15 14 67 33 73 10 3 44 4 76 2 48 -2 63 -7 77
-25z m-5421 -30 l-24 -19 29 -44 c50 -74 49 -75 -13 -8 -34 35 -59 67 -56 69
3 3 29 10 84 20 3 0 -6 -8 -20 -18z m8429 2 c3 -2 -2 -10 -10 -18 -13 -13 -20
-13 -62 1 -26 9 -45 19 -42 24 4 7 105 2 114 -7z m-2708 -50 c-9 -15 -10 -13
-11 13 0 17 3 34 8 38 11 12 14 -32 3 -51z m0 -86 c-10 -9 -11 -8 -5 6 3 10 9
15 12 12 3 -3 0 -11 -7 -18z m16 -83 c-3 -3 -12 -4 -19 -1 -8 3 -5 6 6 6 11 1
17 -2 13 -5z m-7 -113 c0 -6 -4 -13 -10 -16 -5 -3 -10 1 -10 9 0 9 5 16 10 16
6 0 10 -4 10 -9z m-3085 -91 c3 -6 -1 -7 -9 -4 -18 7 -21 14 -7 14 6 0 13 -4
16 -10z m-280 -30 c139 -33 248 -62 268 -72 9 -5 17 -20 17 -34 0 -24 -1 -24
-28 -10 -60 31 -338 70 -627 87 -173 11 -562 3 -850 -15 -58 -4 -58 -4 -15 4
73 15 361 59 410 64 25 2 200 3 390 1 311 -3 354 -5 435 -25z m2414 -160 c8 0
12 -3 9 -6 -9 -9 -82 16 -109 37 -19 15 -12 14 31 -6 30 -14 61 -25 69 -25z
m-3640 -42 c100 -76 306 -202 392 -242 53 -23 78 -41 87 -60 17 -39 52 -180
52 -214 0 -16 -43 -118 -100 -235 -54 -113 -102 -218 -106 -234 -4 -15 -15
-39 -24 -53 -29 -42 -176 -341 -200 -407 -12 -34 -31 -69 -41 -79 -18 -16
-142 -61 -234 -84 -50 -13 -51 -12 -141 33 -83 42 -138 72 -421 232 -57 32
-103 62 -103 66 0 11 26 22 87 38 24 7 54 22 67 34 14 12 69 103 122 202 53
99 114 209 135 244 l39 65 -21 22 c-28 29 -19 54 19 54 28 0 35 10 137 203 60
111 128 235 152 275 l45 74 -17 44 c-15 39 -15 74 -1 74 3 0 36 -24 75 -52z
m969 32 c169 -13 192 -19 192 -56 l0 -27 78 8 c162 15 189 16 167 3 -31 -19
-285 -15 -335 5 -8 3 -37 8 -65 12 -28 4 -59 15 -71 27 -15 13 -44 22 -90 27
-102 12 -39 12 124 1z m5156 -97 l128 -27 26 -40 c61 -97 77 -118 104 -134 15
-9 28 -19 28 -22 0 -4 -15 -13 -32 -22 -18 -9 -73 -48 -123 -87 -49 -39 -94
-70 -99 -68 -5 2 -16 24 -24 50 -16 51 -80 130 -88 110 -3 -7 -43 -37 -90 -68
-46 -31 -84 -60 -84 -65 0 -6 31 -59 117 -197 6 -10 42 -10 158 -3 83 5 205
10 272 10 l122 0 33 -67 c44 -87 169 -302 215 -370 l36 -53 -16 -51 c-10 -28
-17 -77 -17 -109 0 -66 -2 -68 -110 -125 -30 -16 -104 -60 -164 -97 l-108 -69
-45 15 c-24 8 -89 21 -144 28 l-100 12 -42 80 c-23 44 -57 95 -75 113 -33 33
-33 35 -16 54 9 10 54 40 98 65 45 26 96 60 113 77 18 17 35 28 38 25 4 -3 12
-29 20 -58 17 -65 59 -122 83 -113 37 13 182 107 182 117 0 11 -60 117 -122
218 l-29 47 -33 -14 c-92 -39 -369 -45 -453 -10 -40 16 -46 24 -112 154 -39
75 -87 168 -107 207 l-38 71 18 99 c27 146 33 155 118 205 40 24 102 65 138
91 36 26 72 47 80 48 8 0 73 -12 144 -27z m1143 -224 c12 -15 8 -17 -44 -22
-174 -19 -216 -20 -211 -7 2 7 11 14 19 16 29 4 145 25 171 30 24 5 27 9 22
32 -5 27 -5 27 12 -3 9 -16 23 -37 31 -46z m-8236 -19 c10 0 21 -5 24 -10 4
-7 -2 -9 -18 -5 -13 4 -73 10 -132 13 l-107 7 21 26 20 26 87 -28 c48 -16 95
-29 105 -29z m287 -15 c62 -8 119 -18 126 -24 7 -6 16 -8 19 -4 4 3 7 1 7 -5
0 -6 8 -13 18 -16 9 -3 -26 -3 -78 -1 -122 5 -233 33 -238 59 -3 15 0 17 14
12 11 -5 70 -14 132 -21z m6202 -22 c0 -9 -12 -36 -26 -61 -20 -34 -25 -53
-21 -81 5 -35 199 -503 219 -528 6 -8 20 -10 34 -7 28 7 34 -16 9 -36 -8 -7
-15 -18 -15 -24 0 -12 119 -314 193 -491 38 -90 46 -102 81 -119 33 -16 46
-17 78 -9 37 10 39 9 36 -11 -2 -16 -34 -36 -138 -88 -146 -72 -236 -109 -245
-100 -3 3 -5 18 -5 34 0 32 -20 57 -220 263 -69 72 -154 161 -187 200 -34 38
-64 67 -67 64 -3 -3 3 -32 13 -65 129 -402 156 -481 170 -496 9 -9 39 -25 66
-35 28 -10 50 -25 50 -32 0 -7 -31 -25 -70 -39 -38 -14 -130 -47 -203 -73 -72
-27 -141 -49 -152 -49 -30 0 -25 35 11 79 16 21 31 47 31 57 1 10 -28 116 -65
234 -36 118 -74 244 -84 279 -14 53 -23 67 -50 84 -39 22 -41 31 -12 51 l21
14 -26 74 c-14 40 -37 116 -51 168 -14 52 -44 150 -66 217 -33 101 -46 127
-75 152 -19 17 -46 34 -59 37 -39 10 -30 21 28 34 28 7 94 28 145 47 51 19 97
33 101 31 5 -2 28 -31 52 -65 37 -51 187 -242 311 -393 16 -19 59 -73 96 -118
36 -46 68 -79 70 -74 1 5 -20 65 -49 133 -28 68 -76 188 -106 267 -86 230
-104 264 -149 287 -21 12 -39 27 -39 34 0 7 35 26 80 42 44 16 123 51 175 78
109 56 110 57 110 34z m1275 2 c17 -1 36 -3 44 -4 8 0 11 -4 7 -8 -9 -10 -256
-41 -273 -35 -7 2 -13 15 -13 28 0 21 5 23 58 27 52 3 95 1 177 -8z m-6077
-75 c109 -55 472 -198 560 -220 41 -10 76 -20 78 -23 2 -2 -11 -30 -31 -62
-39 -65 -62 -137 -91 -280 -5 -29 -7 -27 -41 43 -40 82 -46 86 -181 133 -48
17 -96 38 -107 45 -11 8 -25 14 -31 14 -6 0 -26 -46 -44 -102 -18 -57 -44
-127 -56 -157 -13 -29 -24 -55 -24 -56 0 -2 44 -20 98 -41 98 -39 168 -48 220
-30 31 11 29 -10 -7 -82 -23 -47 -44 -105 -87 -240 -3 -9 -11 -8 -31 7 -16 12
-79 43 -141 70 -63 28 -120 55 -128 62 -11 9 -14 7 -14 -10 0 -12 -25 -88 -56
-169 -31 -81 -58 -154 -61 -163 -3 -12 20 -23 104 -51 175 -59 194 -63 250
-44 26 9 68 32 92 51 39 31 71 45 71 30 0 -3 -15 -36 -34 -73 -18 -37 -55
-132 -81 -212 -27 -80 -50 -147 -51 -149 -2 -2 -29 11 -60 28 -31 18 -138 63
-238 100 -151 57 -422 171 -475 200 -30 16 -20 29 38 50 90 33 91 34 150 201
22 63 65 183 96 265 l57 150 -21 38 c-23 39 -21 42 23 49 19 3 27 22 152 356
35 95 64 181 64 190 0 9 -14 37 -30 62 -49 74 -42 76 68 20z m995 -335 c43
-14 117 -30 166 -37 85 -12 88 -13 116 -51 15 -22 56 -72 91 -112 l64 -72 -15
-77 c-8 -43 -15 -109 -15 -148 l0 -70 -27 6 c-16 4 -63 18 -106 32 -42 13 -97
27 -120 30 l-43 6 19 90 c11 49 17 91 15 93 -2 2 -46 13 -98 24 -52 12 -98 25
-104 31 -18 18 -25 10 -31 -37 -4 -27 -26 -138 -50 -248 -24 -110 -52 -249
-64 -310 -11 -60 -32 -166 -46 -235 -31 -146 -33 -141 73 -160 37 -6 79 -14
94 -16 24 -5 28 -1 37 33 6 21 14 66 17 101 5 42 11 62 20 62 7 0 46 -13 86
-29 40 -15 103 -34 141 -41 37 -7 67 -14 67 -17 0 -2 -7 -17 -15 -32 -8 -16
-19 -62 -25 -103 -7 -40 -13 -83 -16 -96 -3 -15 -29 -38 -77 -68 -39 -26 -91
-62 -115 -81 -30 -24 -50 -34 -65 -30 -35 8 -339 86 -377 97 -28 8 -46 25 -90
90 -101 149 -95 134 -72 188 11 26 30 97 42 157 12 61 35 160 51 222 24 92 27
115 18 137 -10 22 -9 28 8 43 12 10 25 41 31 68 5 28 24 109 41 182 16 72 33
161 37 197 l7 67 54 32 c30 17 77 48 106 69 29 20 61 37 72 37 11 0 55 -10 98
-24z m2779 -11 c70 -35 178 -103 178 -111 0 -16 47 -231 76 -348 40 -163 52
-195 70 -195 21 0 26 -19 9 -36 -8 -9 -13 -24 -11 -33 3 -9 28 -100 55 -202
28 -102 59 -209 71 -238 11 -29 17 -58 14 -64 -4 -7 -38 -60 -77 -120 -65 -99
-73 -108 -111 -117 -23 -5 -102 -26 -176 -46 -173 -47 -181 -49 -189 -37 -3 6
-52 40 -108 77 -56 37 -109 77 -118 89 -8 12 -15 39 -15 60 0 39 -37 261 -66
395 -14 61 -20 75 -40 82 -29 11 -30 17 -4 38 20 17 19 18 -20 192 -22 96 -49
211 -60 255 -26 104 -26 115 10 161 16 21 49 65 72 97 27 37 49 57 62 57 38 0
200 38 251 58 28 11 51 20 53 21 1 1 35 -15 74 -35z m-2205 -93 c32 -5 115
-13 186 -16 70 -4 129 -11 132 -15 3 -5 -15 -29 -39 -55 l-44 -48 -11 -126
c-36 -405 -39 -508 -13 -527 16 -13 16 -15 -5 -31 -20 -16 -23 -33 -32 -153
-6 -74 -18 -198 -26 -275 -25 -221 -25 -215 18 -268 56 -69 50 -77 -50 -58
-58 12 -306 49 -347 53 -45 4 -41 22 12 57 77 49 83 60 93 158 28 262 40 375
50 437 11 69 11 70 -15 92 -14 13 -26 25 -26 28 0 2 14 7 30 11 29 6 30 8 30
68 0 34 5 91 10 127 5 36 14 121 20 190 5 69 13 152 16 185 6 59 5 61 -35 111
-42 53 -52 80 -27 71 8 -3 41 -10 73 -16z m1563 2 c0 -9 -16 -34 -36 -54 l-37
-37 27 -194 c15 -106 34 -231 41 -278 8 -47 14 -102 14 -123 1 -34 5 -40 36
-53 41 -17 44 -30 10 -46 -29 -13 -30 -17 -10 -128 8 -47 24 -159 36 -250 30
-243 32 -251 108 -295 28 -16 51 -35 51 -42 0 -7 -2 -13 -4 -13 -12 0 -281
-41 -356 -55 -47 -8 -93 -15 -102 -15 -29 0 -21 28 23 75 l41 45 -4 72 c-7
109 -49 488 -59 529 -6 22 -18 41 -34 49 -31 17 -31 24 0 38 15 7 25 20 25 32
0 11 -13 124 -29 252 -16 128 -32 261 -36 295 -7 60 -10 65 -60 112 l-54 48
107 8 c59 4 143 15 187 25 107 23 115 23 115 3z m-550 -143 l108 -85 6 -85 c4
-47 10 -110 14 -141 l8 -55 -101 0 c-55 1 -122 -3 -149 -8 -46 -8 -49 -7 -42
10 5 11 10 57 13 104 5 70 3 83 -8 73 -16 -16 -199 -18 -199 -3 0 6 -7 10 -15
10 -12 0 -15 -20 -15 -117 0 -65 -3 -127 -6 -138 -5 -18 6 -26 83 -57 290
-118 264 -104 424 -232 13 -11 18 -43 23 -157 4 -79 11 -194 17 -256 l11 -111
-94 -95 -95 -94 -217 -5 -216 -5 -107 104 -107 105 -1 131 0 132 120 0 c66 0
134 3 151 7 l31 7 -1 -102 -1 -102 80 -3 c44 -2 99 0 122 3 l43 6 -1 142 -1
142 -157 77 c-119 59 -289 157 -367 212 -1 1 5 84 13 186 8 102 12 211 9 242
l-6 56 96 88 95 87 122 -1 c67 -1 138 2 157 7 19 5 39 8 44 7 5 -1 57 -40 116
-86z m-1688 -1462 c112 -22 130 -32 52 -30 -28 2 -43 -2 -39 -8 9 -15 -15 -12
-82 11 -69 23 -102 49 -62 49 12 0 71 -10 131 -22z m2848 -63 c-14 -8 -34 -15
-45 -15 -11 0 -38 -7 -60 -15 -22 -8 -49 -14 -60 -15 -18 0 -18 1 3 16 13 9
32 14 43 11 11 -3 25 1 33 8 11 12 39 18 96 23 8 1 4 -5 -10 -13z m-2287 -45
c11 -9 -92 0 -118 11 -12 5 7 6 45 3 36 -4 69 -10 73 -14z m1810 -7 c-13 -2
-33 -2 -45 0 -13 2 -3 4 22 4 25 0 35 -2 23 -4z m-778 -47 c28 -10 70 -29 94
-43 41 -24 43 -27 24 -34 -30 -11 -34 -22 -17 -54 18 -36 8 -47 -16 -17 -10
12 -23 22 -29 22 -21 0 -22 -21 -2 -46 37 -47 23 -69 -23 -38 -31 20 -48 -1
-20 -25 32 -26 45 -48 38 -65 -5 -14 -9 -14 -31 4 -14 11 -32 20 -39 20 -23 0
-15 -30 11 -42 25 -11 42 -44 30 -56 -3 -3 -15 -1 -25 6 -28 17 -40 15 -40 -6
0 -11 12 -24 26 -31 34 -15 29 -47 -8 -43 -14 2 -29 -1 -32 -6 -8 -14 21 -35
39 -28 11 4 15 -2 15 -24 0 -22 -4 -28 -15 -24 -8 4 -22 3 -31 0 -24 -9 1 -35
26 -29 15 4 20 0 20 -16 0 -14 -6 -21 -19 -21 -24 0 -33 -13 -25 -34 8 -20 24
-21 24 -1 0 8 5 15 10 15 6 0 10 -15 10 -34 0 -26 -5 -36 -20 -41 -11 -3 -20
-15 -20 -25 0 -27 17 -34 25 -10 8 24 21 26 29 4 11 -29 6 -44 -14 -44 -13 0
-20 -7 -20 -19 0 -25 18 -37 33 -22 7 7 14 7 24 0 19 -17 16 -26 -12 -33 -17
-4 -25 -13 -25 -27 0 -16 4 -19 18 -14 43 19 62 18 62 -3 0 -13 -9 -22 -25
-26 -49 -13 -26 -37 45 -47 l45 -6 -37 -16 c-49 -22 -48 -33 2 -41 22 -3 40
-11 40 -17 0 -14 -91 -54 -165 -74 -124 -32 -321 -12 -418 43 -57 32 -75 57
-33 46 34 -8 76 3 76 20 0 8 -13 19 -30 25 -17 5 -30 17 -30 26 0 9 5 14 13
11 43 -18 88 -28 95 -22 4 5 -13 25 -38 47 -51 44 -49 56 4 34 20 -9 41 -13
46 -10 17 10 11 33 -9 40 -25 8 -35 34 -20 52 10 11 14 11 29 -2 26 -24 32
-18 25 25 -5 32 -3 41 9 46 22 8 20 27 -4 42 -28 17 -25 26 12 40 33 12 30 27
-7 34 -11 2 -21 11 -23 21 -3 13 3 17 27 17 37 0 42 24 9 41 -13 7 -26 17 -30
23 -10 14 12 38 29 31 10 -3 13 1 11 13 -2 9 -13 18 -26 20 -28 4 -29 38 -1
45 35 9 16 32 -30 35 -34 3 -41 7 -39 20 3 9 10 16 17 14 16 -3 41 22 41 42 0
18 -31 21 -47 5 -13 -13 -33 -4 -33 14 0 7 10 17 23 22 12 6 23 20 25 33 4 27
-2 28 -38 2 -37 -27 -50 -8 -21 31 11 15 21 35 21 44 0 19 -29 20 -36 0 -7
-17 -34 -20 -34 -4 0 6 8 24 17 40 15 25 16 31 4 38 -17 11 63 54 142 76 68
19 224 14 292 -9z m349 14 c35 -13 34 -40 -2 -40 -29 0 -72 24 -72 41 0 12 42
12 74 -1z m-1871 -38 c-3 -11 10 -16 30 -13 4 0 6 -4 5 -11 -2 -6 15 -17 37
-24 40 -12 40 -12 9 -13 -22 -1 -45 10 -72 32 -44 34 -53 51 -24 45 9 -2 16
-10 15 -16z m882 8 c-3 -5 -21 -9 -38 -9 l-32 1 30 8 c43 11 47 11 40 0z
m-370 -65 c300 -24 307 -25 293 -42 -11 -13 -37 -14 -178 -9 -216 9 -393 25
-404 37 -6 5 -2 9 11 9 12 0 25 5 28 10 8 13 35 13 250 -5z m1845 -15 c0 -5
10 -10 23 -11 21 -1 21 -1 -3 -9 -14 -4 -74 -9 -135 -9 -60 -1 -157 -6 -215
-11 -92 -8 -107 -7 -117 8 -7 8 -13 18 -13 21 0 3 60 8 133 9 72 2 134 6 136
8 9 9 191 4 191 -6z m-531 -144 c75 -116 102 -245 82 -391 -13 -100 -66 -237
-108 -282 -34 -37 -32 -37 -79 6 -11 10 -18 11 -27 2 -6 -6 -15 -11 -19 -11
-14 0 -9 27 7 40 21 18 19 38 -6 45 -18 6 -20 12 -14 41 5 31 4 34 -18 34 -12
0 -28 -5 -35 -12 -9 -9 -15 -9 -24 1 -11 10 -7 18 20 40 55 47 35 85 -22 40
-25 -20 -26 -20 -26 -2 0 11 14 32 30 48 30 29 41 61 18 52 -53 -19 -58 -19
-58 7 0 21 5 25 38 28 29 2 37 7 37 23 0 17 -6 20 -38 19 -30 -1 -37 2 -35 15
2 9 12 17 23 19 54 8 65 13 65 31 0 12 -9 21 -25 25 -39 10 -32 36 10 36 42 0
48 25 10 40 -27 10 -30 17 -15 40 8 13 13 13 30 2 11 -7 25 -10 30 -7 18 11
10 32 -15 43 -14 6 -25 18 -25 27 0 12 10 15 43 13 39 -3 42 -1 45 25 3 24 0
27 -25 27 l-28 0 30 24 30 24 28 -26 c15 -14 45 -53 66 -86z m-790 69 c15 -15
17 -14 -34 -30 -8 -2 -15 -11 -15 -19 0 -21 30 -28 55 -12 13 8 25 12 29 9 14
-14 4 -41 -19 -51 -26 -12 -34 -42 -11 -42 7 0 19 7 26 15 17 20 40 2 40 -31
0 -19 -5 -24 -25 -24 -19 0 -25 -5 -25 -21 0 -16 5 -20 28 -18 32 4 52 -7 52
-27 0 -9 -11 -14 -30 -14 -24 0 -30 -4 -30 -21 0 -17 5 -20 33 -17 27 2 33 -1
35 -19 3 -20 -1 -23 -32 -23 -20 0 -36 -3 -36 -7 1 -20 19 -33 41 -31 20 3 25
-2 27 -24 2 -20 -1 -28 -12 -28 -8 0 -18 5 -21 10 -8 14 -25 3 -25 -16 0 -8
11 -19 25 -24 19 -7 25 -17 25 -40 0 -35 -10 -38 -28 -10 -7 11 -17 20 -22 20
-19 0 -10 -49 11 -63 14 -10 19 -23 17 -41 -4 -33 -20 -36 -33 -7 -11 23 -14
25 -34 12 -11 -7 -8 -16 12 -46 33 -48 24 -66 -14 -29 -16 15 -32 25 -35 21
-4 -4 -1 -27 6 -52 14 -51 7 -69 -15 -39 -13 16 -16 17 -25 4 -5 -8 -10 -23
-10 -32 0 -34 -26 -17 -67 45 -55 83 -78 131 -97 204 -43 164 4 378 110 501
34 41 40 43 73 37 20 -4 42 -13 50 -20z m-326 -30 c26 0 47 -2 47 -5 0 -17
-29 -30 -64 -29 -36 1 -38 2 -16 10 24 8 -90 6 -346 -7 -96 -5 -116 -3 -145
13 l-34 18 65 6 c36 4 151 4 255 0 105 -3 211 -6 238 -6z m1777 0 c0 -3 -10
-10 -22 -15 -21 -8 -20 -9 10 -9 17 -1 32 4 32 9 0 6 5 10 12 10 6 0 3 -9 -7
-20 -17 -19 -30 -20 -179 -19 -89 1 -174 5 -191 9 l-30 8 33 1 c17 0 32 5 32
10 0 6 -15 12 -32 14 -18 2 51 5 155 5 103 1 187 0 187 -3z m-484 -25 l39 -19
-32 -1 c-22 0 -36 6 -43 20 -13 25 -13 25 36 0z m-1433 -97 c136 -6 148 -10
128 -41 -6 -11 -42 -12 -189 -4 -173 9 -212 17 -212 43 0 11 87 11 273 2z
m1827 -16 c0 -8 -8 -18 -17 -22 -22 -10 -346 -24 -354 -16 -4 3 -10 15 -13 27
-6 21 -5 21 189 23 165 2 195 0 195 -12z m-157 -147 c-23 -20 -46 -30 -85 -35
-86 -11 -112 -5 -116 27 l-3 27 94 3 c52 2 105 4 118 5 23 2 23 1 -8 -27z
m-1627 10 c48 0 54 -2 54 -21 0 -21 -3 -21 -82 -14 -79 6 -148 26 -148 41 0 4
28 4 61 0 34 -3 86 -6 115 -6z m1504 -140 c-34 -26 -70 -26 -70 0 0 17 7 20
48 20 l47 0 -25 -20z m-1455 -11 c5 -5 -4 -9 -22 -9 -17 0 -36 7 -43 15 -11
13 -8 14 21 9 19 -4 38 -11 44 -15z m975 -216 c-1 -27 -1 -27 -15 -9 -19 25
-19 36 0 36 10 0 15 -10 15 -27z"/>
<path d="M4635 8802 c-33 -7 -91 -13 -129 -15 l-68 -2 5 -60 c3 -33 14 -145
23 -250 12 -132 21 -192 30 -198 11 -6 11 -12 2 -27 -9 -14 -9 -41 0 -112 6
-51 14 -144 18 -205 l7 -113 33 0 c61 0 184 22 185 34 4 30 -3 393 -7 409 -3
9 -12 17 -19 17 -25 0 -29 23 -6 41 22 18 23 20 12 146 -6 71 -15 178 -19 238
l-7 110 -60 -13z"/>
<path d="M6517 8603 c-3 -4 -12 -62 -22 -128 -14 -106 -25 -161 -41 -216 -4
-14 8 -19 63 -28 37 -7 92 -19 122 -27 29 -8 57 -12 62 -7 7 7 79 334 79 357
0 10 -28 7 -32 -3 -2 -8 -157 32 -209 54 -10 3 -19 3 -22 -2z"/>
<path d="M3630 8579 c-58 -15 -118 -28 -134 -28 -23 -1 -27 -4 -21 -18 4 -10
20 -99 37 -198 17 -99 31 -181 32 -182 1 -1 60 17 131 40 83 27 129 47 127 55
-1 7 -14 77 -28 155 -13 78 -28 156 -32 172 l-7 31 -105 -27z"/>
<path d="M4675 7380 c-329 -23 -600 -70 -673 -118 -23 -15 -23 -16 -6 -29 23
-17 54 -16 112 2 93 29 438 66 668 72 204 5 221 4 227 -12 12 -29 -42 -116
-88 -143 l-40 -23 375 5 c369 5 450 10 685 49 50 9 119 18 155 22 36 3 82 11
102 17 31 9 36 14 26 25 -6 8 -24 21 -39 28 -68 36 -376 85 -654 105 -157 11
-682 11 -850 0z"/>
<path d="M4026 7144 c28 -27 61 -65 74 -84 26 -37 242 -293 375 -444 44 -50
109 -127 145 -171 92 -116 250 -293 303 -342 27 -25 63 -46 89 -53 23 -7 51
-16 60 -21 27 -14 86 -11 146 8 69 22 101 57 447 473 143 173 314 375 380 449
122 138 200 231 194 231 -2 0 -40 -12 -84 -25 -172 -54 -460 -85 -870 -92
-271 -5 -353 -3 -455 10 -69 9 -210 24 -314 32 -103 9 -227 23 -275 31 -123
22 -214 33 -224 27 -4 -2 -16 1 -25 7 -9 7 6 -10 34 -36z m314 -58 c69 -8 186
-20 260 -26 283 -25 282 -25 135 -34 -139 -8 -224 -22 -348 -56 -50 -14 -89
-19 -110 -15 -45 10 -98 48 -148 107 l-43 51 65 -6 c35 -4 120 -13 189 -21z
m466 -115 c-3 -4 3 -16 14 -26 11 -10 20 -24 20 -32 0 -7 5 -13 10 -13 6 0 10
-4 10 -10 0 -5 -7 -10 -16 -10 -9 0 -12 -5 -8 -11 13 -21 -191 -4 -306 26 -58
15 -109 31 -113 35 -7 6 115 24 278 40 108 11 117 11 111 1z m475 -8 c12 -12
-46 -43 -80 -43 -11 0 -26 -8 -32 -19 -12 -19 -49 -18 -49 1 0 6 -11 3 -25 -6
-13 -9 -37 -16 -52 -15 -15 0 -22 3 -15 6 18 7 15 21 -8 28 -11 3 -29 20 -41
37 l-22 31 157 -5 c86 -3 161 -9 167 -15z m704 -2 c-22 -36 -207 -88 -455
-126 -135 -22 -529 -31 -671 -17 -201 21 -161 30 111 24 380 -7 621 17 830 83
144 46 198 56 185 36z m-1667 -50 c15 -11 44 -22 65 -26 91 -15 120 -37 190
-142 35 -54 102 -152 148 -218 78 -113 174 -257 269 -403 35 -55 37 -61 15
-45 -38 28 -370 411 -561 650 -63 78 -125 153 -139 167 -39 39 -32 49 13 17z
m405 -92 c21 -5 41 -18 44 -27 3 -9 72 -152 153 -317 81 -166 150 -312 154
-325 11 -41 -83 65 -139 156 -27 44 -106 168 -177 276 -71 109 -133 209 -138
223 -9 24 -8 25 28 25 20 0 54 -5 75 -11z m1105 -33 c-108 -144 -561 -696
-567 -690 -6 6 42 71 144 194 53 63 129 158 168 210 73 97 273 330 283 330 3
0 -9 -20 -28 -44z"/>
<path d="M5010 5986 c0 -2 14 -34 31 -70 44 -93 49 -186 48 -769 l-2 -488 42
-35 c22 -20 41 -42 41 -49 0 -7 -12 -23 -27 -35 l-28 -21 205 5 c113 3 225 9
250 12 89 13 32 -6 -71 -23 -158 -26 -590 -23 -798 6 -178 24 -184 25 -179 9
18 -53 548 -95 853 -68 229 20 344 46 318 71 -8 7 -61 25 -228 79 -168 54
-237 112 -274 228 -32 100 -41 224 -41 562 0 357 9 457 44 509 13 20 27 47 31
60 6 21 5 23 -11 16 -56 -23 -105 -26 -151 -11 -51 17 -53 18 -53 12z"/>
<path d="M7460 5955 l0 -65 60 0 60 0 0 65 0 65 -60 0 -60 0 0 -65z"/>
<path d="M7862 5953 c3 -67 4 -68 32 -71 16 -2 44 -1 63 3 l33 6 0 64 0 65
-65 0 -66 0 3 -67z"/>
<path d="M5764 5826 c-3 -8 -4 -29 -2 -48 3 -29 6 -33 33 -33 26 0 30 4 33 31
5 47 -49 89 -64 50z"/>
<path d="M6003 5824 c-34 -15 -2 -84 38 -84 17 0 20 6 17 43 -2 34 -7 42 -23
44 -11 1 -26 -1 -32 -3z"/>
<path d="M2043 4605 c-67 -132 -135 -267 -153 -300 -51 -95 -151 -276 -177
-322 l-24 -43 88 -43 c133 -67 124 -67 170 5 22 35 116 214 208 398 92 184
174 344 181 355 8 11 14 24 14 30 0 5 -38 35 -85 65 -46 30 -88 64 -93 75 -7
16 -31 -24 -129 -220z"/>
<path d="M2970 3310 l-25 -8 28 -1 c15 -1 27 4 27 9 0 6 -1 10 -2 9 -2 -1 -14
-5 -28 -9z"/>
<path d="M6500 4161 c0 -11 -125 -41 -174 -41 -35 0 -38 -2 -32 -22 4 -13 29
-117 56 -233 28 -115 55 -214 60 -219 6 -6 10 -23 10 -39 0 -16 9 -63 19 -105
11 -43 29 -128 40 -190 27 -148 31 -155 84 -147 52 8 159 34 165 40 7 6 -23
154 -68 345 -68 284 -133 564 -138 593 -4 24 -22 40 -22 18z"/>
</g>
</svg>
